<svg width="1752" height="1752" viewBox="0 0 1752 1752" fill="none" xmlns="http://www.w3.org/2000/svg">
<path d="M1198.04 644.089C1199.7 639.157 1202.87 634.87 1207.09 631.835C1211.32 628.8 1216.4 627.169 1221.6 627.174H1377.71L1215.67 1107.32C1214.01 1112.24 1210.84 1116.52 1206.62 1119.55C1202.4 1122.58 1197.33 1124.21 1192.13 1124.21H1070.64C1066.69 1124.22 1062.8 1123.28 1059.28 1121.48C1055.77 1119.68 1052.73 1117.07 1050.43 1113.86C1048.12 1110.66 1046.62 1106.95 1046.04 1103.04C1045.45 1099.14 1045.81 1095.15 1047.08 1091.41L1198.04 644.089Z" fill="url(#paint0_linear_3136_8179)"/>
<path d="M1447.63 950.246H1201.57C1199.29 950.254 1197.06 950.948 1195.18 952.238C1193.29 953.527 1191.83 955.353 1191 957.479C1190.16 959.605 1189.98 961.933 1190.48 964.162C1190.99 966.391 1192.14 968.418 1193.81 969.98L1351.91 1117.54C1356.52 1121.84 1362.59 1124.21 1368.87 1124.21H1508.18L1447.63 950.246Z" fill="#0078D4"/>
<path d="M1377.71 627.174H1203.75L1036 1124.21H1209.97L1245.68 1018.38L1359.07 1124.21H1508.2L1447.63 950.246H1268.68L1377.71 627.174Z" fill="url(#paint1_linear_3136_8179)"/>
<path d="M1420.69 644.089C1419.03 639.16 1415.87 634.876 1411.65 631.842C1407.42 628.807 1402.36 627.174 1397.16 627.174H1222.41H1223.19C1233.86 627.174 1243.33 633.976 1246.73 644.089L1397.71 1091.41C1398.98 1095.15 1399.34 1099.13 1398.75 1103.04C1398.17 1106.94 1396.67 1110.65 1394.37 1113.86C1392.07 1117.06 1389.04 1119.67 1385.52 1121.48C1382.01 1123.28 1378.12 1124.21 1374.18 1124.21H1371.49H1548.14C1552.09 1124.21 1555.98 1123.28 1559.49 1121.48C1563 1119.67 1566.03 1117.06 1568.33 1113.86C1570.64 1110.65 1572.14 1106.94 1572.72 1103.04C1573.3 1099.13 1572.95 1095.15 1571.68 1091.41L1420.69 644.089Z" fill="url(#paint2_linear_3136_8179)"/>
<path d="M521 1087H222V831H329.46V1023.67H521V1087Z" fill="white"/>
<path d="M657 1005H348V748H642.874V811.58H455.649V851.876H613.905V901.304H455.649V941.424H657V1005Z" fill="white"/>
<path d="M470 665H769V921H661.54V728.331H470V665Z" fill="white"/>
<defs>
<linearGradient id="paint0_linear_3136_8179" x1="1220.53" y1="644.38" x2="1058.42" y2="1123.29" gradientUnits="userSpaceOnUse">
<stop stop-color="#114A8B"/>
<stop offset="1" stop-color="#0669BC"/>
</linearGradient>
<linearGradient id="paint1_linear_3136_8179" x1="1350.19" y1="950.381" x2="1311.75" y2="963.492" gradientUnits="userSpaceOnUse">
<stop stop-opacity="0.3"/>
<stop offset="0.071" stop-opacity="0.2"/>
<stop offset="0.321" stop-opacity="0.1"/>
<stop offset="0.623" stop-opacity="0.05"/>
<stop offset="1" stop-opacity="0"/>
</linearGradient>
<linearGradient id="paint2_linear_3136_8179" x1="1323.32" y1="644.38" x2="1501.24" y2="1118.46" gradientUnits="userSpaceOnUse">
<stop stop-color="#3CCBF4"/>
<stop offset="1" stop-color="#2892DF"/>
</linearGradient>
</defs>
</svg>
