<svg width="612" height="202" viewBox="0 0 612 202" fill="none" xmlns="http://www.w3.org/2000/svg">
<path d="M103.49 29.1602C105.74 24.6602 107.74 10.9102 102.24 1.66016" stroke="url(#paint0_linear_3093_8352)" stroke-width="1.5" stroke-linecap="round" stroke-linejoin="round"/>
<path d="M86.343 36.0547C88.593 31.5547 90.593 17.8047 85.093 8.55469" stroke="url(#paint1_linear_3093_8352)" stroke-width="1.5" stroke-linecap="round" stroke-linejoin="round"/>
<path d="M57.7713 48.8742C59.0948 44.317 58.6497 31.2101 52.0464 23.541" stroke="url(#paint2_linear_3093_8352)" stroke-width="1.40972" stroke-linecap="round" stroke-linejoin="round"/>
<path d="M72.3097 41.2507C74.3475 36.9989 75.7051 24.2536 69.7817 16.0254" stroke="url(#paint3_linear_3093_8352)" stroke-width="1.43934" stroke-linecap="round" stroke-linejoin="round"/>
<path d="M32.7002 70.2959C33.1552 65.2854 30.0057 51.7524 21.5125 45.1436" stroke="url(#paint4_linear_3093_8352)" stroke-width="1.5" stroke-linecap="round" stroke-linejoin="round"/>
<path d="M42.9507 58.6847C44.1986 54.1655 43.2467 41.3649 35.915 34.1689" stroke="url(#paint5_linear_3093_8352)" stroke-width="1.44229" stroke-linecap="round" stroke-linejoin="round"/>
<path d="M116.46 21.86C107.612 19.6539 96.5869 9.00998 95.2959 3.83398" stroke="url(#paint6_linear_3093_8352)" stroke-width="1.5" stroke-linecap="round" stroke-linejoin="round"/>
<path d="M100.02 29.8151C91.1722 27.609 80.147 16.9651 78.856 11.7891" stroke="url(#paint7_linear_3093_8352)" stroke-width="1.5" stroke-linecap="round" stroke-linejoin="round"/>
<path d="M82.5386 36.5329C74.9039 33.6853 66.0882 22.8615 65.4033 17.9727" stroke="url(#paint8_linear_3093_8352)" stroke-width="1.36135" stroke-linecap="round" stroke-linejoin="round"/>
<path d="M67.6699 42.1891C58.8221 39.983 47.7969 29.3391 46.5059 24.1631" stroke="url(#paint9_linear_3093_8352)" stroke-width="1.5" stroke-linecap="round" stroke-linejoin="round"/>
<path d="M54.3996 49.4929C45.2825 49.3256 32.1524 41.423 29.7344 36.668" stroke="url(#paint10_linear_3093_8352)" stroke-width="1.5" stroke-linecap="round" stroke-linejoin="round"/>
<path d="M40.9686 60.4317C31.8513 60.278 18.7095 52.395 16.2844 47.6436" stroke="url(#paint11_linear_3093_8352)" stroke-width="1.5" stroke-linecap="round" stroke-linejoin="round"/>
<path d="M27.7047 79.4598C22.7435 77.6604 9.93553 78.2319 4.62109 87.1396" stroke="url(#paint12_linear_3093_8352)" stroke-width="1.63487" stroke-linecap="round" stroke-linejoin="round"/>
<path d="M25.9585 100.218C20.9522 100.717 8.25659 106.363 3.36914 115.951" stroke="url(#paint13_linear_3093_8352)" stroke-width="1.5" stroke-linecap="round" stroke-linejoin="round"/>
<path d="M33.0086 130.914C28.7201 128.284 15.1946 125.102 5.50366 129.781" stroke="url(#paint14_linear_3093_8352)" stroke-width="1.5" stroke-linecap="round" stroke-linejoin="round"/>
<path d="M49.7271 141.137C45.5774 142.251 35.4424 149.824 32.1978 160.771" stroke="url(#paint15_linear_3093_8352)" stroke-width="1.45939" stroke-linecap="round" stroke-linejoin="round"/>
<path d="M71.8028 141.775C68.4656 144.268 61.4324 154.443 61.1438 164.88" stroke="url(#paint16_linear_3093_8352)" stroke-width="1.31199" stroke-linecap="round" stroke-linejoin="round"/>
<path d="M96.5253 128.394C93.7449 132.587 90.0882 145.992 94.4229 155.842" stroke="url(#paint17_linear_3093_8352)" stroke-width="1.5" stroke-linecap="round" stroke-linejoin="round"/>
<path d="M112.331 111.008C110.777 116.728 111.661 133.07 120.167 142.472" stroke="url(#paint18_linear_3093_8352)" stroke-width="1.76747" stroke-linecap="round" stroke-linejoin="round"/>
<path d="M133.782 90.4253C132.274 96.3605 133.369 113.309 142.116 123.044" stroke="url(#paint19_linear_3093_8352)" stroke-width="1.8135" stroke-linecap="round" stroke-linejoin="round"/>
<path d="M28.2062 85.1855C19.1629 83.2053 7.89399 73.6517 6.57446 69.0059" stroke="url(#paint20_linear_3093_8352)" stroke-width="1.43672" stroke-linecap="round" stroke-linejoin="round"/>
<path d="M22.7099 109.86C13.8621 107.654 2.8369 97.01 1.5459 91.834" stroke="url(#paint21_linear_3093_8352)" stroke-width="1.5" stroke-linecap="round" stroke-linejoin="round"/>
<path d="M26.573 115.153C26.3534 125.75 15.9672 141.012 9.71753 143.823" stroke="url(#paint22_linear_3093_8352)" stroke-width="1.85537" stroke-linecap="round" stroke-linejoin="round"/>
<path d="M39.1815 136.597C43.6436 143.572 46.1722 159.264 44.9592 164.585" stroke="url(#paint23_linear_3093_8352)" stroke-width="1.33984" stroke-linecap="round" stroke-linejoin="round"/>
<path d="M56.265 143.799C64.9199 146.669 75.1061 158.119 76.0007 163.378" stroke="url(#paint24_linear_3093_8352)" stroke-width="1.5" stroke-linecap="round" stroke-linejoin="round"/>
<path d="M81.1593 138.348C90.2378 137.493 104.17 143.876 107.106 148.33" stroke="url(#paint25_linear_3093_8352)" stroke-width="1.5" stroke-linecap="round" stroke-linejoin="round"/>
<path d="M100.115 122.891C108.16 119.336 121.306 128.222 124.398 135.892" stroke="url(#paint26_linear_3093_8352)" stroke-width="2.12172" stroke-linecap="round" stroke-linejoin="round"/>
<path d="M122.664 102.824C133.741 100.979 151.08 110.146 154.871 116.927" stroke="url(#paint27_linear_3093_8352)" stroke-width="2.08817" stroke-linecap="round" stroke-linejoin="round"/>
<path d="M149.436 75.628C150.3 81.6346 156.103 97.3059 164.448 104.082" stroke="url(#paint28_linear_3093_8352)" stroke-width="1.50214" stroke-linecap="round" stroke-linejoin="round"/>
<path d="M173.99 53.556C173.549 59.6 176.459 75.9411 184.397 83.9482" stroke="url(#paint29_linear_3093_8352)" stroke-width="1.60663" stroke-linecap="round" stroke-linejoin="round"/>
<path d="M200.483 30.7461C198.752 37.4512 198.309 57.1617 204.814 69.3301" stroke="url(#paint30_linear_3093_8352)" stroke-width="1.78984" stroke-linecap="round" stroke-linejoin="round"/>
<path d="M224.177 19.7539C221.193 25.2366 218.819 42.638 226.691 55.2549" stroke="url(#paint31_linear_3093_8352)" stroke-width="2.00471" stroke-linecap="round" stroke-linejoin="round"/>
<path d="M247.43 9.00977C244.913 14.6583 241.834 32.5028 246.238 45.3298" stroke="url(#paint32_linear_3093_8352)" stroke-width="1.6801" stroke-linecap="round" stroke-linejoin="round"/>
<path d="M279.81 9.77051C276.07 14.7221 268.503 31.9975 268.834 46.6315" stroke="url(#paint33_linear_3093_8352)" stroke-width="1.6685" stroke-linecap="round" stroke-linejoin="round"/>
<path d="M140.961 84.8615C153.05 83.032 172.224 90.5702 176.514 96.3398" stroke="url(#paint34_linear_3093_8352)" stroke-width="2.01628" stroke-linecap="round" stroke-linejoin="round"/>
<path d="M167.777 60.5202C177.971 64.199 193.009 74.8018 195.932 79.0391" stroke="url(#paint35_linear_3093_8352)" stroke-width="1.42373" stroke-linecap="round" stroke-linejoin="round"/>
<path d="M185.857 42.7236C198.392 44.4626 215.276 58.2857 217.882 65.7061" stroke="url(#paint36_linear_3093_8352)" stroke-width="2.1532" stroke-linecap="round" stroke-linejoin="round"/>
<path d="M213.071 22.8715C225.26 28.5512 237.976 46.5386 238.234 54.0752" stroke="url(#paint37_linear_3093_8352)" stroke-width="2.17651" stroke-linecap="round" stroke-linejoin="round"/>
<path d="M231.914 14.9655C243.737 18.737 257.48 33.9582 258.597 40.9775" stroke="url(#paint38_linear_3093_8352)" stroke-width="2.03175" stroke-linecap="round" stroke-linejoin="round"/>
<path d="M265.415 9.31473C275.672 18.3722 284.556 42.5108 283.656 51.7344" stroke="url(#paint39_linear_3093_8352)" stroke-width="2.33416" stroke-linecap="round" stroke-linejoin="round"/>
<path d="M315.21 26.0703C307.112 26.7246 295.919 38.6393 293.642 52.3023" stroke="url(#paint40_linear_3093_8352)" stroke-width="1.8407" stroke-linecap="round" stroke-linejoin="round"/>
<path d="M301.17 19.6699C306.763 31.4439 307.421 50.2909 304.357 57.3439" stroke="url(#paint41_linear_3093_8352)" stroke-width="1.9892" stroke-linecap="round" stroke-linejoin="round"/>
<path d="M344.115 52.5686C336.392 50.0469 321.468 56.7191 314.095 68.4449" stroke="url(#paint42_linear_3093_8352)" stroke-width="1.8407" stroke-linecap="round" stroke-linejoin="round"/>
<path d="M333.587 42.9023C334.288 55.9185 327.737 73.6026 322.223 78.9627" stroke="url(#paint43_linear_3093_8352)" stroke-width="1.9892" stroke-linecap="round" stroke-linejoin="round"/>
<path d="M360.858 81.8438C354.527 78.4085 340.721 82.3747 332.75 92.0767" stroke="url(#paint44_linear_3093_8352)" stroke-width="1.66148" stroke-linecap="round" stroke-linejoin="round"/>
<path d="M353.343 69.9248C352.101 81.9738 343.935 97.2115 338.413 101.298" stroke="url(#paint45_linear_3093_8352)" stroke-width="1.79552" stroke-linecap="round" stroke-linejoin="round"/>
<path d="M377.438 103.536C369.79 101.474 355.967 107.801 349.834 118.455" stroke="url(#paint46_linear_3093_8352)" stroke-width="1.70935" stroke-linecap="round" stroke-linejoin="round"/>
<path d="M366.404 93.6807C368.075 105.295 363.113 121.215 358.209 126.107" stroke="url(#paint47_linear_3093_8352)" stroke-width="1.84725" stroke-linecap="round" stroke-linejoin="round"/>
<path d="M396.905 115.181C389.389 115.001 375.769 126.25 369.698 140.276" stroke="url(#paint48_linear_3093_8352)" stroke-width="1.82948" stroke-linecap="round" stroke-linejoin="round"/>
<path d="M382.639 111.407C387.458 123.206 385.264 140.054 380.49 145.546" stroke="url(#paint49_linear_3093_8352)" stroke-width="2.08299" stroke-linecap="round" stroke-linejoin="round"/>
<path d="M447.623 105.53C442.448 109.041 439.442 121.314 443.064 131.385" stroke="url(#paint50_linear_3093_8352)" stroke-width="1.41861" stroke-linecap="round" stroke-linejoin="round"/>
<path d="M433.683 108.784C442.426 113.576 450.484 123.839 451.131 128.714" stroke="url(#paint51_linear_3093_8352)" stroke-width="1.4559" stroke-linecap="round" stroke-linejoin="round"/>
<path d="M420.823 113.195C412.027 116.167 402.454 133.75 403.144 151.084" stroke="url(#paint52_linear_3093_8352)" stroke-width="2.19129" stroke-linecap="round" stroke-linejoin="round"/>
<path d="M410.017 115.773C418.276 125.489 422.968 142.742 421.321 149.878" stroke="url(#paint53_linear_3093_8352)" stroke-width="1.98181" stroke-linecap="round" stroke-linejoin="round"/>
<path d="M468.49 96.5703C465.99 100.07 462.74 111.82 461.49 120.82" stroke="url(#paint54_linear_3093_8352)" stroke-width="1.4" stroke-linecap="round" stroke-linejoin="round"/>
<path d="M457.99 97.8203C464.49 102.57 475.49 113.32 476.24 117.57" stroke="url(#paint55_linear_3093_8352)" stroke-width="1.4" stroke-linecap="round" stroke-linejoin="round"/>
<path d="M496.153 95.6829C492.476 98.6823 486.167 109.667 482.789 118.301" stroke="url(#paint56_linear_3093_8352)" stroke-width="1.53057" stroke-linecap="round" stroke-linejoin="round"/>
<path d="M483.562 95.0449C490.184 100.876 500.816 113.411 500.794 117.727" stroke="url(#paint57_linear_3093_8352)" stroke-width="1.53057" stroke-linecap="round" stroke-linejoin="round"/>
<path d="M524.951 106.715C520.873 107.997 511.347 115.128 505.055 121.272" stroke="url(#paint58_linear_3093_8352)" stroke-width="1.35671" stroke-linecap="round" stroke-linejoin="round"/>
<path d="M514.528 102.809C517.84 110.131 521.318 124.623 518.795 128.334" stroke="url(#paint59_linear_3093_8352)" stroke-width="1.62335" stroke-linecap="round" stroke-linejoin="round"/>
<path d="M545.16 126.479C540.885 126.002 529.042 128.893 520.574 132.189" stroke="url(#paint60_linear_3093_8352)" stroke-width="1.4" stroke-linecap="round" stroke-linejoin="round"/>
<path d="M538.95 117.921C537.971 125.912 533.948 140.757 530.603 143.483" stroke="url(#paint61_linear_3093_8352)" stroke-width="1.4" stroke-linecap="round" stroke-linejoin="round"/>
<path d="M556.841 147.078C553.083 145.91 541.961 146.52 533.802 148.079" stroke="url(#paint62_linear_3093_8352)" stroke-width="1.29002" stroke-linecap="round" stroke-linejoin="round"/>
<path d="M552.357 138.547C550.132 145.677 544.017 158.545 540.553 160.462" stroke="url(#paint63_linear_3093_8352)" stroke-width="1.29002" stroke-linecap="round" stroke-linejoin="round"/>
<path d="M567.46 163.29C563.897 163.014 554.241 166.155 547.401 169.542" stroke="url(#paint64_linear_3093_8352)" stroke-width="1.2288" stroke-linecap="round" stroke-linejoin="round"/>
<path d="M561.88 155.59C561.48 163.045 558.91 176.98 556.281 179.64" stroke="url(#paint65_linear_3093_8352)" stroke-width="1.2288" stroke-linecap="round" stroke-linejoin="round"/>
<path d="M576.645 178.58C573.166 179.196 564.8 184.101 559.191 188.543" stroke="url(#paint66_linear_3093_8352)" stroke-width="1.14046" stroke-linecap="round" stroke-linejoin="round"/>
<path d="M569.965 172.872C571.616 179.167 572.964 191.365 571.179 194.201" stroke="url(#paint67_linear_3093_8352)" stroke-width="1.14046" stroke-linecap="round" stroke-linejoin="round"/>
<path d="M590.952 184.776C588.12 185.847 581.873 191.666 577.874 196.658" stroke="url(#paint68_linear_3093_8352)" stroke-width="1.03254" stroke-linecap="round" stroke-linejoin="round"/>
<path d="M581.884 182.099C584.741 187.567 588.44 198.412 587.217 201.214" stroke="url(#paint69_linear_3093_8352)" stroke-width="1.10312" stroke-linecap="round" stroke-linejoin="round"/>
<path d="M606.276 186.577C603.313 188.47 598.568 195.62 596.187 201.288" stroke="url(#paint70_linear_3093_8352)" stroke-width="1.19547" stroke-linecap="round" stroke-linejoin="round"/>
<path d="M596.08 186.011C600.633 189.412 608.082 196.632 608.257 199.025" stroke="url(#paint71_linear_3093_8352)" stroke-width="0.936633" stroke-linecap="round" stroke-linejoin="round"/>
<defs>
<linearGradient id="paint0_linear_3093_8352" x1="104.99" y1="29.5402" x2="103.53" y2="-0.339844" gradientUnits="userSpaceOnUse">
<stop stop-color="#095916"/>
<stop offset="1" stop-color="#3C804F" stop-opacity="0"/>
</linearGradient>
<linearGradient id="paint1_linear_3093_8352" x1="87.843" y1="36.4347" x2="86.383" y2="6.55469" gradientUnits="userSpaceOnUse">
<stop stop-color="#095916"/>
<stop offset="1" stop-color="#3C804F" stop-opacity="0"/>
</linearGradient>
<linearGradient id="paint2_linear_3093_8352" x1="59.2158" y1="48.9755" x2="52.798" y2="21.4912" gradientUnits="userSpaceOnUse">
<stop stop-color="#095916"/>
<stop offset="1" stop-color="#3C804F" stop-opacity="0"/>
</linearGradient>
<linearGradient id="paint3_linear_3093_8352" x1="73.8255" y1="41.5243" x2="71.198" y2="14.0999" gradientUnits="userSpaceOnUse">
<stop stop-color="#095916"/>
<stop offset="1" stop-color="#3C804F" stop-opacity="0"/>
</linearGradient>
<linearGradient id="paint4_linear_3093_8352" x1="34.2355" y1="70.103" x2="21.9847" y2="42.8109" gradientUnits="userSpaceOnUse">
<stop stop-color="#095916"/>
<stop offset="1" stop-color="#3C804F" stop-opacity="0"/>
</linearGradient>
<linearGradient id="paint5_linear_3093_8352" x1="44.4972" y1="58.7169" x2="37.5423" y2="31.8958" gradientUnits="userSpaceOnUse">
<stop stop-color="#095916"/>
<stop offset="1" stop-color="#3C804F" stop-opacity="0"/>
</linearGradient>
<linearGradient id="paint6_linear_3093_8352" x1="128.068" y1="18.5113" x2="106.349" y2="-3.65591" gradientUnits="userSpaceOnUse">
<stop stop-color="#095916"/>
<stop offset="1" stop-color="#3C804F" stop-opacity="0"/>
</linearGradient>
<linearGradient id="paint7_linear_3093_8352" x1="111.628" y1="26.4663" x2="89.9089" y2="4.29917" gradientUnits="userSpaceOnUse">
<stop stop-color="#095916"/>
<stop offset="1" stop-color="#3C804F" stop-opacity="0"/>
</linearGradient>
<linearGradient id="paint8_linear_3093_8352" x1="93.1072" y1="34.5156" x2="74.9875" y2="12.805" gradientUnits="userSpaceOnUse">
<stop stop-color="#095916"/>
<stop offset="1" stop-color="#3C804F" stop-opacity="0"/>
</linearGradient>
<linearGradient id="paint9_linear_3093_8352" x1="79.2781" y1="38.8404" x2="57.5588" y2="16.6732" gradientUnits="userSpaceOnUse">
<stop stop-color="#095916"/>
<stop offset="1" stop-color="#3C804F" stop-opacity="0"/>
</linearGradient>
<linearGradient id="paint10_linear_3093_8352" x1="64.9622" y1="43.6281" x2="38.8278" y2="26.8917" gradientUnits="userSpaceOnUse">
<stop stop-color="#095916"/>
<stop offset="1" stop-color="#3C804F" stop-opacity="0"/>
</linearGradient>
<linearGradient id="paint11_linear_3093_8352" x1="51.5224" y1="54.5511" x2="25.3633" y2="37.8538" gradientUnits="userSpaceOnUse">
<stop stop-color="#095916"/>
<stop offset="1" stop-color="#3C804F" stop-opacity="0"/>
</linearGradient>
<linearGradient id="paint12_linear_3093_8352" x1="27.3085" y1="77.5076" x2="3.0555" y2="87.8128" gradientUnits="userSpaceOnUse">
<stop stop-color="#095916"/>
<stop offset="1" stop-color="#3C804F" stop-opacity="0"/>
</linearGradient>
<linearGradient id="paint13_linear_3093_8352" x1="25.4794" y1="98.7468" x2="0.989326" y2="115.928" gradientUnits="userSpaceOnUse">
<stop stop-color="#095916"/>
<stop offset="1" stop-color="#3C804F" stop-opacity="0"/>
</linearGradient>
<linearGradient id="paint14_linear_3093_8352" x1="33.5169" y1="129.453" x2="3.62273" y2="128.323" gradientUnits="userSpaceOnUse">
<stop stop-color="#095916"/>
<stop offset="1" stop-color="#3C804F" stop-opacity="0"/>
</linearGradient>
<linearGradient id="paint15_linear_3093_8352" x1="49.1953" y1="139.598" x2="26.2102" y2="155.098" gradientUnits="userSpaceOnUse">
<stop stop-color="#095916"/>
<stop offset="1" stop-color="#3C804F" stop-opacity="0"/>
</linearGradient>
<linearGradient id="paint16_linear_3093_8352" x1="70.9878" y1="140.678" x2="55.0755" y2="162.652" gradientUnits="userSpaceOnUse">
<stop stop-color="#095916"/>
<stop offset="1" stop-color="#3C804F" stop-opacity="0"/>
</linearGradient>
<linearGradient id="paint17_linear_3093_8352" x1="95.0826" y1="127.834" x2="92.8993" y2="157.67" gradientUnits="userSpaceOnUse">
<stop stop-color="#095916"/>
<stop offset="1" stop-color="#3C804F" stop-opacity="0"/>
</linearGradient>
<linearGradient id="paint18_linear_3093_8352" x1="110.509" y1="110.918" x2="119.137" y2="145.082" gradientUnits="userSpaceOnUse">
<stop stop-color="#095916"/>
<stop offset="1" stop-color="#3C804F" stop-opacity="0"/>
</linearGradient>
<linearGradient id="paint19_linear_3093_8352" x1="131.932" y1="90.3356" x2="141.165" y2="125.737" gradientUnits="userSpaceOnUse">
<stop stop-color="#095916"/>
<stop offset="1" stop-color="#3C804F" stop-opacity="0"/>
</linearGradient>
<linearGradient id="paint20_linear_3093_8352" x1="40.0709" y1="82.1797" x2="20.7906" y2="59.7717" gradientUnits="userSpaceOnUse">
<stop stop-color="#095916"/>
<stop offset="1" stop-color="#3C804F" stop-opacity="0"/>
</linearGradient>
<linearGradient id="paint21_linear_3093_8352" x1="34.3181" y1="106.511" x2="12.5988" y2="84.3441" gradientUnits="userSpaceOnUse">
<stop stop-color="#095916"/>
<stop offset="1" stop-color="#3C804F" stop-opacity="0"/>
</linearGradient>
<linearGradient id="paint22_linear_3093_8352" x1="18.8643" y1="102.875" x2="0.496752" y2="135.309" gradientUnits="userSpaceOnUse">
<stop stop-color="#095916"/>
<stop offset="1" stop-color="#3C804F" stop-opacity="0"/>
</linearGradient>
<linearGradient id="paint23_linear_3093_8352" x1="30.9298" y1="132.98" x2="40.3324" y2="163.448" gradientUnits="userSpaceOnUse">
<stop stop-color="#095916"/>
<stop offset="1" stop-color="#3C804F" stop-opacity="0"/>
</linearGradient>
<linearGradient id="paint24_linear_3093_8352" x1="44.4362" y1="146.257" x2="64.4115" y2="170.008" gradientUnits="userSpaceOnUse">
<stop stop-color="#095916"/>
<stop offset="1" stop-color="#3C804F" stop-opacity="0"/>
</linearGradient>
<linearGradient id="paint25_linear_3093_8352" x1="71.32" y1="145.359" x2="99.1644" y2="159.063" gradientUnits="userSpaceOnUse">
<stop stop-color="#095916"/>
<stop offset="1" stop-color="#3C804F" stop-opacity="0"/>
</linearGradient>
<linearGradient id="paint26_linear_3093_8352" x1="92.0272" y1="138.086" x2="120.894" y2="143.025" gradientUnits="userSpaceOnUse">
<stop stop-color="#095916"/>
<stop offset="1" stop-color="#3C804F" stop-opacity="0"/>
</linearGradient>
<linearGradient id="paint27_linear_3093_8352" x1="110.929" y1="114.312" x2="148.003" y2="127.351" gradientUnits="userSpaceOnUse">
<stop stop-color="#095916"/>
<stop offset="1" stop-color="#3C804F" stop-opacity="0"/>
</linearGradient>
<linearGradient id="paint28_linear_3093_8352" x1="148.267" y1="76.0506" x2="171.587" y2="100.209" gradientUnits="userSpaceOnUse">
<stop stop-color="#095916"/>
<stop offset="1" stop-color="#3C804F" stop-opacity="0"/>
</linearGradient>
<linearGradient id="paint29_linear_3093_8352" x1="172.551" y1="53.7828" x2="189.596" y2="83.524" gradientUnits="userSpaceOnUse">
<stop stop-color="#095916"/>
<stop offset="1" stop-color="#3C804F" stop-opacity="0"/>
</linearGradient>
<linearGradient id="paint30_linear_3093_8352" x1="198.949" y1="30.4493" x2="208.386" y2="71.2867" gradientUnits="userSpaceOnUse">
<stop stop-color="#095916"/>
<stop offset="1" stop-color="#3C804F" stop-opacity="0"/>
</linearGradient>
<linearGradient id="paint31_linear_3093_8352" x1="222.091" y1="19.0661" x2="220.143" y2="57.4081" gradientUnits="userSpaceOnUse">
<stop stop-color="#095916"/>
<stop offset="1" stop-color="#3C804F" stop-opacity="0"/>
</linearGradient>
<linearGradient id="paint32_linear_3093_8352" x1="246.035" y1="8.32759" x2="243.721" y2="47.7386" gradientUnits="userSpaceOnUse">
<stop stop-color="#095916"/>
<stop offset="1" stop-color="#3C804F" stop-opacity="0"/>
</linearGradient>
<linearGradient id="paint33_linear_3093_8352" x1="278.78" y1="8.61713" x2="261.438" y2="46.1752" gradientUnits="userSpaceOnUse">
<stop stop-color="#095916"/>
<stop offset="1" stop-color="#3C804F" stop-opacity="0"/>
</linearGradient>
<linearGradient id="paint34_linear_3093_8352" x1="128.349" y1="95.0258" x2="166.838" y2="111.143" gradientUnits="userSpaceOnUse">
<stop stop-color="#095916"/>
<stop offset="1" stop-color="#3C804F" stop-opacity="0"/>
</linearGradient>
<linearGradient id="paint35_linear_3093_8352" x1="156.251" y1="60.453" x2="175.399" y2="89.4151" gradientUnits="userSpaceOnUse">
<stop stop-color="#095916"/>
<stop offset="1" stop-color="#3C804F" stop-opacity="0"/>
</linearGradient>
<linearGradient id="paint36_linear_3093_8352" x1="170.409" y1="49.6593" x2="205.677" y2="76.2524" gradientUnits="userSpaceOnUse">
<stop stop-color="#095916"/>
<stop offset="1" stop-color="#3C804F" stop-opacity="0"/>
</linearGradient>
<linearGradient id="paint37_linear_3093_8352" x1="195.123" y1="24.0472" x2="218.001" y2="62.2153" gradientUnits="userSpaceOnUse">
<stop stop-color="#095916"/>
<stop offset="1" stop-color="#3C804F" stop-opacity="0"/>
</linearGradient>
<linearGradient id="paint38_linear_3093_8352" x1="215.622" y1="18.3376" x2="241.8" y2="50.5269" gradientUnits="userSpaceOnUse">
<stop stop-color="#095916"/>
<stop offset="1" stop-color="#3C804F" stop-opacity="0"/>
</linearGradient>
<linearGradient id="paint39_linear_3093_8352" x1="248.875" y1="7.59458" x2="273.809" y2="52.6583" gradientUnits="userSpaceOnUse">
<stop stop-color="#095916"/>
<stop offset="1" stop-color="#3C804F" stop-opacity="0"/>
</linearGradient>
<linearGradient id="paint40_linear_3093_8352" x1="314.247" y1="24.4057" x2="282.714" y2="41.2276" gradientUnits="userSpaceOnUse">
<stop stop-color="#095916"/>
<stop offset="1" stop-color="#3C804F" stop-opacity="0"/>
</linearGradient>
<linearGradient id="paint41_linear_3093_8352" x1="301.093" y1="15.0828" x2="296.45" y2="56.6804" gradientUnits="userSpaceOnUse">
<stop stop-color="#095916"/>
<stop offset="1" stop-color="#3C804F" stop-opacity="0"/>
</linearGradient>
<linearGradient id="paint42_linear_3093_8352" x1="343.869" y1="50.6613" x2="308.288" y2="54.011" gradientUnits="userSpaceOnUse">
<stop stop-color="#095916"/>
<stop offset="1" stop-color="#3C804F" stop-opacity="0"/>
</linearGradient>
<linearGradient id="paint43_linear_3093_8352" x1="335.258" y1="38.63" x2="315.161" y2="75.3451" gradientUnits="userSpaceOnUse">
<stop stop-color="#095916"/>
<stop offset="1" stop-color="#3C804F" stop-opacity="0"/>
</linearGradient>
<linearGradient id="paint44_linear_3093_8352" x1="360.906" y1="80.0563" x2="329.685" y2="78.2152" gradientUnits="userSpaceOnUse">
<stop stop-color="#095916"/>
<stop offset="1" stop-color="#3C804F" stop-opacity="0"/>
</linearGradient>
<linearGradient id="paint45_linear_3093_8352" x1="355.393" y1="66.2568" x2="331.1" y2="95.4744" gradientUnits="userSpaceOnUse">
<stop stop-color="#095916"/>
<stop offset="1" stop-color="#3C804F" stop-opacity="0"/>
</linearGradient>
<linearGradient id="paint46_linear_3093_8352" x1="377.043" y1="101.839" x2="343.562" y2="108.357" gradientUnits="userSpaceOnUse">
<stop stop-color="#095916"/>
<stop offset="1" stop-color="#3C804F" stop-opacity="0"/>
</linearGradient>
<linearGradient id="paint47_linear_3093_8352" x1="367.688" y1="89.8328" x2="351.988" y2="123.411" gradientUnits="userSpaceOnUse">
<stop stop-color="#095916"/>
<stop offset="1" stop-color="#3C804F" stop-opacity="0"/>
</linearGradient>
<linearGradient id="paint48_linear_3093_8352" x1="396.523" y1="113.34" x2="361.656" y2="119.32" gradientUnits="userSpaceOnUse">
<stop stop-color="#095916"/>
<stop offset="1" stop-color="#3C804F" stop-opacity="0"/>
</linearGradient>
<linearGradient id="paint49_linear_3093_8352" x1="383.273" y1="107.327" x2="372.691" y2="143.466" gradientUnits="userSpaceOnUse">
<stop stop-color="#095916"/>
<stop offset="1" stop-color="#3C804F" stop-opacity="0"/>
</linearGradient>
<linearGradient id="paint50_linear_3093_8352" x1="446.351" y1="104.773" x2="431.438" y2="127.975" gradientUnits="userSpaceOnUse">
<stop stop-color="#095916"/>
<stop offset="1" stop-color="#3C804F" stop-opacity="0"/>
</linearGradient>
<linearGradient id="paint51_linear_3093_8352" x1="431.781" y1="106.26" x2="440.391" y2="132.402" gradientUnits="userSpaceOnUse">
<stop stop-color="#095916"/>
<stop offset="1" stop-color="#3C804F" stop-opacity="0"/>
</linearGradient>
<linearGradient id="paint52_linear_3093_8352" x1="419.368" y1="111.416" x2="385.826" y2="136.99" gradientUnits="userSpaceOnUse">
<stop stop-color="#095916"/>
<stop offset="1" stop-color="#3C804F" stop-opacity="0"/>
</linearGradient>
<linearGradient id="paint53_linear_3093_8352" x1="408.961" y1="111.557" x2="412.783" y2="150.913" gradientUnits="userSpaceOnUse">
<stop stop-color="#095916"/>
<stop offset="1" stop-color="#3C804F" stop-opacity="0"/>
</linearGradient>
<linearGradient id="paint54_linear_3093_8352" x1="463.82" y1="95.9472" x2="465.41" y2="121.447" gradientUnits="userSpaceOnUse">
<stop stop-color="#095916"/>
<stop offset="1" stop-color="#3C804F" stop-opacity="0"/>
</linearGradient>
<linearGradient id="paint55_linear_3093_8352" x1="460.07" y1="97.9472" x2="471.91" y2="120.947" gradientUnits="userSpaceOnUse">
<stop stop-color="#095916"/>
<stop offset="1" stop-color="#3C804F" stop-opacity="0"/>
</linearGradient>
<linearGradient id="paint56_linear_3093_8352" x1="490.803" y1="94.2389" x2="488.302" y2="119.718" gradientUnits="userSpaceOnUse">
<stop stop-color="#095916"/>
<stop offset="1" stop-color="#3C804F" stop-opacity="0"/>
</linearGradient>
<linearGradient id="paint57_linear_3093_8352" x1="485.977" y1="95.5398" x2="492.479" y2="120.924" gradientUnits="userSpaceOnUse">
<stop stop-color="#095916"/>
<stop offset="1" stop-color="#3C804F" stop-opacity="0"/>
</linearGradient>
<linearGradient id="paint58_linear_3093_8352" x1="521.535" y1="103.674" x2="509.088" y2="124.633" gradientUnits="userSpaceOnUse">
<stop stop-color="#095916"/>
<stop offset="1" stop-color="#3C804F" stop-opacity="0"/>
</linearGradient>
<linearGradient id="paint59_linear_3093_8352" x1="516.681" y1="104.073" x2="513.982" y2="128.795" gradientUnits="userSpaceOnUse">
<stop stop-color="#095916"/>
<stop offset="1" stop-color="#3C804F" stop-opacity="0"/>
</linearGradient>
<linearGradient id="paint60_linear_3093_8352" x1="543.427" y1="122.098" x2="521.938" y2="135.917" gradientUnits="userSpaceOnUse">
<stop stop-color="#095916"/>
<stop offset="1" stop-color="#3C804F" stop-opacity="0"/>
</linearGradient>
<linearGradient id="paint61_linear_3093_8352" x1="539.853" y1="119.799" x2="525.543" y2="141.349" gradientUnits="userSpaceOnUse">
<stop stop-color="#095916"/>
<stop offset="1" stop-color="#3C804F" stop-opacity="0"/>
</linearGradient>
<linearGradient id="paint62_linear_3093_8352" x1="556.024" y1="142.78" x2="534.295" y2="151.461" gradientUnits="userSpaceOnUse">
<stop stop-color="#095916"/>
<stop offset="1" stop-color="#3C804F" stop-opacity="0"/>
</linearGradient>
<linearGradient id="paint63_linear_3093_8352" x1="552.852" y1="140.417" x2="536.083" y2="157.362" gradientUnits="userSpaceOnUse">
<stop stop-color="#095916"/>
<stop offset="1" stop-color="#3C804F" stop-opacity="0"/>
</linearGradient>
<linearGradient id="paint64_linear_3093_8352" x1="579.764" y1="148.334" x2="546.572" y2="169.606" gradientUnits="userSpaceOnUse">
<stop stop-color="#095916"/>
<stop offset="1" stop-color="#3C804F" stop-opacity="0"/>
</linearGradient>
<linearGradient id="paint65_linear_3093_8352" x1="574.04" y1="142.975" x2="548.341" y2="174.921" gradientUnits="userSpaceOnUse">
<stop stop-color="#095916"/>
<stop offset="1" stop-color="#3C804F" stop-opacity="0"/>
</linearGradient>
<linearGradient id="paint66_linear_3093_8352" x1="584.317" y1="163.22" x2="562.362" y2="191.82" gradientUnits="userSpaceOnUse">
<stop stop-color="#095916"/>
<stop offset="1" stop-color="#3C804F" stop-opacity="0"/>
</linearGradient>
<linearGradient id="paint67_linear_3093_8352" x1="578.137" y1="159.494" x2="565.683" y2="193.403" gradientUnits="userSpaceOnUse">
<stop stop-color="#095916"/>
<stop offset="1" stop-color="#3C804F" stop-opacity="0"/>
</linearGradient>
<linearGradient id="paint68_linear_3093_8352" x1="594.896" y1="169.152" x2="577.822" y2="197.343" gradientUnits="userSpaceOnUse">
<stop stop-color="#095916"/>
<stop offset="1" stop-color="#3C804F" stop-opacity="0"/>
</linearGradient>
<linearGradient id="paint69_linear_3093_8352" x1="587.405" y1="168.916" x2="581.387" y2="201.186" gradientUnits="userSpaceOnUse">
<stop stop-color="#095916"/>
<stop offset="1" stop-color="#3C804F" stop-opacity="0"/>
</linearGradient>
<linearGradient id="paint70_linear_3093_8352" x1="603.083" y1="171.78" x2="599.597" y2="202.251" gradientUnits="userSpaceOnUse">
<stop stop-color="#095916"/>
<stop offset="1" stop-color="#3C804F" stop-opacity="0"/>
</linearGradient>
<linearGradient id="paint71_linear_3093_8352" x1="595.069" y1="174.81" x2="598.121" y2="201.047" gradientUnits="userSpaceOnUse">
<stop stop-color="#095916"/>
<stop offset="1" stop-color="#3C804F" stop-opacity="0"/>
</linearGradient>
</defs>
</svg>
