<svg width="535" height="122" viewBox="0 0 535 122" fill="none" xmlns="http://www.w3.org/2000/svg">
<path d="M386.93 52.9703C384.405 48.9249 381.039 46.3965 375.991 46.3965C370.942 46.3965 357.647 52.9703 356.301 57.1845C359.498 56.5102 367.24 53.1391 374.14 59.5443C375.486 60.5557 388.445 56.1729 386.93 52.9703Z" fill="#EAC721"/>
<path d="M386.93 52.9703C384.405 48.9249 381.039 46.3965 375.991 46.3965C370.942 46.3965 357.647 52.9703 356.301 57.1845C359.498 56.5102 367.24 53.1391 374.14 59.5443C375.486 60.5557 388.445 56.1729 386.93 52.9703Z" fill="url(#paint0_radial_3093_7996)"/>
<path d="M367.91 69.9903C355.793 65.2706 345.864 72.6874 344.349 80.4414C349.398 78.5872 358.99 78.4187 367.069 79.9358C369.257 80.61 371.612 71.6759 367.91 69.9903Z" fill="#EAC721"/>
<path d="M367.91 69.9903C355.793 65.2706 345.864 72.6874 344.349 80.4414C349.398 78.5872 358.99 78.4187 367.069 79.9358C369.257 80.61 371.612 71.6759 367.91 69.9903Z" fill="url(#paint1_radial_3093_7996)"/>
<path d="M367.91 69.9903C355.793 65.2706 345.864 72.6874 344.349 80.4414C349.398 78.5872 358.99 78.4187 367.069 79.9358C369.257 80.61 371.612 71.6759 367.91 69.9903Z" fill="url(#paint2_radial_3093_7996)"/>
<path d="M367.91 69.9903C355.793 65.2706 345.864 72.6874 344.349 80.4414C349.398 78.5872 358.99 78.4187 367.069 79.9358C369.257 80.61 371.612 71.6759 367.91 69.9903Z" stroke="#D1670C" stroke-width="0.75" stroke-linecap="round" stroke-linejoin="round"/>
<path d="M410.49 63.4209C411.331 58.3641 413.014 47.0709 392.483 45.0479C402.076 53.1387 397.027 58.8698 400.224 63.5898C401.197 65.0258 409.312 65.6122 410.49 63.4209Z" fill="#EAC721"/>
<path d="M410.49 63.4209C411.331 58.3641 413.014 47.0709 392.483 45.0479C402.076 53.1387 397.027 58.8698 400.224 63.5898C401.197 65.0258 409.312 65.6122 410.49 63.4209Z" fill="url(#paint3_radial_3093_7996)"/>
<path d="M387.77 119.55C376.326 119.045 367.238 117.022 367.07 103.031C374.98 110.616 382.385 109.942 385.582 109.099C387.698 108.542 389.958 117.864 387.77 119.55Z" fill="#EAC721"/>
<path d="M533.93 8.85068C529.407 18.6935 514.49 26.5977 505.899 31.2567C502.014 33.3636 495.388 33.7952 488.743 33.5692C490.671 35.0819 494.314 36.0356 498.618 35.7254C504.24 35.3202 510.616 33.344 515.993 33.1316C525.743 26.6202 530.231 18.1157 533.93 8.85068ZM529.274 27.2257C527.213 29.8176 524.775 31.7914 520.993 33.6319C521.065 33.6538 521.14 33.671 521.211 33.6944C520.108 35.9577 519.413 37.9157 519.055 39.6006C523.125 35.9773 526.44 31.7383 529.274 27.2257ZM521.68 43.9137C520.971 44.259 520.138 44.591 519.274 44.9137C519.382 45.1684 519.477 45.4092 519.617 45.6324C520.358 45.0619 521.069 44.4755 521.68 43.9137Z" fill="#EA3A3A"/>
<path d="M387.77 119.55C376.326 119.045 367.238 117.022 367.07 103.031C374.98 110.616 382.385 109.942 385.582 109.099C387.698 108.542 389.958 117.864 387.77 119.55Z" fill="url(#paint4_radial_3093_7996)"/>
<path d="M386.3 51.1706C386.595 51.7492 386.625 52.2497 386.924 53C388.438 56.2026 375.489 60.5738 374.143 59.5625C373.414 59.356 372.861 59.2393 372.479 59.0013C372.73 59.8688 372.783 60.5652 373.386 61.5781C375.706 66.0113 383.277 66.5101 383.643 77.6251C380.04 75.7147 373.533 69.0746 368.315 67.9999C367.74 67.9116 366.73 68.0958 366.268 68.6961C366.742 68.9705 366.944 69.3039 367.892 70.0001C371.595 71.6857 369.237 80.6121 367.049 79.9376C366.321 80.0634 365.204 80.2454 364.834 80.2572C364.902 81.3932 367.096 82.204 368.495 82.3107C372.842 82.671 376.111 83.1848 377.642 84.7189C379.546 86.6259 379.969 90.0363 381.674 92.3439C384.825 96.6108 389.96 98.2369 390.674 101.813C391.28 104.849 389.169 106.316 385.895 107.566C385.35 107.847 384.78 108.066 383.711 108.78C384.522 108.913 385.021 109.104 385.549 109.063C387.664 108.505 389.955 117.815 387.767 119.501C387.328 119.809 386.876 119.938 385.815 120.171C386.786 120.738 387.534 120.817 388.687 120.795C392.544 120.76 395.539 118.424 398.142 111.751C399.539 108.17 408.06 109.245 411.392 112.344C414.724 115.443 422.083 119.551 426.08 118.594C433.997 116.699 433.527 106.279 438.049 103.656C442.491 101.081 449.614 99.2278 462.268 100.969C461.861 100.216 461.61 99.3273 461.487 98.3438C460.518 98.2186 459.631 97.8999 458.893 97.3126C457.582 96.268 456.94 94.5547 456.862 92.5938C456.944 92.5888 457.029 92.5696 457.112 92.5626C455.128 92.743 453.363 92.2945 452.112 91.1251C450.738 89.84 450.27 87.897 450.456 85.6563C448.872 85.6337 447.474 85.1684 446.425 84.1875C444.939 82.7987 444.5 80.6255 444.831 78.1563C442.597 78.3091 440.658 77.7377 439.393 76.3438C437.947 74.7497 437.661 72.3835 438.331 69.7813C438.622 69.7903 438.935 69.7655 439.237 69.7501C436.681 69.8737 434.493 69.1399 433.175 67.5001C432.291 66.4005 431.986 64.98 432.018 63.4376C432.079 63.4436 432.144 63.4326 432.206 63.4376C430.118 63.2521 428.375 62.4479 427.3 61.0001C426.298 59.6515 426.046 57.9202 426.362 56.0313C423.818 58.6285 421.553 61.4088 420.3 64.8125C417.316 72.9174 416.889 86.0765 416.175 90.8435C415.461 95.6111 408.952 97.2397 405.144 93.1873C401.336 89.1349 401.17 84.1067 403.55 80.5313C405.93 76.9556 413.594 69.7123 412.192 63.5243C411.989 62.9204 411.929 62.3339 411.393 61.6449C411.221 62.2395 410.966 62.6322 410.456 63.4371C409.278 65.6285 401.148 65.0294 400.175 63.5934C399.372 62.8102 399.45 62.8246 398.963 62.1708C398.769 63.1392 398.178 64.7263 398.38 65.6229C398.819 66.9367 398.096 68.956 397.144 70.6246C396.192 72.2932 392.194 73.2278 391.956 68.9371C391.718 64.6463 393.054 54.7281 388.563 51.8231C387.894 51.4875 387.051 51.1934 386.302 51.1699L386.3 51.1706ZM432.206 63.4376C432.897 63.4961 433.635 63.482 434.393 63.4064C433.63 63.4808 432.902 63.4995 432.206 63.4376ZM434.393 63.4064C434.708 63.3749 435.037 63.3359 435.361 63.2814C435.033 63.3362 434.712 63.3753 434.393 63.4064ZM439.237 69.7501C439.832 69.7197 440.419 69.654 441.049 69.5314C440.424 69.6501 439.828 69.7216 439.237 69.7501ZM446.893 56.9382C446.069 57.7854 445.154 58.5886 444.143 59.3444C445.152 58.5901 446.068 57.7832 446.893 56.9382ZM442.924 60.1882C442.632 60.3796 442.343 60.5444 442.049 60.7194C442.34 60.5467 442.635 60.3768 442.924 60.1882ZM462.362 90.8447C462.002 91.0427 461.659 91.2101 461.299 91.3759C461.655 91.2113 462.005 91.0415 462.362 90.8447Z" fill="#3D9945"/>
<path d="M204.61 20.9702C200.859 31.1332 186.597 40.1292 178.391 45.4392C171.287 50.0357 154.289 49.2772 145.797 48.8767C149.345 51.8937 157.905 56.0762 160.703 64.0017C148.231 85.3347 174.292 62.5085 181.141 66.5955C181.177 66.6955 181.199 66.7788 181.235 66.8767C187.033 63.7505 192.043 60.1367 195.079 56.8767C188.367 60.4722 177.461 64.6455 165.079 66.1267C184.513 63.3257 194.766 52.2807 201.391 39.6577C197.227 45.8145 190.995 49.0303 172.016 55.4388C194.111 47.2508 200.267 34.8782 204.61 20.9702ZM188.548 68.2512C187.023 69.4198 185.143 70.3923 183.079 71.1887C183.248 71.5238 183.415 71.8413 183.579 72.1262C185.297 70.9103 186.971 69.6217 188.548 68.2512Z" fill="#EA3A3A"/>
<path d="M410.49 63.4209C411.331 58.3641 413.014 47.0709 392.483 45.0479C402.076 53.1387 397.027 58.8698 400.224 63.5898C401.197 65.0258 409.312 65.6122 410.49 63.4209Z" fill="url(#paint5_radial_3093_7996)"/>
<path d="M410.49 63.4209C411.331 58.3641 413.014 47.0709 392.483 45.0479C402.076 53.1387 397.027 58.8698 400.224 63.5898C401.197 65.0258 409.312 65.6122 410.49 63.4209Z" stroke="#D1670C" stroke-width="0.75" stroke-linecap="round" stroke-linejoin="round"/>
<path d="M386.93 52.9703C384.405 48.9249 381.039 46.3965 375.991 46.3965C370.942 46.3965 357.647 52.9703 356.301 57.1845C359.498 56.5102 367.24 53.1391 374.14 59.5443C375.486 60.5557 388.445 56.1729 386.93 52.9703Z" fill="url(#paint6_radial_3093_7996)"/>
<path d="M386.93 52.9703C384.405 48.9249 381.039 46.3965 375.991 46.3965C370.942 46.3965 357.647 52.9703 356.301 57.1845C359.498 56.5102 367.24 53.1391 374.14 59.5443C375.486 60.5557 388.445 56.1729 386.93 52.9703Z" stroke="#D1670C" stroke-width="0.75" stroke-linecap="round" stroke-linejoin="round"/>
<path d="M387.77 119.55C376.326 119.045 367.238 117.022 367.07 103.031C374.98 110.616 382.385 109.942 385.582 109.099C387.698 108.542 389.958 117.864 387.77 119.55Z" fill="url(#paint7_radial_3093_7996)"/>
<path d="M387.77 119.55C376.326 119.045 367.238 117.022 367.07 103.031C374.98 110.616 382.385 109.942 385.582 109.099C387.698 108.542 389.958 117.864 387.77 119.55Z" stroke="#D1670C" stroke-width="0.75" stroke-linecap="round" stroke-linejoin="round"/>
<path d="M42.9598 9.03082C40.4354 4.98542 37.0695 2.45703 32.0208 2.45703C26.972 2.45703 13.6768 9.03083 12.3308 13.245C15.5284 12.5708 23.2698 9.19963 30.1698 15.6048C31.5162 16.6162 44.4748 12.2334 42.9598 9.03082Z" fill="#EAC721"/>
<path d="M42.9598 9.03082C40.4354 4.98542 37.0695 2.45703 32.0208 2.45703C26.972 2.45703 13.6768 9.03083 12.3308 13.245C15.5284 12.5708 23.2698 9.19963 30.1698 15.6048C31.5162 16.6162 44.4748 12.2334 42.9598 9.03082Z" fill="url(#paint8_radial_3093_7996)"/>
<path d="M23.9399 26.0509C11.8229 21.3312 1.89391 28.7479 0.378906 36.5019C5.42771 34.6477 15.0199 34.4792 23.0989 35.9963C25.2867 36.6706 27.6423 27.7365 23.9399 26.0509Z" fill="#EAC721"/>
<path d="M23.9399 26.0509C11.8229 21.3312 1.89391 28.7479 0.378906 36.5019C5.42771 34.6477 15.0199 34.4792 23.0989 35.9963C25.2867 36.6706 27.6423 27.7365 23.9399 26.0509Z" fill="url(#paint9_radial_3093_7996)"/>
<path d="M23.9399 26.0509C11.8229 21.3312 1.89391 28.7479 0.378906 36.5019C5.42771 34.6477 15.0199 34.4792 23.0989 35.9963C25.2867 36.6706 27.6423 27.7365 23.9399 26.0509Z" fill="url(#paint10_radial_3093_7996)"/>
<path d="M23.9399 26.0509C11.8229 21.3312 1.89391 28.7479 0.378906 36.5019C5.42771 34.6477 15.0199 34.4792 23.0989 35.9963C25.2867 36.6706 27.6423 27.7365 23.9399 26.0509Z" stroke="#D1670C" stroke-width="0.75" stroke-linecap="round" stroke-linejoin="round"/>
<path d="M66.5199 19.4804C67.3613 14.4236 69.0443 3.13042 48.5129 1.10742C58.1056 9.19822 53.0568 14.9294 56.2544 19.6494C57.2274 21.0854 65.3417 21.6718 66.5199 19.4804Z" fill="#EAC721"/>
<path d="M66.5199 19.4804C67.3613 14.4236 69.0443 3.13042 48.5129 1.10742C58.1056 9.19822 53.0568 14.9294 56.2544 19.6494C57.2274 21.0854 65.3417 21.6718 66.5199 19.4804Z" fill="url(#paint11_radial_3093_7996)"/>
<path d="M43.7999 75.6108C32.3559 75.1051 23.2679 73.0824 23.0999 59.0918C31.0097 66.677 38.4148 66.0027 41.6118 65.1599C43.7276 64.6022 45.9877 73.9249 43.7999 75.6108Z" fill="#EAC721"/>
<path d="M43.7999 75.6108C32.3559 75.1051 23.2679 73.0824 23.0999 59.0918C31.0097 66.677 38.4148 66.0027 41.6118 65.1599C43.7276 64.6022 45.9877 73.9249 43.7999 75.6108Z" fill="url(#paint12_radial_3093_7996)"/>
<path d="M66.5199 19.4804C67.3613 14.4236 69.0443 3.13042 48.5129 1.10742C58.1056 9.19822 53.0568 14.9294 56.2544 19.6494C57.2274 21.0854 65.3417 21.6718 66.5199 19.4804Z" fill="url(#paint13_radial_3093_7996)"/>
<path d="M66.5199 19.4804C67.3613 14.4236 69.0443 3.13042 48.5129 1.10742C58.1056 9.19822 53.0568 14.9294 56.2544 19.6494C57.2274 21.0854 65.3417 21.6718 66.5199 19.4804Z" stroke="#D1670C" stroke-width="0.75" stroke-linecap="round" stroke-linejoin="round"/>
<path d="M42.9598 9.03082C40.4354 4.98542 37.0695 2.45703 32.0208 2.45703C26.972 2.45703 13.6768 9.03083 12.3308 13.245C15.5284 12.5708 23.2698 9.19963 30.1698 15.6048C31.5162 16.6162 44.4748 12.2334 42.9598 9.03082Z" fill="url(#paint14_radial_3093_7996)"/>
<path d="M42.9598 9.03082C40.4354 4.98542 37.0695 2.45703 32.0208 2.45703C26.972 2.45703 13.6768 9.03083 12.3308 13.245C15.5284 12.5708 23.2698 9.19963 30.1698 15.6048C31.5162 16.6162 44.4748 12.2334 42.9598 9.03082Z" stroke="#D1670C" stroke-width="0.75" stroke-linecap="round" stroke-linejoin="round"/>
<path d="M43.7999 75.6108C32.3559 75.1051 23.2679 73.0824 23.0999 59.0918C31.0097 66.677 38.4148 66.0027 41.6118 65.1599C43.7276 64.6022 45.9877 73.9249 43.7999 75.6108Z" fill="url(#paint15_radial_3093_7996)"/>
<path d="M43.7999 75.6108C32.3559 75.1051 23.2679 73.0824 23.0999 59.0918C31.0097 66.677 38.4148 66.0027 41.6118 65.1599C43.7276 64.6022 45.9877 73.9249 43.7999 75.6108Z" stroke="#D1670C" stroke-width="0.75" stroke-linecap="round" stroke-linejoin="round"/>
<path d="M42.2998 7.16016C42.5946 7.73881 42.6258 8.25357 42.9248 9.00397C44.4394 12.2066 31.4898 16.5778 30.1438 15.5665C29.4148 15.36 28.87 15.242 28.4876 15.004C28.7383 15.8714 28.7915 16.5537 29.3938 17.5665C31.7144 21.9997 39.2784 22.5139 39.6438 33.6284C36.041 31.718 29.5498 25.0781 24.3318 24.0034C23.7569 23.9151 22.731 24.0906 22.2693 24.6909C22.7434 24.9653 22.9455 25.3073 23.8943 26.0034C27.5967 27.689 25.2384 36.6154 23.0506 35.9409C22.323 36.0667 21.202 36.2416 20.8318 36.2534C20.8997 37.3894 23.0894 38.2093 24.488 38.3159C28.8352 38.6763 32.1126 39.1882 33.6442 40.7222C35.5482 42.6292 35.9709 46.0396 37.6754 48.3472C40.8272 52.6141 45.9614 54.2401 46.6754 57.8159C47.2816 60.852 45.1676 62.3165 41.8942 63.5659C41.3486 63.8475 40.7748 64.0707 39.7067 64.7848C40.5168 64.9173 41.0226 65.1075 41.5505 65.066C43.6663 64.5083 45.9571 73.8179 43.7693 75.504C43.3296 75.8126 42.8928 75.9269 41.8318 76.1602C42.8029 76.7268 43.5231 76.8079 44.6756 76.7852C48.5324 76.7511 51.5409 74.4275 54.1444 67.7541C55.5411 64.1739 65.0624 68.2489 68.3944 71.3479C71.7264 74.4469 77.8358 78.0544 81.8324 83.0979C85.7083 87.9897 96.5134 96.3569 103.394 98.8169C103.467 98.4349 103.56 98.0534 103.676 97.6606C102.185 97.4296 100.939 96.7883 100.113 95.7231C98.9839 94.2667 98.8271 92.2213 99.4881 90.067C100.569 90.2557 101.795 90.2308 103.082 90.0358C99.7371 90.5137 96.8699 89.7149 95.5507 87.6295C94.5864 86.1052 94.7072 84.1629 95.5195 82.1295C94.2008 81.5783 93.1979 80.7038 92.6445 79.5358C91.7986 77.7504 92.2365 75.6301 93.5508 73.5358C92.0117 72.8684 90.8708 71.8492 90.3633 70.4733C89.5574 68.2884 90.5701 65.713 92.7071 63.4733C91.3081 62.7002 90.3297 61.5928 89.9883 60.2545C89.8562 59.7366 89.8355 59.2201 89.8946 58.692C87.6567 58.5191 85.3566 58.0839 83.1758 57.8482C78.383 57.3302 65.9528 55.9944 62.1448 51.942C58.3368 47.8896 57.171 40.111 59.551 36.536C61.931 32.9603 69.61 25.723 68.2072 19.536C68.0049 18.9321 67.9314 18.35 67.3947 17.661C67.2227 18.2555 66.9668 18.6372 66.4572 19.4422C65.2791 21.6336 57.1489 21.0345 56.1762 19.5984C55.3726 18.8152 55.4438 18.8147 54.9574 18.1609C54.7635 19.1294 54.1926 20.7332 54.3949 21.6298C54.8336 22.9436 54.0968 24.9611 53.1449 26.6298C52.1929 28.2984 48.1954 29.233 47.9574 24.9423C47.7193 20.6515 49.0428 10.7223 44.5512 7.81726C43.8827 7.48175 43.0505 7.18452 42.3012 7.16101L42.2998 7.16016ZM103.081 90.0352C103.565 89.9618 104.046 89.8807 104.55 89.7539C104.056 89.8744 103.559 89.9669 103.081 90.0352ZM105.925 81.504C105.662 81.6081 105.405 81.6935 105.143 81.7852C105.402 81.6948 105.665 81.6069 105.925 81.504Z" fill="#65B873"/>
<path d="M42.2998 7.16016C42.5946 7.73881 42.6258 8.25357 42.9248 9.00397C44.4394 12.2066 31.4898 16.5778 30.1438 15.5665C29.4148 15.36 28.87 15.242 28.4876 15.004C28.7383 15.8714 28.7915 16.5537 29.3938 17.5665C31.7144 21.9997 39.2784 22.5139 39.6438 33.6284C36.041 31.718 29.5498 25.0781 24.3318 24.0034C23.7569 23.9151 22.731 24.0906 22.2693 24.6909C22.7434 24.9653 22.9455 25.3073 23.8943 26.0034C27.5967 27.689 25.2384 36.6154 23.0506 35.9409C22.323 36.0667 21.202 36.2416 20.8318 36.2534C20.8997 37.3894 23.0894 38.2093 24.488 38.3159C28.8352 38.6763 32.1126 39.1882 33.6442 40.7222C35.5482 42.6292 35.9709 46.0396 37.6754 48.3472C40.8272 52.6141 45.9614 54.2401 46.6754 57.8159C47.2816 60.852 45.1676 62.3165 41.8942 63.5659C41.3486 63.8475 40.7748 64.0707 39.7067 64.7848C40.5168 64.9173 41.0226 65.1075 41.5505 65.066C43.6663 64.5083 45.9571 73.8179 43.7693 75.504C43.3296 75.8126 42.8928 75.9269 41.8318 76.1602C42.8029 76.7268 43.5231 76.8079 44.6756 76.7852C48.5324 76.7511 51.5409 74.4275 54.1444 67.7541C55.5411 64.1739 65.0624 68.2489 68.3944 71.3479C71.7264 74.4469 77.8358 78.0544 81.8324 83.0979C85.7083 87.9897 96.5134 96.3569 103.394 98.8169C103.467 98.4349 103.56 98.0534 103.676 97.6606C102.185 97.4296 100.939 96.7883 100.113 95.7231C98.9839 94.2667 98.8271 92.2213 99.4881 90.067C100.569 90.2557 101.795 90.2308 103.082 90.0358C99.7371 90.5137 96.8699 89.7149 95.5507 87.6295C94.5864 86.1052 94.7072 84.1629 95.5195 82.1295C94.2008 81.5783 93.1979 80.7038 92.6445 79.5358C91.7986 77.7504 92.2365 75.6301 93.5508 73.5358C92.0117 72.8684 90.8708 71.8492 90.3633 70.4733C89.5574 68.2884 90.5701 65.713 92.7071 63.4733C91.3081 62.7002 90.3297 61.5928 89.9883 60.2545C89.8562 59.7366 89.8355 59.2201 89.8946 58.692C87.6567 58.5191 85.3566 58.0839 83.1758 57.8482C78.383 57.3302 65.9528 55.9944 62.1448 51.942C58.3368 47.8896 57.171 40.111 59.551 36.536C61.931 32.9603 69.61 25.723 68.2072 19.536C68.0049 18.9321 67.9314 18.35 67.3947 17.661C67.2227 18.2555 66.9668 18.6372 66.4572 19.4422C65.2791 21.6336 57.1489 21.0345 56.1762 19.5984C55.3726 18.8152 55.4438 18.8147 54.9574 18.1609C54.7635 19.1294 54.1926 20.7332 54.3949 21.6298C54.8336 22.9436 54.0968 24.9611 53.1449 26.6298C52.1929 28.2984 48.1954 29.233 47.9574 24.9423C47.7193 20.6515 49.0428 10.7223 44.5512 7.81726C43.8827 7.48175 43.0505 7.18452 42.3012 7.16101L42.2998 7.16016ZM103.081 90.0352C103.565 89.9618 104.046 89.8807 104.55 89.7539C104.056 89.8744 103.559 89.9669 103.081 90.0352ZM105.925 81.504C105.662 81.6081 105.405 81.6935 105.143 81.7852C105.402 81.6948 105.665 81.6069 105.925 81.504Z" fill="#3D9945"/>
<path d="M386.3 51.1706C386.595 51.7492 386.625 52.2497 386.924 53C388.438 56.2026 375.489 60.5738 374.143 59.5625C373.414 59.356 372.861 59.2393 372.479 59.0013C372.73 59.8688 372.783 60.5652 373.386 61.5781C375.706 66.0113 383.277 66.5101 383.643 77.6251C380.04 75.7147 373.533 69.0746 368.315 67.9999C367.74 67.9116 366.73 68.0958 366.268 68.6961C366.742 68.9705 366.944 69.3039 367.892 70.0001C371.595 71.6857 369.237 80.6121 367.049 79.9376C366.321 80.0634 365.204 80.2454 364.834 80.2572C364.902 81.3932 367.096 82.204 368.495 82.3107C372.842 82.671 376.111 83.1848 377.642 84.7189C379.546 86.6259 379.969 90.0363 381.674 92.3439C384.825 96.6108 389.96 98.2369 390.674 101.813C391.28 104.849 389.169 106.316 385.895 107.566C385.35 107.847 384.78 108.066 383.711 108.78C384.522 108.913 385.021 109.104 385.549 109.063C387.664 108.505 389.955 117.815 387.767 119.501C387.328 119.809 386.876 119.938 385.815 120.171C386.786 120.738 387.534 120.817 388.687 120.795C392.544 120.76 395.539 118.424 398.142 111.751C399.539 108.17 408.06 109.245 411.392 112.344C414.724 115.443 422.083 119.551 426.08 118.594C433.997 116.699 433.527 106.279 438.049 103.656C442.491 101.081 449.614 99.2278 462.268 100.969C461.861 100.216 461.61 99.3273 461.487 98.3438C460.518 98.2186 459.631 97.8999 458.893 97.3126C457.582 96.268 456.94 94.5547 456.862 92.5938C456.944 92.5888 457.029 92.5696 457.112 92.5626C455.128 92.743 453.363 92.2945 452.112 91.1251C450.738 89.84 450.27 87.897 450.456 85.6563C448.872 85.6337 447.474 85.1684 446.425 84.1875C444.939 82.7987 444.5 80.6255 444.831 78.1563C442.597 78.3091 440.658 77.7377 439.393 76.3438C437.947 74.7497 437.661 72.3835 438.331 69.7813C438.622 69.7903 438.935 69.7655 439.237 69.7501C436.681 69.8737 434.493 69.1399 433.175 67.5001C432.291 66.4005 431.986 64.98 432.018 63.4376C432.079 63.4436 432.144 63.4326 432.206 63.4376C430.118 63.2521 428.375 62.4479 427.3 61.0001C426.298 59.6515 426.046 57.9202 426.362 56.0313C423.818 58.6285 421.553 61.4088 420.3 64.8125C417.316 72.9174 416.889 86.0765 416.175 90.8435C415.461 95.6111 408.952 97.2397 405.144 93.1873C401.336 89.1349 401.17 84.1067 403.55 80.5313C405.93 76.9556 413.594 69.7123 412.192 63.5243C411.989 62.9204 411.929 62.3339 411.393 61.6449C411.221 62.2395 410.966 62.6322 410.456 63.4371C409.278 65.6285 401.148 65.0294 400.175 63.5934C399.372 62.8102 399.45 62.8246 398.963 62.1708C398.769 63.1392 398.178 64.7263 398.38 65.6229C398.819 66.9367 398.096 68.956 397.144 70.6246C396.192 72.2932 392.194 73.2278 391.956 68.9371C391.718 64.6463 393.054 54.7281 388.563 51.8231C387.894 51.4875 387.051 51.1934 386.302 51.1699L386.3 51.1706ZM432.206 63.4376C432.897 63.4961 433.635 63.482 434.393 63.4064C433.63 63.4808 432.902 63.4995 432.206 63.4376ZM434.393 63.4064C434.708 63.3749 435.037 63.3359 435.361 63.2814C435.033 63.3362 434.712 63.3753 434.393 63.4064ZM439.237 69.7501C439.832 69.7197 440.419 69.654 441.049 69.5314C440.424 69.6501 439.828 69.7216 439.237 69.7501ZM446.893 56.9382C446.069 57.7854 445.154 58.5886 444.143 59.3444C445.152 58.5901 446.068 57.7832 446.893 56.9382ZM442.924 60.1882C442.632 60.3796 442.343 60.5444 442.049 60.7194C442.34 60.5467 442.635 60.3768 442.924 60.1882ZM462.362 90.8447C462.002 91.0427 461.659 91.2101 461.299 91.3759C461.655 91.2113 462.005 91.0415 462.362 90.8447Z" fill="url(#paint16_radial_3093_7996)"/>
<path d="M439.237 69.7501C438.935 69.7655 438.622 69.7903 438.331 69.7813C437.661 72.3835 437.947 74.7497 439.393 76.3438C440.658 77.7377 442.597 78.3091 444.831 78.1563C444.5 80.6255 444.939 82.7987 446.425 84.1875C447.474 85.1684 448.872 85.6337 450.456 85.6563C450.27 87.897 450.738 89.84 452.112 91.1251C453.363 92.2945 455.128 92.743 457.112 92.5626C457.029 92.5696 456.944 92.5888 456.862 92.5938C456.94 94.5547 457.582 96.268 458.893 97.3126C459.631 97.8999 460.518 98.2186 461.487 98.3438C461.61 99.3273 461.861 100.216 462.268 100.969C449.614 99.2278 442.491 101.081 438.049 103.656C433.527 106.279 433.997 116.699 426.08 118.594C422.083 119.551 414.724 115.443 411.392 112.344C408.06 109.245 399.539 108.17 398.142 111.751C395.539 118.424 392.544 120.76 388.687 120.795C387.534 120.817 386.786 120.738 385.815 120.171C386.876 119.938 387.328 119.809 387.767 119.501C389.955 117.815 387.664 108.505 385.549 109.063C385.021 109.104 384.522 108.913 383.711 108.78C384.78 108.066 385.35 107.847 385.895 107.566C389.169 106.316 391.28 104.849 390.674 101.813C389.96 98.2369 384.825 96.6108 381.674 92.3439C379.969 90.0363 379.546 86.6259 377.642 84.7189C376.111 83.1848 372.842 82.671 368.495 82.3107C367.096 82.204 364.902 81.3932 364.834 80.2572C365.204 80.2454 366.321 80.0634 367.049 79.9376C369.237 80.6121 371.595 71.6857 367.892 70.0001C366.944 69.3039 366.742 68.9705 366.268 68.6961C366.73 68.0958 367.74 67.9116 368.315 67.9999C373.533 69.0746 380.04 75.7147 383.643 77.6251C383.277 66.5101 375.706 66.0113 373.386 61.5781C372.783 60.5652 372.73 59.8688 372.479 59.0013C372.861 59.2393 373.414 59.356 374.143 59.5625C375.489 60.5738 388.438 56.2026 386.924 53C386.625 52.2497 386.595 51.7492 386.3 51.1706L386.302 51.1699C387.051 51.1934 387.894 51.4875 388.563 51.8231C393.054 54.7281 391.718 64.6463 391.956 68.9371C392.194 73.2278 396.192 72.2932 397.144 70.6246C398.096 68.956 398.819 66.9367 398.38 65.6229C398.178 64.7263 398.769 63.1392 398.963 62.1708C399.45 62.8246 399.372 62.8102 400.175 63.5934C401.148 65.0294 409.278 65.6285 410.456 63.4371C410.966 62.6322 411.221 62.2395 411.393 61.6449C411.929 62.3339 411.989 62.9204 412.192 63.5243C413.594 69.7123 405.93 76.9556 403.55 80.5313C401.17 84.1067 401.336 89.1349 405.144 93.1873C408.952 97.2397 415.461 95.6111 416.175 90.8435C416.889 86.0765 417.316 72.9174 420.3 64.8125C421.553 61.4088 423.818 58.6285 426.362 56.0313C426.046 57.9202 426.298 59.6515 427.3 61.0001C428.375 62.4479 430.118 63.2521 432.206 63.4376M439.237 69.7501C436.681 69.8737 434.493 69.1399 433.175 67.5001C432.291 66.4005 431.986 64.98 432.018 63.4376C432.079 63.4436 432.144 63.4326 432.206 63.4376M439.237 69.7501C439.832 69.7197 440.419 69.654 441.049 69.5314C440.424 69.6501 439.828 69.7216 439.237 69.7501ZM432.206 63.4376C432.897 63.4961 433.635 63.482 434.393 63.4064M432.206 63.4376C432.902 63.4995 433.63 63.4808 434.393 63.4064M434.393 63.4064C434.708 63.3749 435.037 63.3359 435.361 63.2814C435.033 63.3362 434.712 63.3753 434.393 63.4064Z" stroke="#095916" stroke-width="0.75" stroke-linecap="round" stroke-linejoin="round"/>
<path d="M402.58 65.1104C402.243 71.01 398.204 77.2463 397.026 79.7753C395.848 82.3037 392.651 84.495 394.839 89.8893C397.026 95.2832 400.056 100.845 399.551 103.542C399.046 106.239 398.036 110.285 389.117 114.498" stroke="#095916" stroke-width="0.75" stroke-linecap="round" stroke-linejoin="round"/>
<path d="M42.2998 7.16016C42.5946 7.73881 42.6258 8.25357 42.9248 9.00397C44.4394 12.2066 31.4898 16.5778 30.1438 15.5665C29.4148 15.36 28.87 15.242 28.4876 15.004C28.7383 15.8714 28.7915 16.5537 29.3938 17.5665C31.7144 21.9997 39.2784 22.5139 39.6438 33.6284C36.041 31.718 29.5498 25.0781 24.3318 24.0034C23.7569 23.9151 22.731 24.0906 22.2693 24.6909C22.7434 24.9653 22.9455 25.3073 23.8943 26.0034C27.5967 27.689 25.2384 36.6154 23.0506 35.9409C22.323 36.0667 21.202 36.2416 20.8318 36.2534C20.8997 37.3894 23.0894 38.2093 24.488 38.3159C28.8352 38.6763 32.1126 39.1882 33.6442 40.7222C35.5482 42.6292 35.9709 46.0396 37.6754 48.3472C40.8272 52.6141 45.9614 54.2401 46.6754 57.8159C47.2816 60.852 45.1676 62.3165 41.8942 63.5659C41.3486 63.8475 40.7748 64.0707 39.7067 64.7848C40.5168 64.9173 41.0226 65.1075 41.5505 65.066C43.6663 64.5083 45.9571 73.8179 43.7693 75.504C43.3296 75.8126 42.8928 75.9269 41.8318 76.1602C42.8029 76.7268 43.5231 76.8079 44.6756 76.7852C48.5324 76.7511 51.5409 74.4275 54.1444 67.7541C55.5411 64.1739 65.0624 68.2489 68.3944 71.3479C71.7264 74.4469 77.8358 78.0544 81.8324 83.0979C85.7083 87.9897 96.5134 96.3569 103.394 98.8169C103.467 98.4349 103.56 98.0534 103.676 97.6606C102.185 97.4296 100.939 96.7883 100.113 95.7231C98.9839 94.2667 98.8271 92.2213 99.4881 90.067C100.569 90.2557 101.795 90.2308 103.082 90.0358C99.7371 90.5137 96.8699 89.7149 95.5507 87.6295C94.5864 86.1052 94.7072 84.1629 95.5195 82.1295C94.2008 81.5783 93.1979 80.7038 92.6445 79.5358C91.7986 77.7504 92.2365 75.6301 93.5508 73.5358C92.0117 72.8684 90.8708 71.8492 90.3633 70.4733C89.5574 68.2884 90.5701 65.713 92.7071 63.4733C91.3081 62.7002 90.3297 61.5928 89.9883 60.2545C89.8562 59.7366 89.8355 59.2201 89.8946 58.692C87.6567 58.5191 85.3566 58.0839 83.1758 57.8482C78.383 57.3302 65.9528 55.9944 62.1448 51.942C58.3368 47.8896 57.171 40.111 59.551 36.536C61.931 32.9603 69.61 25.723 68.2072 19.536C68.0049 18.9321 67.9314 18.35 67.3947 17.661C67.2227 18.2555 66.9668 18.6372 66.4572 19.4422C65.2791 21.6336 57.1489 21.0345 56.1762 19.5984C55.3726 18.8152 55.4438 18.8147 54.9574 18.1609C54.7635 19.1294 54.1926 20.7332 54.3949 21.6298C54.8336 22.9436 54.0968 24.9611 53.1449 26.6298C52.1929 28.2984 48.1954 29.233 47.9574 24.9423C47.7193 20.6515 49.0428 10.7223 44.5512 7.81726C43.8827 7.48175 43.0505 7.18452 42.3012 7.16101L42.2998 7.16016ZM103.081 90.0352C103.565 89.9618 104.046 89.8807 104.55 89.7539C104.056 89.8744 103.559 89.9669 103.081 90.0352ZM105.925 81.504C105.662 81.6081 105.405 81.6935 105.143 81.7852C105.402 81.6948 105.665 81.6069 105.925 81.504Z" fill="url(#paint17_radial_3093_7996)"/>
<path d="M42.2998 7.16016C42.5946 7.73881 42.6258 8.25357 42.9248 9.00397C44.4394 12.2066 31.4898 16.5778 30.1438 15.5665C29.4148 15.36 28.87 15.242 28.4876 15.004C28.7383 15.8714 28.7915 16.5537 29.3938 17.5665C31.7144 21.9997 39.2784 22.5139 39.6438 33.6284C36.041 31.718 29.5498 25.0781 24.3318 24.0034C23.7569 23.9151 22.731 24.0906 22.2693 24.6909C22.7434 24.9653 22.9455 25.3073 23.8943 26.0034C27.5967 27.689 25.2384 36.6154 23.0506 35.9409C22.323 36.0667 21.202 36.2416 20.8318 36.2534C20.8997 37.3894 23.0894 38.2093 24.488 38.3159C28.8352 38.6763 32.1126 39.1882 33.6442 40.7222C35.5482 42.6292 35.9709 46.0396 37.6754 48.3472C40.8272 52.6141 45.9614 54.2401 46.6754 57.8159C47.2816 60.852 45.1676 62.3165 41.8942 63.5659C41.3486 63.8475 40.7748 64.0707 39.7067 64.7848C40.5168 64.9173 41.0226 65.1075 41.5505 65.066C43.6663 64.5083 45.9571 73.8179 43.7693 75.504C43.3296 75.8126 42.8928 75.9269 41.8318 76.1602C42.8029 76.7268 43.5231 76.8079 44.6756 76.7852C48.5324 76.7511 51.5409 74.4275 54.1444 67.7541C55.5411 64.1739 65.0624 68.2489 68.3944 71.3479C71.7264 74.4469 77.8358 78.0544 81.8324 83.0979C85.7083 87.9897 96.5134 96.3569 103.394 98.8169C103.467 98.4349 103.56 98.0534 103.676 97.6606C102.185 97.4296 100.939 96.7883 100.113 95.7231C98.9839 94.2667 98.8271 92.2213 99.4881 90.067C107.294 90.4213 97.4031 90.369 95.5506 87.6295C94.5864 86.1052 94.7071 84.1629 95.5194 82.1295C94.2007 81.5783 93.1978 80.7038 92.6444 79.5358C91.7985 77.7504 92.2364 75.6301 93.5507 73.5358C92.0116 72.8684 90.8707 71.8492 90.3632 70.4733C89.5573 68.2884 90.57 65.713 92.707 63.4733C91.308 62.7002 90.3296 61.5928 89.9882 60.2545C89.8561 59.7366 89.8354 59.2201 89.8945 58.692C87.6566 58.5191 85.3565 58.0839 83.1757 57.8482C78.3829 57.3302 65.9527 55.9944 62.1447 51.942C58.3367 47.8896 57.1709 40.111 59.5509 36.536C61.9309 32.9603 69.6099 25.723 68.2071 19.536C68.0048 18.9321 67.9313 18.35 67.3946 17.661C67.2226 18.2555 66.9667 18.6372 66.4571 19.4422C65.279 21.6336 57.1488 21.0345 56.1761 19.5984C55.3725 18.8152 55.4437 18.8147 54.9573 18.1609C54.7634 19.1294 54.1925 20.7332 54.3948 21.6298C54.8335 22.9436 54.0967 24.9611 53.1448 26.6298C52.1928 28.2984 48.1953 29.233 47.9573 24.9423C47.7192 20.6515 49.0427 10.7223 44.5511 7.81726C43.8826 7.48175 43.0504 7.18452 42.3011 7.16101L42.2998 7.16016Z" stroke="#095916" stroke-width="0.75" stroke-linecap="round" stroke-linejoin="round"/>
<path d="M58.58 21.1104C58.2434 27.01 54.2044 33.2463 53.0263 35.7753C51.8483 38.3037 48.6507 40.495 50.8385 45.8893C53.0263 51.2832 56.0556 56.8453 55.5507 59.5423C55.0458 62.2392 54.0361 66.2848 45.1167 70.4984" stroke="#095916" stroke-width="0.75" stroke-linecap="round" stroke-linejoin="round"/>
<path d="M204.61 20.9702C200.859 31.1332 186.597 40.1292 178.391 45.4392C171.287 50.0357 154.289 49.2772 145.797 48.8767C149.345 51.8937 157.905 56.0762 160.703 64.0017C148.231 85.3347 174.292 62.5085 181.141 66.5955C181.177 66.6955 181.199 66.7788 181.235 66.8767C187.033 63.7505 192.043 60.1367 195.079 56.8767C188.367 60.4722 177.461 64.6455 165.079 66.1267C184.513 63.3257 194.766 52.2807 201.391 39.6577C197.227 45.8145 190.995 49.0303 172.016 55.4388C194.111 47.2508 200.267 34.8782 204.61 20.9702ZM188.548 68.2512C187.023 69.4198 185.143 70.3923 183.079 71.1887C183.248 71.5238 183.415 71.8413 183.579 72.1262C185.297 70.9103 186.971 69.6217 188.548 68.2512Z" fill="url(#paint18_radial_3093_7996)"/>
<path d="M533.93 8.85068C529.407 18.6935 514.49 26.5977 505.899 31.2567C502.014 33.3636 495.388 33.7952 488.743 33.5692C490.671 35.0819 494.314 36.0356 498.618 35.7254C504.24 35.3202 510.616 33.344 515.993 33.1316C525.743 26.6202 530.231 18.1157 533.93 8.85068ZM529.274 27.2257C527.213 29.8176 524.775 31.7914 520.993 33.6319C521.065 33.6538 521.14 33.671 521.211 33.6944C520.108 35.9577 519.413 37.9157 519.055 39.6006C523.125 35.9773 526.44 31.7383 529.274 27.2257ZM521.68 43.9137C520.971 44.259 520.138 44.591 519.274 44.9137C519.382 45.1684 519.477 45.4092 519.617 45.6324C520.358 45.0619 521.069 44.4755 521.68 43.9137Z" fill="url(#paint19_radial_3093_7996)"/>
<path d="M533.93 8.85068C529.407 18.6935 514.49 26.5977 505.899 31.2567C502.014 33.3636 495.388 33.7952 488.743 33.5692C490.671 35.0819 494.314 36.0356 498.618 35.7254C504.24 35.3202 510.616 33.344 515.993 33.1316C525.743 26.6202 530.231 18.1157 533.93 8.85068ZM529.274 27.2257C527.213 29.8176 524.775 31.7914 520.993 33.6319C521.065 33.6538 521.14 33.671 521.211 33.6944C520.108 35.9577 519.413 37.9157 519.055 39.6006C523.125 35.9773 526.44 31.7383 529.274 27.2257ZM521.68 43.9137C520.971 44.259 520.138 44.591 519.274 44.9137C519.382 45.1684 519.477 45.4092 519.617 45.6324C520.358 45.0619 521.069 44.4755 521.68 43.9137Z" stroke="#800E0E" stroke-width="0.75" stroke-linecap="round" stroke-linejoin="round"/>
<path d="M204.61 20.9702C200.859 31.1332 186.597 40.1292 178.391 45.4392C171.287 50.0357 154.289 49.2772 145.797 48.8767C149.345 51.8937 157.905 56.0762 160.703 64.0017C148.231 85.3347 174.292 62.5085 181.141 66.5955C181.177 66.6955 181.199 66.7788 181.235 66.8767C187.033 63.7505 192.043 60.1367 195.079 56.8767C188.367 60.4722 177.461 64.6455 165.079 66.1267C184.513 63.3257 194.766 52.2807 201.391 39.6577C197.227 45.8145 190.995 49.0303 172.016 55.4388C194.111 47.2508 200.267 34.8782 204.61 20.9702ZM188.548 68.2512C187.023 69.4198 185.143 70.3923 183.079 71.1887C183.248 71.5238 183.415 71.8413 183.579 72.1262C185.297 70.9103 186.971 69.6217 188.548 68.2512Z" stroke="#800E0E" stroke-width="0.75" stroke-linecap="round" stroke-linejoin="round"/>
<defs>
<radialGradient id="paint0_radial_3093_7996" cx="0" cy="0" r="1" gradientUnits="userSpaceOnUse" gradientTransform="translate(378.654 56.0375) rotate(-10.4476) scale(17.9226 6.64777)">
<stop stop-color="#D1670C"/>
<stop offset="1" stop-color="#D1670C" stop-opacity="0"/>
</radialGradient>
<radialGradient id="paint1_radial_3093_7996" cx="0" cy="0" r="1" gradientUnits="userSpaceOnUse" gradientTransform="translate(363.373 77.4776) rotate(-15.1953) scale(20.9828 5.96447)">
<stop stop-color="#D1670C"/>
<stop offset="1" stop-color="#D1670C" stop-opacity="0"/>
</radialGradient>
<radialGradient id="paint2_radial_3093_7996" cx="0" cy="0" r="1" gradientUnits="userSpaceOnUse" gradientTransform="translate(353.368 72.7292) rotate(-15.1953) scale(20.9828 5.96447)">
<stop stop-color="#FFE97C"/>
<stop offset="1" stop-color="#FFE97C" stop-opacity="0"/>
</radialGradient>
<radialGradient id="paint3_radial_3093_7996" cx="0" cy="0" r="1" gradientUnits="userSpaceOnUse" gradientTransform="translate(407.198 65.4873) rotate(17.6138) scale(9.22052 25.612)">
<stop stop-color="#D1670C"/>
<stop offset="1" stop-color="#D1670C" stop-opacity="0"/>
</radialGradient>
<radialGradient id="paint4_radial_3093_7996" cx="0" cy="0" r="1" gradientUnits="userSpaceOnUse" gradientTransform="translate(384.139 113.042) rotate(33.4969) scale(17.3533 7.2335)">
<stop stop-color="#D1670C"/>
<stop offset="1" stop-color="#D1670C" stop-opacity="0"/>
</radialGradient>
<radialGradient id="paint5_radial_3093_7996" cx="0" cy="0" r="1" gradientUnits="userSpaceOnUse" gradientTransform="translate(395.951 57.2244) rotate(17.6138) scale(9.22052 25.612)">
<stop stop-color="#FFE97C"/>
<stop offset="1" stop-color="#FFE97C" stop-opacity="0"/>
</radialGradient>
<radialGradient id="paint6_radial_3093_7996" cx="0" cy="0" r="1" gradientUnits="userSpaceOnUse" gradientTransform="translate(371.652 50.7867) rotate(-10.4476) scale(17.9226 6.64777)">
<stop stop-color="#FFE97C"/>
<stop offset="1" stop-color="#FFE97C" stop-opacity="0"/>
</radialGradient>
<radialGradient id="paint7_radial_3093_7996" cx="0" cy="0" r="1" gradientUnits="userSpaceOnUse" gradientTransform="translate(370.632 113.036) rotate(33.4969) scale(17.3533 7.2335)">
<stop stop-color="#FFE97C"/>
<stop offset="1" stop-color="#FFE97C" stop-opacity="0"/>
</radialGradient>
<radialGradient id="paint8_radial_3093_7996" cx="0" cy="0" r="1" gradientUnits="userSpaceOnUse" gradientTransform="translate(34.6836 12.098) rotate(-10.4476) scale(17.9226 6.64777)">
<stop stop-color="#D1670C"/>
<stop offset="1" stop-color="#D1670C" stop-opacity="0"/>
</radialGradient>
<radialGradient id="paint9_radial_3093_7996" cx="0" cy="0" r="1" gradientUnits="userSpaceOnUse" gradientTransform="translate(19.403 33.5381) rotate(-15.1952) scale(20.9828 5.96446)">
<stop stop-color="#D1670C"/>
<stop offset="1" stop-color="#D1670C" stop-opacity="0"/>
</radialGradient>
<radialGradient id="paint10_radial_3093_7996" cx="0" cy="0" r="1" gradientUnits="userSpaceOnUse" gradientTransform="translate(9.39832 28.7897) rotate(-15.1952) scale(20.9828 5.96446)">
<stop stop-color="#FFE97C"/>
<stop offset="1" stop-color="#FFE97C" stop-opacity="0"/>
</radialGradient>
<radialGradient id="paint11_radial_3093_7996" cx="0" cy="0" r="1" gradientUnits="userSpaceOnUse" gradientTransform="translate(63.2322 21.5469) rotate(17.6138) scale(9.22052 25.612)">
<stop stop-color="#D1670C"/>
<stop offset="1" stop-color="#D1670C" stop-opacity="0"/>
</radialGradient>
<radialGradient id="paint12_radial_3093_7996" cx="0" cy="0" r="1" gradientUnits="userSpaceOnUse" gradientTransform="translate(40.1711 69.1024) rotate(33.4969) scale(17.3533 7.23349)">
<stop stop-color="#D1670C"/>
<stop offset="1" stop-color="#D1670C" stop-opacity="0"/>
</radialGradient>
<radialGradient id="paint13_radial_3093_7996" cx="0" cy="0" r="1" gradientUnits="userSpaceOnUse" gradientTransform="translate(51.9852 13.284) rotate(17.6138) scale(9.22052 25.612)">
<stop stop-color="#FFE97C"/>
<stop offset="1" stop-color="#FFE97C" stop-opacity="0"/>
</radialGradient>
<radialGradient id="paint14_radial_3093_7996" cx="0" cy="0" r="1" gradientUnits="userSpaceOnUse" gradientTransform="translate(27.6823 6.84724) rotate(-10.4476) scale(17.9226 6.64777)">
<stop stop-color="#FFE97C"/>
<stop offset="1" stop-color="#FFE97C" stop-opacity="0"/>
</radialGradient>
<radialGradient id="paint15_radial_3093_7996" cx="0" cy="0" r="1" gradientUnits="userSpaceOnUse" gradientTransform="translate(26.664 69.0969) rotate(33.4969) scale(17.3533 7.23349)">
<stop stop-color="#FFE97C"/>
<stop offset="1" stop-color="#FFE97C" stop-opacity="0"/>
</radialGradient>
<radialGradient id="paint16_radial_3093_7996" cx="0" cy="0" r="1" gradientUnits="userSpaceOnUse" gradientTransform="translate(404.1 104.504) rotate(6.03622) scale(25.1863 53.6795)">
<stop stop-color="#189924"/>
<stop offset="0.49776" stop-color="#65DE84" stop-opacity="0.50196"/>
<stop offset="0.58887" stop-color="#65DE84" stop-opacity="0.5"/>
<stop offset="1" stop-color="#189924"/>
</radialGradient>
<radialGradient id="paint17_radial_3093_7996" cx="0" cy="0" r="1" gradientUnits="userSpaceOnUse" gradientTransform="translate(51.8776 87.9998) rotate(12.2856) scale(28.1975 63.8226)">
<stop stop-color="#189924"/>
<stop offset="0.49776" stop-color="#65DE84" stop-opacity="0.50196"/>
<stop offset="0.58887" stop-color="#65DE84" stop-opacity="0.5"/>
<stop offset="1" stop-color="#189924"/>
</radialGradient>
<radialGradient id="paint18_radial_3093_7996" cx="0" cy="0" r="1" gradientUnits="userSpaceOnUse" gradientTransform="translate(157.53 46.4034) rotate(-30.7914) scale(30.3139 23.3704)">
<stop stop-color="#A81212"/>
<stop offset="0.31266" stop-color="#BC2F2F" stop-opacity="0.58"/>
<stop offset="0.58568" stop-color="#C73200" stop-opacity="0.25"/>
<stop offset="1" stop-color="#A81212"/>
</radialGradient>
<radialGradient id="paint19_radial_3093_7996" cx="0" cy="0" r="1" gradientUnits="userSpaceOnUse" gradientTransform="translate(493.669 22.6452) rotate(-18.2126) scale(31.4088 27.979)">
<stop stop-color="#A81212"/>
<stop offset="0.31266" stop-color="#BC2F2F" stop-opacity="0.58"/>
<stop offset="0.58568" stop-color="#C73200" stop-opacity="0.25"/>
<stop offset="1" stop-color="#A81212"/>
</radialGradient>
</defs>
</svg>
