<svg width="663" height="271" viewBox="0 0 663 271" fill="none" xmlns="http://www.w3.org/2000/svg">
<path d="M603.54 183.43C599.93 185.451 590.24 189.861 594.741 180.474C586.276 186.192 584.727 189.406 580.491 191.63C573.934 195.072 570.038 192.658 578.178 183.661C574.574 182.031 569.539 184.142 563.74 183.911C551.44 183.419 550.578 179.44 568.24 172.786C563.932 164.591 526.505 166.456 552.865 154.911C544.557 140.733 509.75 147.639 541.396 130.942C525.524 121.057 498.431 128.855 518.99 110.536C511.605 105.604 471.921 117.616 497.771 96.3478C484.231 93.2655 453.764 118.233 469.459 87.4103C453.705 85.9749 438.265 117.33 442.365 86.8165C430.932 86.667 415.083 123.507 416.053 95.8477C406.689 99.2679 406.354 106.614 400.209 112.317C391.359 120.53 373.168 122.229 382.209 103.692C376.18 101.72 367.212 105.176 359.615 105.723C347.511 106.595 340.544 97.5178 362.678 93.9109C359.682 84.9634 316.928 85.0049 346.897 71.6919C341.109 60.9569 305.176 64.6285 334.147 48.4729C321.838 40.7673 290.245 47.2574 314.459 28.0349C304.304 21.5622 268.518 36.5707 292.521 14.3789C279.596 4.51571 253.75 29.1529 268.521 3.87891C257.135 3.26241 235.263 31.6429 240.802 1.12891C229.416 2.36171 215.265 28.2529 218.958 1.12891C209.11 2.97821 195.571 37.8044 196.802 7.59821C181.415 11.2969 183.868 47.0512 174.021 21.1602C162.942 24.8589 167.567 59.3682 154.333 33.7852C146.948 39.3332 145.707 79.0852 135.552 48.8792C126.32 56.8931 129.529 90.8612 118.114 65.5352C110.281 74.0351 106.988 111.317 100.895 86.0352C91.8527 92.4625 96.6648 123.071 81.4894 98.9732C74.4643 104.921 80.5376 141.799 64.3334 120.911C52.5734 125.67 50.6874 160.432 42.1454 136.599C35.2968 132.512 9.23644 155.338 21.7074 134.005C16.4156 119.017 -9.49956 117.431 16.8949 111.755C14.4602 98.7844 1.52394 85.1404 19.9574 90.4114C26.2705 84.2613 15.3559 65.9494 32.1454 78.6304C39.4782 75.5007 38.3264 48.9084 50.0204 68.9429C58.9448 64.0113 62.0244 40.2619 70.7394 63.3804C82.1844 58.7746 79.2109 32.9704 92.6454 55.5366C98.5216 48.2663 97.8442 39.2306 94.8642 30.2556C94.5472 30.7474 94.2031 31.2197 93.8642 31.6931C93.6859 31.9422 93.5179 32.1989 93.333 32.4431C93.2698 32.5265 93.2095 32.6102 93.1455 32.6931C92.8754 33.043 92.5867 33.3841 92.3017 33.7243C92.1556 33.8989 92.0146 34.0835 91.8642 34.2556C91.4191 34.765 90.9421 35.2669 90.458 35.7556C90.3946 35.8195 90.3346 35.8795 90.2705 35.9431C89.9069 36.3043 89.5328 36.655 89.1455 37.0056C88.9351 37.1956 88.7383 37.3811 88.5205 37.5681C88.4308 37.6454 88.3302 37.71 88.2393 37.7868C87.6941 38.247 87.1454 38.6875 86.5518 39.1306C85.8719 39.638 85.1445 40.1437 84.3956 40.6306C83.6596 41.1091 82.8914 41.5762 82.0831 42.0368C82.0702 42.0438 82.0648 42.0608 82.0519 42.068C82.0318 42.0794 82.0095 42.0878 81.9894 42.0992C81.1754 42.5607 80.3195 42.9973 79.4269 43.443C78.5203 43.8956 77.5768 44.3483 76.5831 44.7868C75.8649 45.1037 75.1307 45.4139 74.3643 45.7243C74.3026 45.7493 74.2388 45.7619 74.1768 45.7868C73.5666 46.0323 72.9435 46.2949 72.3018 46.5368C71.562 46.8157 70.8352 47.0745 70.0518 47.3493C69.7584 47.4524 69.4764 47.5593 69.1768 47.6618C68.2514 47.9784 67.3201 48.287 66.333 48.5993C63.9395 49.3566 61.4723 50.1633 58.9892 51.0368C56.5061 51.9103 54.0076 52.8541 51.4892 53.8493C47.7118 55.3431 43.9127 56.9715 40.2082 58.7555C36.5031 60.5383 32.8768 62.4763 29.4272 64.568C24.8279 67.3586 20.5379 70.4081 16.7712 73.7868C15.8294 74.6315 14.9253 75.4974 14.0524 76.3806C13.1795 77.2638 12.3495 78.177 11.5524 79.0994C11.2496 79.4498 10.9401 79.8294 10.6461 80.2244C10.0581 81.0145 9.50753 81.897 8.95863 82.8494C6.76243 86.6584 4.88783 91.6566 3.52113 97.1934C3.17967 98.578 2.86037 100.005 2.58363 101.443C1.89118 105.038 1.40922 108.751 1.17742 112.443C1.17677 112.454 1.17807 112.464 1.17742 112.475C1.13202 113.203 1.10924 113.938 1.08374 114.662C1.03194 116.131 1.01883 117.601 1.05253 119.037C1.11953 121.908 1.36364 124.68 1.80253 127.287C2.1317 129.243 2.58769 131.128 3.14633 132.85C3.46106 133.82 3.81696 134.722 4.20883 135.6C4.27743 135.753 4.32529 135.918 4.39633 136.068C4.52336 136.338 4.66773 136.59 4.80258 136.85C4.92155 137.077 5.02122 137.317 5.14633 137.537C5.15333 137.549 5.17083 137.556 5.17753 137.568C5.43959 138.026 5.732 138.492 6.02128 138.912C6.62799 139.794 7.39318 140.671 8.33378 141.537C8.33978 141.542 8.35937 141.532 8.36497 141.537C8.50817 141.669 8.65224 141.813 8.80247 141.943C9.63503 142.667 10.5842 143.381 11.615 144.068C12.4311 144.613 13.2852 145.12 14.2088 145.631C14.2212 145.638 14.2276 145.655 14.24 145.662C15.1528 146.165 16.1121 146.639 17.115 147.1C17.1277 147.106 17.1336 147.125 17.1462 147.131C17.6425 147.358 18.1618 147.572 18.6774 147.787C18.6901 147.792 18.696 147.813 18.7086 147.818C19.754 148.254 20.8448 148.659 21.9586 149.037C23.5399 149.574 25.1808 150.044 26.8648 150.443C26.9809 150.471 27.0921 150.51 27.2085 150.537C27.2185 150.539 27.23 150.535 27.2397 150.537C27.8321 150.673 28.451 150.795 29.0522 150.912C30.2022 151.135 31.3481 151.329 32.521 151.474C32.5948 151.483 32.6659 151.497 32.7398 151.506C32.75 151.507 32.7609 151.505 32.771 151.506C33.3846 151.579 33.9977 151.643 34.6148 151.693C34.6252 151.694 34.6358 151.692 34.646 151.693C34.6768 151.695 34.709 151.691 34.7397 151.693C35.9539 151.789 37.1792 151.849 38.3959 151.849C40.2827 151.85 42.1692 151.731 44.0209 151.474C47.1163 151.045 50.1178 150.245 52.9271 148.974C54.0391 148.471 55.1357 147.876 56.1771 147.224C67.7811 139.966 130.605 77.7844 148.833 61.1304C150.047 60.0214 151.076 59.1171 151.864 58.4429C156.592 54.4004 164.442 47.8389 174.145 41.1929C175.764 40.0845 177.46 38.9827 179.176 37.8804C182.603 35.6801 186.21 33.4851 189.957 31.4429C192.774 29.9087 195.693 28.4557 198.645 27.0991C205.525 23.9375 212.725 21.3617 219.989 19.8491C224.145 18.9854 228.335 18.4573 232.489 18.3802C233.528 18.3609 234.571 18.3591 235.614 18.3802C236.657 18.4013 237.692 18.4449 238.739 18.5052C240.842 18.6258 242.943 18.8268 245.051 19.099C246.1 19.2344 247.128 19.3965 248.176 19.5677C252.379 20.2533 256.545 21.1948 260.676 22.4116C262.737 23.0184 264.776 23.6862 266.801 24.4116C270.863 25.8648 274.823 27.5362 278.676 29.4116C279.638 29.8793 280.575 30.3579 281.52 30.8491C281.964 31.0794 282.393 31.3325 282.833 31.5678C283.332 31.8351 283.839 32.1068 284.333 32.3803C284.341 32.3843 284.356 32.3763 284.364 32.3803C285.283 32.8896 286.183 33.4127 287.083 33.9428C287.999 34.482 288.907 35.0083 289.802 35.5678C291.576 36.6772 293.306 37.8224 294.989 39.0053C295.831 39.5968 296.641 40.2097 297.458 40.8178C297.465 40.8228 297.482 40.8128 297.489 40.8178C298.299 41.4211 299.08 42.043 299.864 42.6616C304.614 46.4082 308.865 50.4028 312.489 54.5676C313.695 55.9541 314.836 57.3716 315.895 58.7864C316.425 59.4938 316.936 60.1986 317.426 60.9114C318.407 62.3369 319.377 63.7856 320.333 65.2552C327.023 75.5422 333.125 86.7522 339.083 96.6302C340.785 99.4524 342.488 102.171 344.176 104.724C345.865 107.277 347.544 109.67 349.239 111.849C350.51 113.483 351.798 115.008 353.083 116.38C355.224 118.668 357.371 120.546 359.583 121.943C360.025 122.222 360.48 122.481 360.958 122.724C361.443 122.972 361.938 123.2 362.458 123.411C362.969 123.619 363.478 123.8 364.02 123.974C367.272 125.022 371.08 125.451 375.239 125.411C375.933 125.404 376.652 125.382 377.364 125.349C380.212 125.216 383.196 124.892 386.27 124.38C387.809 124.124 389.385 123.811 390.958 123.474C394.103 122.8 397.292 121.984 400.489 121.036C402.088 120.562 403.68 120.066 405.27 119.536C408.438 118.482 411.599 117.32 414.645 116.099C414.658 116.094 414.664 116.073 414.677 116.068C416.205 115.454 417.7 114.835 419.177 114.193C420.666 113.545 422.099 112.893 423.52 112.224C424.929 111.561 426.287 110.898 427.614 110.224C430.932 108.538 434.72 107.281 438.833 106.411C442.946 105.542 447.384 105.076 451.989 105.005C455.674 104.949 459.445 105.123 463.27 105.568C463.28 105.569 463.291 105.567 463.301 105.568C465.204 105.789 467.112 106.099 469.02 106.443C469.03 106.445 469.041 106.441 469.051 106.443C471.919 106.961 474.787 107.621 477.614 108.412C479.505 108.941 481.39 109.512 483.239 110.162C493.408 113.736 502.79 119.136 509.77 126.256C527.997 144.849 539.284 171.888 546.676 184.35C547.529 185.787 548.328 187.023 549.082 188.037C549.087 188.043 549.077 188.062 549.082 188.068C549.328 188.399 549.596 188.694 549.832 188.975C549.837 188.981 549.827 189 549.832 189.006C550.308 189.569 550.77 190.038 551.207 190.381C551.649 190.727 552.159 191.083 552.707 191.443C553.797 192.159 555.087 192.889 556.52 193.599C557.249 193.961 558.003 194.316 558.801 194.662C561.956 196.03 565.602 197.235 569.332 197.974C575.858 199.269 582.656 199.135 587.52 195.943C588.215 195.487 588.878 194.966 589.489 194.381C590.671 193.246 591.814 192.179 592.957 191.162C596.667 187.861 600.165 185.218 603.519 183.443C603.528 183.438 603.537 183.433 603.546 183.429L603.54 183.43Z" fill="#FAEE8A"/>
<path d="M42.1501 136.6C35.3015 132.513 9.24106 155.339 21.7121 134.007C16.4203 119.019 -9.49494 117.433 16.8996 111.757C14.4649 98.7856 1.52856 85.1416 19.9621 90.4126C26.2752 84.2625 15.3606 65.9506 32.1501 78.6316C39.4829 75.5019 38.3311 48.9096 50.0251 68.9441C58.9495 64.0125 62.0291 40.2631 70.7441 63.3816C82.1891 58.7758 79.2156 32.9716 92.6501 55.5378C98.5263 48.2675 97.8489 39.2318 94.8689 30.2568C94.5519 30.7487 94.2077 31.221 93.8689 31.6943C93.6906 31.9434 93.5225 32.2002 93.3376 32.4443C93.2744 32.5277 93.2141 32.6114 93.1501 32.6943C92.8801 33.0443 92.5913 33.3853 92.3064 33.7255C92.1602 33.9001 92.0192 34.0847 91.8689 34.2568C91.4238 34.7663 90.9467 35.2681 90.4627 35.7568C90.3993 35.8207 90.3393 35.8808 90.2752 35.9443C89.9116 36.3055 89.5375 36.6562 89.1502 37.0068C88.9397 37.1968 88.743 37.3823 88.5252 37.5693C88.4355 37.6466 88.3349 37.7112 88.2439 37.788C87.6987 38.2482 87.15 38.6888 86.5564 39.1318C85.8765 39.6393 85.1491 40.1449 84.4002 40.6318C83.6643 41.1103 82.896 41.5774 82.0877 42.038C82.0748 42.045 82.0694 42.062 82.0565 42.0692C82.0364 42.0806 82.0141 42.089 81.994 42.1004C81.1801 42.5619 80.3241 42.9985 79.4315 43.4442C78.5249 43.8969 77.5814 44.3496 76.5877 44.788C75.8696 45.1049 75.1353 45.4151 74.3689 45.7255C74.3072 45.7505 74.2434 45.7631 74.1814 45.788C73.5713 46.0335 72.9481 46.2961 72.3064 46.538C71.5666 46.8169 70.8398 47.0757 70.0564 47.3505C69.763 47.4536 69.4811 47.5605 69.1814 47.663C68.256 47.9796 67.3247 48.2882 66.3376 48.6005C63.9441 49.3579 61.4769 50.1645 58.9938 51.038C56.5107 51.9115 54.0122 52.8553 51.4938 53.8505C47.7164 55.3443 43.9173 56.9727 40.2128 58.7567C36.5077 60.5395 32.8814 62.4775 29.4318 64.5692C24.8325 67.3598 20.5425 70.4093 16.7758 73.788C15.8341 74.6327 14.9299 75.4986 14.057 76.3818C13.1841 77.265 12.3541 78.1782 11.557 79.1006C11.2542 79.451 10.9448 79.8306 10.6508 80.2256C10.0628 81.0157 9.51218 81.8982 8.96328 82.8506C6.76708 86.6596 4.89248 91.6578 3.52578 97.1946C3.18432 98.5792 2.86502 100.006 2.58828 101.445C1.89583 105.039 1.41388 108.753 1.18208 112.445C1.18143 112.455 1.18273 112.466 1.18208 112.476C1.13668 113.204 1.11387 113.939 1.08837 114.663C1.03657 116.132 1.02347 117.603 1.05717 119.038C1.12417 121.909 1.36828 124.681 1.80717 127.288C2.13634 129.244 2.59234 131.129 3.15098 132.851C3.46571 133.821 3.82161 134.723 4.21348 135.601C4.28208 135.754 4.32994 135.919 4.40098 136.07C4.52801 136.339 4.67238 136.592 4.80723 136.851C4.9262 137.079 5.02587 137.319 5.15098 137.538C5.15798 137.55 5.17547 137.558 5.18217 137.57C5.44423 138.027 5.73664 138.493 6.02592 138.913C6.63263 139.795 7.39784 140.673 8.33844 141.538C8.34444 141.543 8.36402 141.533 8.36962 141.538C8.51282 141.67 8.65689 141.814 8.80712 141.945C9.63968 142.669 10.5888 143.382 11.6196 144.07C12.4358 144.614 13.2898 145.122 14.2134 145.632C14.2258 145.639 14.2322 145.657 14.2446 145.663C15.1575 146.167 16.1167 146.64 17.1196 147.101C17.1323 147.107 17.1382 147.126 17.1508 147.132C17.6471 147.359 18.1664 147.573 18.682 147.788C18.6947 147.793 18.7006 147.814 18.7132 147.819C19.7586 148.255 20.8494 148.66 21.9632 149.038C23.5445 149.576 25.1854 150.045 26.8694 150.444C26.9855 150.472 27.0967 150.511 27.2132 150.538C27.2232 150.54 27.2347 150.536 27.2444 150.538C27.8368 150.674 28.4557 150.796 29.0569 150.913C30.2069 151.136 31.3528 151.33 32.5257 151.476C32.5995 151.485 32.6705 151.498 32.7444 151.507C32.7546 151.508 32.7655 151.506 32.7756 151.507C33.3893 151.58 34.0023 151.644 34.6194 151.694C34.6298 151.695 34.6404 151.693 34.6506 151.694C34.6814 151.696 34.7136 151.692 34.7443 151.694C35.9585 151.79 37.1838 151.85 38.4005 151.851C38.4005 151.851 42.6654 137.947 42.1501 136.6Z" fill="url(#paint0_radial_3093_8425)"/>
<path d="M218.97 1.12012C209.122 2.96942 195.583 37.7951 196.814 7.58891C181.427 11.2876 183.88 47.0419 174.033 21.1509C162.954 24.8496 167.578 59.3589 154.345 33.7759C146.959 39.3239 145.719 79.0759 135.564 48.8699C126.332 56.8838 129.541 90.8519 118.126 65.5259C110.292 74.0258 107 111.308 100.907 86.0259C91.8643 92.4532 96.6764 123.062 81.501 98.9639C74.4759 104.912 80.5492 141.79 64.345 120.902C52.585 125.66 50.699 160.423 42.157 136.59L26.876 150.434C26.992 150.461 27.1033 150.501 27.2197 150.528C27.2297 150.53 27.2412 150.526 27.2509 150.528C27.8433 150.664 28.4622 150.786 29.0634 150.903C30.2134 151.126 31.3593 151.319 32.5322 151.465C32.606 151.474 32.6771 151.488 32.751 151.496C32.7612 151.497 32.7721 151.495 32.7822 151.496C33.3959 151.57 34.0089 151.634 34.626 151.684C34.6364 151.685 34.6471 151.683 34.6572 151.684C34.688 151.686 34.7202 151.682 34.7509 151.684C35.9651 151.78 37.1904 151.84 38.4071 151.84C40.2939 151.84 42.1804 151.722 44.0321 151.465C47.1275 151.036 50.129 150.236 52.9383 148.965C54.0503 148.462 55.1469 147.866 56.1883 147.215C67.7923 139.957 130.616 77.775 148.844 61.121C150.058 60.012 151.087 59.1077 151.875 58.4335C156.603 54.391 164.453 47.8296 174.156 41.1836C175.775 40.0752 177.471 38.9734 179.188 37.8711C182.614 35.6708 186.222 33.4758 189.969 31.4336C192.785 29.8994 195.704 28.4464 198.656 27.0898C205.536 23.9282 212.736 21.3524 220 19.8398C224.156 18.9761 228.346 18.4481 232.5 18.371C233.539 18.3517 234.582 18.3499 235.625 18.371C236.668 18.3921 237.704 18.4357 238.75 18.496C240.854 18.6165 242.954 18.8175 245.063 19.0897C246.112 19.2251 247.14 19.3872 248.188 19.5585C252.39 20.244 256.557 21.1855 260.688 22.4023C262.748 23.0091 264.787 23.6769 266.813 24.4023C270.874 25.8555 274.834 27.5269 278.688 29.4023C279.649 29.87 280.587 30.3486 281.531 30.8398C281.975 31.0701 282.404 31.3232 282.844 31.5585C283.343 31.8258 283.85 32.0975 284.344 32.371C284.352 32.375 284.367 32.367 284.375 32.371C285.294 32.8803 286.194 33.4034 287.094 33.9335C288.01 34.4727 288.918 34.999 289.813 35.5585C291.587 36.6679 293.317 37.8131 295 38.996C295.842 39.5875 296.652 40.2004 297.469 40.8085C297.476 40.8135 297.494 40.8035 297.5 40.8085C298.31 41.4118 299.091 42.0337 299.875 42.6523C304.626 46.3989 308.877 50.3935 312.5 54.5583C313.707 55.9448 314.848 57.3623 315.906 58.7771C316.436 59.4845 316.947 60.1893 317.438 60.9021C318.419 62.3276 319.388 63.7763 320.344 65.2459C327.034 75.5329 333.136 86.7429 339.094 96.6209C340.796 99.4431 342.499 102.162 344.188 104.715C345.876 107.268 347.555 109.661 349.25 111.84C350.521 113.474 351.809 114.998 353.094 116.371C355.236 118.658 357.382 120.537 359.594 121.933C360.036 122.213 360.491 122.472 360.969 122.715C361.454 122.963 361.949 123.191 362.469 123.402C362.98 123.61 363.489 123.791 364.031 123.965C364.739 124.193 365.461 124.387 366.219 124.558L380 114.12C379.385 111.798 379.925 108.386 382.219 103.682C376.19 101.711 367.222 105.166 359.625 105.714C347.521 106.586 340.554 97.5085 362.687 93.9016C359.691 84.9541 316.937 84.9956 346.906 71.6826C343.348 65.082 328.382 63.9416 324.125 60.2766C319.366 55.9393 332.572 49.3436 334.156 48.4646C333.772 48.2238 333.358 47.9914 332.938 47.7771C319.917 41.1341 291.011 46.6484 314.469 28.0271C311.93 26.4089 307.783 26.127 303.375 26.2771C302.273 26.3146 301.145 26.3882 300.031 26.4646C294.458 26.8466 288.977 27.5408 286.219 26.7459C285.943 26.6664 285.719 26.5756 285.5 26.4646C283.091 25.244 284.28 21.9994 292.531 14.3706C283.039 7.12731 266.568 18.4891 264.343 15.0269C264.296 14.9532 264.252 14.8955 264.218 14.8081C263.944 14.1088 264.099 12.9475 264.781 11.1831C264.951 10.742 265.136 10.2662 265.374 9.74561C266.089 8.18391 267.146 6.24011 268.531 3.87061C266.704 3.77171 265.187 4.14793 263.937 4.80811C263.905 4.82041 263.875 4.82681 263.843 4.83931C252.104 9.44131 235.965 27.8203 240.812 1.12051C229.426 2.35331 215.275 28.2445 218.968 1.12051L218.97 1.12012Z" fill="url(#paint1_radial_3093_8425)"/>
<path d="M442.38 86.81C434.878 86.7119 425.467 102.544 420.161 105.622C419.656 105.915 419.181 106.116 418.755 106.153C416.839 106.32 415.795 103.62 416.067 95.8413C406.703 99.2615 406.368 106.607 400.223 112.31C393.619 118.44 381.813 120.952 380.004 114.123L366.223 124.561C368.95 125.176 372 125.435 375.255 125.405C375.948 125.398 376.667 125.375 377.38 125.342C380.227 125.209 383.211 124.885 386.286 124.373C387.824 124.117 389.4 123.804 390.973 123.467C394.118 122.793 397.308 121.977 400.505 121.03C402.104 120.556 403.696 120.059 405.286 119.53C408.453 118.475 411.615 117.313 414.661 116.092C414.673 116.087 414.679 116.066 414.692 116.061C416.221 115.447 417.716 114.828 419.192 114.186C420.681 113.538 422.115 112.886 423.536 112.217C424.945 111.554 426.302 110.891 427.63 110.217C430.947 108.531 434.735 107.274 438.849 106.405C442.961 105.535 447.4 105.069 452.005 104.998C455.689 104.942 459.461 105.116 463.286 105.561C463.296 105.562 463.307 105.56 463.317 105.561C465.219 105.782 467.127 106.092 469.036 106.436C469.046 106.438 469.057 106.434 469.067 106.436C471.935 106.954 474.802 107.614 477.629 108.405C479.52 108.934 481.406 109.505 483.254 110.155C493.423 113.729 502.805 119.129 509.785 126.249C528.012 144.842 539.299 171.881 546.691 184.343C547.544 185.781 548.344 187.016 549.097 188.03C549.102 188.036 549.092 188.055 549.097 188.061C549.343 188.392 549.611 188.688 549.847 188.968C549.852 188.974 549.842 188.993 549.847 188.999C550.323 189.562 550.785 190.031 551.222 190.374C551.665 190.721 552.174 191.076 552.722 191.436C553.812 192.152 555.103 192.882 556.535 193.592C557.264 193.954 558.018 194.309 558.816 194.655C561.972 196.023 565.618 197.228 569.347 197.967C575.874 199.262 582.671 199.128 587.535 195.936C588.23 195.48 588.894 194.959 589.504 194.374C590.686 193.239 591.83 192.172 592.973 191.155C596.683 187.854 600.181 185.211 603.535 183.436L603.548 183.425C599.927 185.402 590.252 189.855 594.753 180.467C586.289 186.186 584.739 189.4 580.503 191.623C573.947 195.065 570.05 192.651 578.191 183.655C574.587 182.024 569.552 184.136 563.753 183.905C551.453 183.413 550.591 179.433 568.253 172.78C563.945 164.585 526.518 166.449 552.878 154.905C544.569 140.727 509.763 147.633 541.409 130.936C532.218 125.211 519.256 125.431 513.971 123.061C507.473 120.392 516.385 112.924 519.002 110.53C516.694 108.988 511.226 109.107 505.596 109.342C504.47 109.389 503.337 109.454 502.221 109.498C491.064 109.944 481.627 109.634 497.784 96.3423C490.167 94.6085 477.196 101.748 470.096 102.842C469.701 102.903 469.296 102.946 468.939 102.967C464.308 103.239 463.095 99.9264 469.471 87.4053C459.625 86.5082 449.878 98.4203 444.971 100.03C444.725 100.111 444.504 100.16 444.283 100.187C441.856 100.474 440.968 97.3008 442.377 86.8116L442.38 86.81Z" fill="url(#paint2_radial_3093_8425)"/>
<path d="M603.55 183.4C599.94 185.421 590.239 189.864 594.74 180.476C586.275 186.195 584.726 189.409 580.49 191.632C573.933 195.075 570.037 192.661 578.177 183.664C574.573 182.033 569.538 184.145 563.739 183.914C551.439 183.422 550.577 179.442 568.239 172.789C563.931 164.594 526.504 166.458 552.864 154.914C544.556 140.736 509.749 147.642 541.395 130.945C525.523 121.06 498.43 128.858 518.989 110.539C511.604 105.607 471.92 117.619 497.77 96.3507C484.23 93.2684 453.763 118.236 469.458 87.4132C453.704 85.9778 438.264 117.333 442.364 86.8194C430.931 86.6699 415.082 123.509 416.052 95.8506C406.688 99.2708 406.353 106.617 400.208 112.32C391.358 120.533 373.167 122.232 382.208 103.695C376.179 101.723 367.211 105.178 359.614 105.726C347.51 106.598 340.543 97.5207 362.677 93.9138C359.681 84.9663 316.927 85.0078 346.896 71.6948C341.108 60.9598 305.175 64.6314 334.146 48.4758C321.837 40.7702 290.244 47.2603 314.458 28.0378C304.303 21.5651 268.517 36.5736 292.52 14.3818C279.595 4.51864 253.749 29.1558 268.52 3.88184C257.134 3.26534 235.262 31.6458 240.801 1.13184C229.415 2.36464 215.264 28.2558 218.957 1.13184C209.109 2.98114 195.57 37.8073 196.801 7.60114C181.414 11.2998 183.867 47.0541 174.02 21.1631C162.941 24.8618 167.566 59.3711 154.332 33.7881C146.947 39.3361 145.706 79.0881 135.551 48.8821C126.319 56.896 129.528 90.8641 118.113 65.5381C110.28 74.038 106.987 111.32 100.894 86.0381C91.8516 92.4654 96.6638 123.074 81.4884 98.9761C74.4633 104.924 80.5365 141.802 64.3324 120.914C52.5724 125.673 50.6863 160.435 42.1443 136.602C35.2957 132.515 9.23536 155.341 21.7064 134.008C16.4146 119.02 -9.50064 117.434 16.8939 111.758C14.4592 98.7873 1.52286 85.1433 19.9564 90.4143C26.2695 84.2642 15.3549 65.9523 32.1444 78.6333C39.4771 75.5036 38.3253 48.9113 50.0193 68.9458C58.9437 64.0142 62.0234 40.2648 70.7384 63.3833C82.1834 58.7775 79.2098 32.9733 92.6443 55.5395C98.5205 48.2692 97.8432 39.2335 94.8632 30.2585" stroke="#D9CF77" stroke-width="0.75" stroke-linecap="round" stroke-linejoin="round"/>
<path d="M389.84 206.97C384.366 203.394 375.679 203.454 369.848 210.724C375.322 210.724 381.034 210.545 384.128 214.121C385.09 215.143 390.966 208.202 389.84 206.97Z" fill="#EAC721"/>
<path d="M384.24 221.21C375.493 218.766 367.768 225.538 365.864 231.736C370.624 229.829 381.443 229.017 385.846 230.924C387.396 230.328 386.581 222.044 384.24 221.21Z" fill="#EAC721"/>
<path d="M388.08 239.72C380.702 246.871 381.892 255.155 383.796 262.068C387.604 254.917 390.044 253.486 394.09 250.387C394.92 249.124 389.721 239.173 388.08 239.72Z" fill="#EAC721"/>
<path d="M448.68 216.98C455.88 224.37 456.772 230.925 455.82 236.646C453.619 232.296 449.93 228.422 444.693 225.681C442.907 224.597 446.724 215.849 448.68 216.98Z" fill="#EAC721"/>
<path d="M384.24 221.21C375.493 218.766 367.768 225.538 365.864 231.736C370.624 229.829 381.443 229.017 385.846 230.924C387.396 230.328 386.581 222.044 384.24 221.21Z" fill="url(#paint3_radial_3093_8425)"/>
<path d="M389.84 206.97C384.366 203.394 375.679 203.454 369.848 210.724C375.322 210.724 381.034 210.545 384.128 214.121C385.09 215.143 390.966 208.202 389.84 206.97Z" fill="url(#paint4_radial_3093_8425)"/>
<path d="M386.33 148.63C385.332 149.682 384.243 150.538 383.111 151.161C373.619 156.39 361.748 154.551 360.736 172.973C363.658 179.367 372.915 185.533 380.236 189.504C388.314 193.887 402.029 205.72 404.048 208.754C406.067 211.788 408.159 220.863 407.486 223.223C402.437 221.538 398.668 207.703 390.267 206.692C390.087 206.654 389.92 206.595 389.736 206.567C389.804 206.713 389.86 206.861 389.892 207.036C389.895 207.051 389.893 207.076 389.892 207.098C389.891 207.11 389.892 207.121 389.892 207.13C389.933 207.229 389.961 207.337 389.954 207.473C389.948 207.589 389.928 207.711 389.892 207.848C389.889 207.86 389.895 207.868 389.892 207.88C389.866 207.973 389.836 208.059 389.798 208.161C389.772 208.235 389.737 208.301 389.704 208.38C389.653 208.499 389.612 208.627 389.548 208.755C389.516 208.819 389.489 208.876 389.454 208.942C389.376 209.088 389.297 209.227 389.204 209.38C389.129 209.507 389.038 209.624 388.954 209.755C388.893 209.85 388.833 209.94 388.767 210.036C388.511 210.414 388.223 210.785 387.923 211.161C387.866 211.232 387.825 211.309 387.767 211.38C387.729 211.426 387.68 211.459 387.642 211.505C387.313 211.9 386.978 212.286 386.642 212.63C386.311 212.969 385.978 213.286 385.673 213.536C385.647 213.557 385.605 213.578 385.58 213.598C385.408 213.735 385.264 213.846 385.111 213.942C384.955 214.04 384.803 214.112 384.673 214.161C384.485 214.232 384.322 214.274 384.205 214.223C384.196 214.219 384.182 214.228 384.173 214.223C384.043 214.229 383.9 214.207 383.736 214.192C383.918 214.446 384.15 214.681 384.423 214.911C387.789 216.259 395.678 221.901 397.361 224.598C391.976 220.216 386.048 220.136 383.892 220.098C383.612 220.199 383.361 220.368 383.142 220.567C383.555 220.772 383.948 220.973 384.174 221.161C384.211 221.171 384.239 221.183 384.267 221.192C384.414 221.244 384.539 221.335 384.673 221.442C385.88 222.404 386.586 225.426 386.642 227.817C386.649 228.082 386.652 228.322 386.642 228.567C386.642 228.577 386.643 228.588 386.642 228.598C386.601 229.564 386.422 230.353 386.111 230.723C386.029 230.826 385.964 230.902 385.861 230.942C385.792 231.028 385.683 231.159 385.549 231.286C385.89 231.507 386.25 231.669 386.611 231.692C391.323 231.692 398.392 230.344 402.767 231.692C390.987 234.052 389.967 235.077 387.611 238.786C387.455 239.031 387.35 239.306 387.267 239.598C387.714 239.625 388.047 239.657 388.142 239.692C388.145 239.693 388.17 239.691 388.173 239.692C388.191 239.691 388.218 239.692 388.236 239.692C388.321 239.696 388.419 239.742 388.517 239.786C388.527 239.79 388.538 239.781 388.548 239.786C388.644 239.831 388.724 239.895 388.83 239.973C388.875 240.007 388.907 240.028 388.955 240.067C389.069 240.162 389.175 240.252 389.298 240.379C389.343 240.425 389.378 240.455 389.423 240.504C389.554 240.646 389.692 240.803 389.83 240.973C389.872 241.025 389.912 241.075 389.955 241.129C390.271 241.536 390.595 241.991 390.923 242.504C390.959 242.559 390.982 242.605 391.017 242.661C391.356 243.198 391.696 243.789 392.017 244.379C392.035 244.413 392.061 244.439 392.08 244.473C392.41 245.086 392.708 245.715 392.986 246.317C392.995 246.337 393.008 246.359 393.017 246.379C393.297 246.99 393.545 247.567 393.736 248.098C393.831 248.365 393.921 248.616 393.986 248.848C393.989 248.857 393.984 248.871 393.986 248.879C394.047 249.1 394.113 249.324 394.142 249.504C394.144 249.513 394.141 249.527 394.142 249.536C394.169 249.711 394.181 249.875 394.173 250.004C394.173 250.022 394.174 250.05 394.173 250.067C394.161 250.171 394.121 250.254 394.08 250.317C394.072 250.334 394.09 250.365 394.08 250.379C394.06 250.395 394.037 250.396 394.017 250.411C393.984 250.546 393.955 250.706 393.892 250.911C393.933 250.912 393.98 250.911 394.017 250.911C400.749 248.214 401.233 247.697 403.83 244.598C405.763 242.29 409.192 244.011 416.33 241.161C419.697 239.816 425.726 233.162 430.486 229.349C436.198 225.058 439.507 223.684 444.267 226.067C444.354 226.111 444.43 226.155 444.517 226.192C444.442 225.884 444.389 225.627 444.36 225.411C444.083 224.915 444.163 223.991 444.423 222.942C444.502 222.607 444.586 222.265 444.704 221.911C444.737 221.816 444.794 221.725 444.829 221.63C444.971 221.231 445.12 220.835 445.298 220.442C445.419 220.182 445.541 219.941 445.673 219.692C445.785 219.475 445.897 219.27 446.017 219.067C446.041 219.027 446.055 218.982 446.079 218.942C446.19 218.759 446.309 218.608 446.423 218.442C446.459 218.39 446.48 218.336 446.517 218.286C446.616 218.147 446.728 218.033 446.829 217.911C446.884 217.844 446.93 217.785 446.985 217.724C447.072 217.627 447.149 217.556 447.235 217.474C447.302 217.409 447.356 217.341 447.423 217.286C447.497 217.225 447.568 217.178 447.642 217.13C447.768 217.048 447.896 216.981 448.017 216.942C448.112 216.909 448.207 216.884 448.298 216.88C448.331 216.879 448.359 216.876 448.391 216.88C448.553 216.844 448.757 216.838 448.985 216.817C448.848 216.634 448.708 216.455 448.548 216.286C444.026 211.519 438.363 210.559 434.079 212.942C429.795 215.326 430.002 222.209 424.766 219.349C419.53 216.488 415.696 204.103 416.172 194.568C416.649 185.032 414.317 171.179 410.985 166.412C407.653 161.644 400.798 155.451 394.61 154.974L389.922 149.942C388.803 148.715 387.42 148.77 386.329 148.63L386.33 148.63Z" fill="#3D9945"/>
<path d="M389.84 206.97C384.366 203.394 375.679 203.454 369.848 210.724C375.322 210.724 381.034 210.545 384.128 214.121C385.09 215.143 390.966 208.202 389.84 206.97Z" fill="url(#paint5_radial_3093_8425)"/>
<path d="M389.84 206.97C384.366 203.394 375.679 203.454 369.848 210.724C375.322 210.724 381.034 210.545 384.128 214.121C385.09 215.143 390.966 208.202 389.84 206.97Z" stroke="#D1670C" stroke-width="0.75" stroke-linecap="round" stroke-linejoin="round"/>
<path d="M384.24 221.21C375.493 218.766 367.768 225.538 365.864 231.736C370.624 229.829 381.443 229.017 385.846 230.924C387.396 230.328 386.581 222.044 384.24 221.21Z" fill="url(#paint6_radial_3093_8425)"/>
<path d="M384.24 221.21C375.493 218.766 367.768 225.538 365.864 231.736C370.624 229.829 381.443 229.017 385.846 230.924C387.396 230.328 386.581 222.044 384.24 221.21Z" stroke="#D1670C" stroke-width="0.75" stroke-linecap="round" stroke-linejoin="round"/>
<path d="M448.68 216.98C455.88 224.37 456.772 230.925 455.82 236.646C453.619 232.296 449.93 228.422 444.693 225.681C442.907 224.597 446.724 215.849 448.68 216.98Z" fill="url(#paint7_radial_3093_8425)"/>
<path d="M448.68 216.98C455.88 224.37 456.772 230.925 455.82 236.646C453.619 232.296 449.93 228.422 444.693 225.681C442.907 224.597 446.724 215.849 448.68 216.98Z" stroke="#D1670C" stroke-width="0.75" stroke-linecap="round" stroke-linejoin="round"/>
<path d="M388.08 239.72C380.702 246.871 381.892 255.155 383.796 262.068C387.604 254.917 390.044 253.486 394.09 250.387C394.92 249.124 389.721 239.173 388.08 239.72Z" fill="url(#paint8_radial_3093_8425)"/>
<path d="M388.08 239.72C380.702 246.871 381.892 255.155 383.796 262.068C387.604 254.917 390.044 253.486 394.09 250.387C394.92 249.124 389.721 239.173 388.08 239.72Z" fill="url(#paint9_radial_3093_8425)"/>
<path d="M388.08 239.72C380.702 246.871 381.892 255.155 383.796 262.068C387.604 254.917 390.044 253.486 394.09 250.387C394.92 249.124 389.721 239.173 388.08 239.72Z" stroke="#D1670C" stroke-width="0.75" stroke-linecap="round" stroke-linejoin="round"/>
<path d="M448.68 216.98C455.88 224.37 456.772 230.925 455.82 236.646C453.619 232.296 449.93 228.422 444.693 225.681C442.907 224.597 446.724 215.849 448.68 216.98Z" fill="url(#paint10_radial_3093_8425)"/>
<path d="M63.35 214.801C57.6537 211.591 48.989 212.218 43.646 219.855C49.1084 219.497 54.796 218.944 58.118 222.31C59.1447 223.267 64.5542 215.957 63.35 214.801Z" fill="#EAC721"/>
<path d="M58.7 229.38C49.8123 227.514 42.547 234.776 41.052 241.086C45.6771 238.872 56.42 237.353 60.938 238.968C62.4454 238.272 61.0902 230.059 58.7 229.38Z" fill="#EAC721"/>
<path d="M63.7402 247.6C56.8457 255.219 58.5749 263.407 60.927 270.18C64.2592 262.795 66.5999 261.208 70.4346 257.851C71.1797 256.536 65.3417 246.947 63.7402 247.599V247.6Z" fill="#EAC721"/>
<path d="M122.73 220.94C130.398 227.843 131.717 234.326 131.141 240.097C128.66 235.9 124.725 232.276 119.321 229.883C117.468 228.917 120.704 219.939 122.73 220.94Z" fill="#EAC721"/>
<path d="M58.7 229.38C49.8123 227.514 42.547 234.776 41.052 241.086C45.6771 238.872 56.42 237.353 60.938 238.968C62.4454 238.272 61.0902 230.059 58.7 229.38Z" fill="url(#paint11_radial_3093_8425)"/>
<path d="M63.35 214.801C57.6537 211.591 48.989 212.218 43.646 219.855C49.1084 219.497 54.796 218.944 58.118 222.31C59.1447 223.267 64.5542 215.957 63.35 214.801Z" fill="url(#paint12_radial_3093_8425)"/>
<path d="M56.04 156.82C55.1132 157.934 54.0824 158.86 52.9937 159.556C43.8634 165.395 31.8977 164.336 32.0937 182.785C35.4275 188.974 45.0687 194.521 52.6337 198.005C60.9812 201.85 75.4407 212.761 77.6547 215.656C79.8683 218.552 82.5487 227.47 82.0313 229.869C76.8831 228.517 72.2175 214.959 63.7683 214.499C63.5859 214.472 63.4158 214.425 63.23 214.409C63.3076 214.55 63.3735 214.694 63.4166 214.867C63.4206 214.881 63.4196 214.906 63.4206 214.929C63.4209 214.94 63.4216 214.952 63.4226 214.96C63.47 215.057 63.5053 215.162 63.5075 215.299C63.5095 215.415 63.4969 215.538 63.4697 215.677C63.4677 215.689 63.4737 215.697 63.4717 215.708C63.4521 215.804 63.428 215.891 63.3966 215.995C63.375 216.071 63.345 216.139 63.3174 216.22C63.2743 216.342 63.2418 216.473 63.186 216.604C63.1585 216.67 63.1352 216.729 63.1048 216.797C63.0362 216.948 62.9659 217.091 62.8839 217.25C62.8169 217.382 62.7343 217.505 62.659 217.641C62.6035 217.74 62.5495 217.833 62.4903 217.934C62.2595 218.328 61.9961 218.716 61.722 219.111C61.6696 219.187 61.6338 219.266 61.5803 219.34C61.5456 219.389 61.4989 219.424 61.4638 219.473C61.1612 219.889 60.852 220.296 60.5395 220.661C60.2311 221.021 59.9195 221.359 59.6321 221.629C59.6072 221.651 59.5671 221.675 59.5427 221.697C59.3805 221.845 59.2439 221.964 59.0975 222.071C58.9486 222.179 58.8018 222.26 58.6752 222.318C58.4924 222.401 58.3325 222.453 58.2115 222.411C58.2025 222.408 58.1892 222.417 58.1804 222.413C58.0509 222.427 57.9071 222.415 57.7418 222.41C57.9398 222.651 58.1873 222.871 58.4749 223.082C61.9217 224.207 70.1629 229.321 72.0179 231.902C66.3574 227.881 60.4369 228.189 58.2839 228.293C58.0107 228.411 57.7715 228.597 57.5662 228.81C57.9914 228.987 58.3968 229.162 58.6341 229.335C58.6726 229.342 58.701 229.352 58.7295 229.36C58.8789 229.402 59.0105 229.485 59.1513 229.583C60.4183 230.464 61.3203 233.433 61.5328 235.815C61.5571 236.079 61.5758 236.318 61.5819 236.564C61.5822 236.574 61.5839 236.585 61.5839 236.595C61.6064 237.561 61.4788 238.36 61.1928 238.75C61.1173 238.858 61.0577 238.938 60.9576 238.985C60.8946 239.075 60.7942 239.212 60.6683 239.348C61.0238 239.546 61.393 239.685 61.7551 239.684C66.4573 239.376 73.4221 237.568 77.8771 238.627C66.2761 241.753 65.3261 242.843 63.2171 246.697C63.0776 246.952 62.9902 247.233 62.9272 247.53C63.3746 247.528 63.7089 247.538 63.8065 247.567C63.8095 247.567 63.8345 247.564 63.8376 247.565C63.8546 247.563 63.8823 247.562 63.9 247.561C63.9854 247.559 64.0859 247.598 64.1867 247.636C64.1971 247.639 64.2072 247.63 64.2178 247.634C64.3159 247.673 64.4005 247.731 64.5107 247.802C64.5586 247.833 64.5915 247.852 64.6416 247.888C64.7623 247.975 64.8736 248.058 65.0051 248.177C65.0524 248.219 65.0895 248.247 65.138 248.294C65.2776 248.426 65.4259 248.574 65.574 248.735C65.6194 248.784 65.6629 248.831 65.709 248.882C66.0514 249.267 66.404 249.7 66.7656 250.191C66.8045 250.244 66.8304 250.287 66.8693 250.341C67.2426 250.855 67.6208 251.423 67.9796 251.991C68.0001 252.023 68.0277 252.048 68.0481 252.08C68.4177 252.669 68.7564 253.278 69.073 253.86C69.0833 253.88 69.0976 253.901 69.1082 253.921C69.4272 254.512 69.7125 255.071 69.9378 255.589C70.0499 255.849 70.1562 256.093 70.2364 256.321C70.2404 256.33 70.2358 256.343 70.2383 256.352C70.3134 256.568 70.3939 256.787 70.4351 256.965C70.4381 256.974 70.4356 256.988 70.4372 256.997C70.4754 257.169 70.4979 257.333 70.499 257.462C70.4999 257.48 70.503 257.508 70.503 257.525C70.497 257.629 70.463 257.714 70.4257 257.78C70.4187 257.797 70.4388 257.827 70.4297 257.843C70.4109 257.859 70.3881 257.862 70.3694 257.878C70.3452 258.016 70.3267 258.177 70.2774 258.385C70.3179 258.383 70.3652 258.379 70.4022 258.377C76.9432 255.245 77.393 254.698 79.7808 251.436C81.5591 249.007 85.0937 250.499 92.0288 247.188C95.3009 245.626 100.882 238.592 105.382 234.475C110.801 229.82 114.013 228.232 118.919 230.3C119.009 230.338 119.088 230.377 119.176 230.408C119.082 230.106 119.012 229.852 118.969 229.639C118.66 229.162 118.679 228.234 118.87 227.171C118.928 226.831 118.989 226.485 119.083 226.124C119.11 226.027 119.161 225.932 119.19 225.835C119.306 225.427 119.428 225.023 119.58 224.619C119.683 224.351 119.789 224.103 119.905 223.846C120.003 223.622 120.101 223.41 120.207 223.2C120.228 223.159 120.24 223.112 120.261 223.071C120.36 222.881 120.469 222.723 120.572 222.55C120.604 222.496 120.622 222.44 120.655 222.388C120.745 222.243 120.85 222.122 120.942 221.993C120.993 221.923 121.035 221.861 121.086 221.796C121.166 221.694 121.239 221.618 121.319 221.53C121.382 221.461 121.431 221.39 121.494 221.331C121.564 221.265 121.632 221.213 121.702 221.161C121.822 221.071 121.946 220.995 122.064 220.949C122.157 220.909 122.25 220.878 122.34 220.868C122.373 220.865 122.402 220.86 122.434 220.862C122.593 220.815 122.796 220.797 123.022 220.761C122.873 220.587 122.722 220.418 122.551 220.259C117.727 215.798 112.014 215.21 107.895 217.869C103.776 220.528 104.434 227.383 99.0215 224.871C93.6095 222.359 88.9735 210.251 88.8255 200.705C88.6769 191.159 85.4441 177.488 81.8074 172.948C78.1707 168.408 70.9254 162.677 64.7194 162.606L59.7128 157.892C58.5155 156.741 57.1386 156.886 56.0409 156.817L56.04 156.82Z" fill="#3D9945"/>
<path d="M63.35 214.801C57.6537 211.591 48.989 212.218 43.646 219.855C49.1084 219.497 54.796 218.944 58.118 222.31C59.1447 223.267 64.5542 215.957 63.35 214.801Z" fill="url(#paint13_radial_3093_8425)"/>
<path d="M63.35 214.801C57.6537 211.591 48.989 212.218 43.646 219.855C49.1084 219.497 54.796 218.944 58.118 222.31C59.1447 223.267 64.5542 215.957 63.35 214.801Z" stroke="#D1670C" stroke-width="0.75" stroke-linecap="round" stroke-linejoin="round"/>
<path d="M58.7 229.38C49.8123 227.514 42.547 234.776 41.052 241.086C45.6771 238.872 56.42 237.353 60.938 238.968C62.4454 238.272 61.0902 230.059 58.7 229.38Z" fill="url(#paint14_radial_3093_8425)"/>
<path d="M58.7 229.38C49.8123 227.514 42.547 234.776 41.052 241.086C45.6771 238.872 56.42 237.353 60.938 238.968C62.4454 238.272 61.0902 230.059 58.7 229.38Z" stroke="#D1670C" stroke-width="0.75" stroke-linecap="round" stroke-linejoin="round"/>
<path d="M122.73 220.94C130.398 227.843 131.717 234.326 131.141 240.097C128.66 235.9 124.725 232.276 119.321 229.883C117.468 228.917 120.704 219.939 122.73 220.94Z" fill="url(#paint15_radial_3093_8425)"/>
<path d="M122.73 220.94C130.398 227.843 131.717 234.326 131.141 240.097C128.66 235.9 124.725 232.276 119.321 229.883C117.468 228.917 120.704 219.939 122.73 220.94Z" stroke="#D1670C" stroke-width="0.75" stroke-linecap="round" stroke-linejoin="round"/>
<path d="M63.7402 247.6C56.8457 255.219 58.5749 263.407 60.927 270.18C64.2592 262.795 66.5999 261.208 70.4346 257.851C71.1797 256.536 65.3417 246.947 63.7402 247.599V247.6Z" fill="url(#paint16_radial_3093_8425)"/>
<path d="M63.7402 247.6C56.8457 255.219 58.5749 263.407 60.927 270.18C64.2592 262.795 66.5999 261.208 70.4346 257.851C71.1797 256.536 65.3417 246.947 63.7402 247.599V247.6Z" fill="url(#paint17_radial_3093_8425)"/>
<path d="M63.7402 247.6C56.8457 255.219 58.5749 263.407 60.927 270.18C64.2592 262.795 66.5999 261.208 70.4346 257.851C71.1797 256.536 65.3417 246.947 63.7402 247.599V247.6Z" stroke="#D1670C" stroke-width="0.75" stroke-linecap="round" stroke-linejoin="round"/>
<path d="M122.73 220.94C130.398 227.843 131.717 234.326 131.141 240.097C128.66 235.9 124.725 232.276 119.321 229.883C117.468 228.917 120.704 219.939 122.73 220.94Z" fill="url(#paint18_radial_3093_8425)"/>
<path d="M603.55 183.43C608.838 180.63 613.725 179.977 618.398 182.35C624.94 185.673 627.49 192.823 621.336 199.912C617.74 204.053 605.79 201.145 608.867 193.131C606.522 195.741 603.536 198.661 600.242 201.506C598.798 207.667 598.134 216.429 605.148 226.287C602.338 212.157 604.877 207.929 605.804 209.475C607.042 211.539 609.56 223.763 615.366 226.319C613.221 217.357 612.892 209.945 613.46 210.725C615.315 213.271 619.402 223.809 630.616 225.881C618.953 215.15 619.299 208.151 621.335 209.412C623.659 210.852 626.944 219.924 646.991 217.443C630.127 214.562 624.845 205.88 627.803 206.849C637.129 209.903 641.898 211.216 657.365 206.974C634.242 205.941 629.757 200.509 632.303 200.193C635.145 199.84 653.93 200.756 661.803 189.662C636.781 196.983 630.509 194.041 634.334 192.475C639.012 190.559 650.247 188.559 657.49 169.725C639.711 185.806 631.314 188.732 631.865 186.381C632.363 184.258 644.683 179.321 643.99 163.506C635.644 178.129 626.433 183.673 627.99 180.006C629.279 176.972 636.966 169.353 633.74 160.225C626.686 176.115 623.06 178.19 622.709 176.663C622.331 175.016 624.62 169.617 622.147 162.007C618.58 174.204 612.667 179.312 611.335 177.195C610.366 175.657 613.75 171.25 611.678 166.289C609.03 172.499 606.697 177.492 605.56 179.468C605.554 179.472 603.549 183.43 603.549 183.43L603.55 183.43Z" fill="#3D9945"/>
<path d="M603.55 183.43C608.838 180.63 613.725 179.977 618.398 182.35C624.94 185.673 627.49 192.823 621.336 199.912C617.74 204.053 605.79 201.145 608.867 193.131C606.522 195.741 603.536 198.661 600.242 201.506C598.798 207.667 598.134 216.429 605.148 226.287C602.338 212.157 604.877 207.929 605.804 209.475C607.042 211.539 609.56 223.763 615.366 226.319C613.221 217.357 612.892 209.945 613.46 210.725C615.315 213.271 619.402 223.809 630.616 225.881C618.953 215.15 619.299 208.151 621.335 209.412C623.659 210.852 626.944 219.924 646.991 217.443C630.127 214.562 624.845 205.88 627.803 206.849C637.129 209.903 641.898 211.216 657.365 206.974C634.242 205.941 629.757 200.509 632.303 200.193C635.145 199.84 653.93 200.756 661.803 189.662C636.781 196.983 630.509 194.041 634.334 192.475C639.012 190.559 650.247 188.559 657.49 169.725C639.711 185.806 631.314 188.732 631.865 186.381C632.363 184.258 644.683 179.321 643.99 163.506C635.644 178.129 626.433 183.673 627.99 180.006C629.279 176.972 636.966 169.353 633.74 160.225C626.686 176.115 623.06 178.19 622.709 176.663C622.331 175.016 624.62 169.617 622.147 162.007C618.58 174.204 612.667 179.312 611.335 177.195C610.366 175.657 613.75 171.25 611.678 166.289C609.03 172.499 606.697 177.492 605.56 179.468C605.554 179.472 603.549 183.43 603.549 183.43L603.55 183.43Z" fill="url(#paint19_radial_3093_8425)"/>
<path d="M603.55 183.43C608.838 180.63 613.725 179.977 618.398 182.35C624.94 185.673 627.49 192.823 621.336 199.912C617.74 204.053 605.79 201.145 608.867 193.131C606.522 195.741 603.536 198.661 600.242 201.506C598.798 207.667 598.134 216.429 605.148 226.287C602.338 212.157 604.877 207.929 605.804 209.475C607.042 211.539 609.56 223.763 615.366 226.319C613.221 217.357 612.892 209.945 613.46 210.725C615.315 213.271 619.402 223.809 630.616 225.881C618.953 215.15 619.299 208.151 621.335 209.412C623.659 210.852 626.944 219.924 646.991 217.443C630.127 214.562 624.845 205.88 627.803 206.849C637.129 209.903 641.898 211.216 657.365 206.974C634.242 205.941 629.757 200.509 632.303 200.193C635.145 199.84 653.93 200.756 661.803 189.662C636.781 196.983 630.509 194.041 634.334 192.475C639.012 190.559 650.247 188.559 657.49 169.725C639.711 185.806 631.314 188.732 631.865 186.381C632.363 184.258 644.683 179.321 643.99 163.506C635.644 178.129 626.433 183.673 627.99 180.006C629.279 176.972 636.966 169.353 633.74 160.225C626.686 176.115 623.06 178.19 622.709 176.663C622.331 175.016 624.62 169.617 622.147 162.007C618.58 174.204 612.667 179.312 611.335 177.195C610.366 175.657 613.75 171.25 611.678 166.289C609.03 172.499 606.697 177.492 605.56 179.468C605.554 179.472 603.549 183.43 603.549 183.43L603.55 183.43Z" stroke="#095916" stroke-width="0.75" stroke-linecap="round" stroke-linejoin="round"/>
<path d="M94.8701 30.2499C94.5531 30.7417 94.2089 31.214 93.8701 31.6874C93.6918 31.9365 93.5237 32.1932 93.3388 32.4374C93.2756 32.5208 93.2153 32.6045 93.1513 32.6874C92.8813 33.0373 92.5926 33.3784 92.3076 33.7186C92.1614 33.8932 92.0204 34.0777 91.8701 34.2498C91.425 34.7593 90.948 35.2611 90.4639 35.7498C90.4005 35.8137 90.3405 35.8738 90.2764 35.9373C89.9128 36.2985 89.5387 36.6493 89.1514 36.9998C88.9409 37.1898 88.7442 37.3754 88.5264 37.5623C88.4367 37.6396 88.3361 37.7043 88.2451 37.7811C87.6999 38.2413 87.1512 38.6818 86.5576 39.1249C85.8777 39.6323 85.1503 40.138 84.4014 40.6249C83.6655 41.1034 82.8972 41.5705 82.0889 42.0311C82.076 42.0381 82.0706 42.0551 82.0577 42.0623C82.0376 42.0737 82.0153 42.0821 81.9952 42.0935C81.1813 42.555 80.3253 42.9916 79.4327 43.4373C78.5262 43.8899 77.5826 44.3426 76.5889 44.7811C75.8708 45.0979 75.1365 45.4082 74.3701 45.7186C74.3084 45.7436 74.2447 45.7562 74.1826 45.7811C73.5725 46.0265 72.9493 46.2892 72.3076 46.5311C71.5678 46.81 70.841 47.0688 70.0576 47.3436C69.7643 47.4466 69.4823 47.5535 69.1826 47.6561C68.2572 47.9727 67.3259 48.2813 66.3388 48.5936C63.9453 49.3509 61.4781 50.1576 58.995 51.0311C56.5119 51.9046 54.0134 52.8484 51.495 53.8436C47.7176 55.3374 43.9185 56.9658 40.214 58.7498C36.5089 60.5326 32.8827 62.4706 29.4331 64.5623C24.8338 67.3529 20.5437 70.4024 16.777 73.7811C15.8353 74.6257 14.9311 75.4917 14.0582 76.3749C13.1853 77.2581 12.3553 78.1713 11.5582 79.0937C11.2554 79.444 10.946 79.8237 10.652 80.2187C10.064 81.0087 9.51339 81.8913 8.96449 82.8437C6.76829 86.6527 4.89369 91.6509 3.52699 97.1877C3.18553 98.5723 2.86623 99.9994 2.58949 101.438C1.89704 105.032 1.4151 108.746 1.1833 112.438C1.18265 112.448 1.18395 112.459 1.1833 112.469C1.1379 113.197 1.11509 113.932 1.08959 114.656C1.03779 116.125 1.02469 117.596 1.05839 119.031C1.12539 121.902 1.3695 124.674 1.80839 127.281C2.13756 129.237 2.59355 131.122 3.15219 132.844C3.46692 133.814 3.82282 134.716 4.21469 135.594C4.28329 135.747 4.33115 135.912 4.40219 136.063C4.52922 136.332 4.67359 136.585 4.80844 136.844C4.92741 137.072 5.02708 137.312 5.15219 137.531C5.15919 137.543 5.17669 137.551 5.18339 137.563C5.44545 138.021 5.73786 138.486 6.02714 138.906C6.63385 139.788 7.39904 140.666 8.33964 141.531C8.34564 141.536 8.36523 141.526 8.37083 141.531C8.51403 141.663 8.6581 141.807 8.80833 141.938C9.64089 142.662 10.59 143.375 11.6208 144.063C12.437 144.607 13.291 145.115 14.2146 145.625C14.227 145.632 14.2334 145.65 14.2458 145.656C15.1587 146.16 16.1179 146.633 17.1208 147.094C17.1335 147.1 17.1395 147.119 17.1521 147.125C17.6483 147.352 18.1676 147.566 18.6832 147.781C18.6959 147.786 18.7019 147.807 18.7145 147.812C19.7599 148.248 20.8507 148.653 21.9645 149.031C23.5458 149.569 25.1866 150.038 26.8706 150.437C26.9867 150.465 27.0979 150.504 27.2144 150.531C27.2244 150.533 27.2359 150.529 27.2456 150.531C27.838 150.667 28.4569 150.79 29.0581 150.906C30.2081 151.129 31.354 151.323 32.5269 151.469C32.6007 151.478 32.6717 151.491 32.7456 151.5C32.7558 151.501 32.7667 151.499 32.7768 151.5C33.3905 151.573 34.0035 151.637 34.6206 151.687C34.631 151.688 34.6416 151.687 34.6518 151.687C34.6826 151.689 34.7149 151.685 34.7456 151.687C35.9598 151.783 37.185 151.844 38.4017 151.844C40.2885 151.844 42.175 151.726 44.0267 151.469C47.1221 151.039 50.1236 150.239 52.9329 148.969C54.0449 148.466 55.1415 147.87 56.1829 147.219C67.7869 139.96 130.611 77.7786 148.839 61.1246C150.053 60.0156 151.082 59.1113 151.87 58.4371C156.598 54.3946 164.448 47.8331 174.151 41.1871C175.77 40.0787 177.466 38.9769 179.182 37.8746C182.609 35.6743 186.216 33.4793 189.963 31.4371C192.78 29.9029 195.698 28.4499 198.651 27.0933C205.531 23.9317 212.731 21.3559 219.995 19.8433C224.151 18.9797 228.34 18.4516 232.495 18.3745C233.533 18.3552 234.577 18.3534 235.62 18.3745C236.663 18.3956 237.698 18.4392 238.745 18.4995C240.848 18.6201 242.949 18.821 245.057 19.0933C246.106 19.2287 247.134 19.3908 248.182 19.562C252.385 20.2475 256.551 21.189 260.682 22.4058C262.743 23.0126 264.782 23.6804 266.807 24.4058C270.869 25.859 274.828 27.5304 278.682 29.4058C279.644 29.8736 280.581 30.3522 281.526 30.8433C281.97 31.0737 282.399 31.3268 282.839 31.5621C283.338 31.8294 283.845 32.1011 284.339 32.3746C284.347 32.3786 284.362 32.3706 284.37 32.3746C285.289 32.8839 286.189 33.407 287.089 33.9371C288.004 34.4762 288.913 35.0026 289.807 35.5621C291.582 36.6715 293.312 37.8167 294.995 38.9996C295.837 39.591 296.647 40.204 297.464 40.8121C297.471 40.8171 297.488 40.8071 297.495 40.8121C298.305 41.4154 299.086 42.0373 299.87 42.6559C304.62 46.4025 308.871 50.3971 312.495 54.5619C313.701 55.9484 314.842 57.3659 315.901 58.7807C316.431 59.4881 316.942 60.1929 317.432 60.9057C318.413 62.3312 319.383 63.7799 320.339 65.2495C327.029 75.5365 333.131 86.7465 339.089 96.6245C340.791 99.4467 342.494 102.165 344.182 104.718C345.871 107.271 347.55 109.664 349.245 111.843C350.516 113.478 351.804 115.002 353.089 116.374C355.23 118.662 357.377 120.54 359.589 121.937C360.031 122.216 360.486 122.475 360.964 122.718C361.449 122.966 361.944 123.194 362.464 123.406C362.975 123.614 363.484 123.794 364.026 123.968C367.278 125.017 371.086 125.445 375.245 125.406C375.939 125.399 376.658 125.377 377.37 125.343C380.218 125.21 383.202 124.886 386.276 124.374C387.814 124.119 389.391 123.806 390.964 123.468C394.109 122.794 397.298 121.978 400.495 121.031C402.094 120.557 403.686 120.06 405.276 119.531C408.444 118.477 411.605 117.315 414.651 116.093C414.664 116.088 414.67 116.067 414.682 116.062C416.211 115.449 417.706 114.829 419.182 114.187C420.672 113.539 422.105 112.887 423.526 112.218C424.935 111.556 426.293 110.892 427.62 110.218C430.938 108.533 434.726 107.275 438.839 106.406C442.952 105.536 447.39 105.07 451.995 105C455.68 104.943 459.451 105.118 463.276 105.562C463.286 105.563 463.297 105.561 463.307 105.562C465.209 105.783 467.118 106.094 469.026 106.437C469.036 106.439 469.047 106.435 469.057 106.437C471.925 106.955 474.792 107.615 477.62 108.406C479.511 108.935 481.396 109.506 483.245 110.156C493.414 113.73 502.796 119.13 509.776 126.25C528.003 144.843 539.29 171.882 546.682 184.344C547.535 185.782 548.334 187.017 549.088 188.031C549.093 188.037 549.083 188.056 549.088 188.063C549.334 188.393 549.602 188.689 549.838 188.969C549.843 188.975 549.833 188.994 549.838 189C550.314 189.563 550.775 190.032 551.213 190.375C551.655 190.722 552.165 191.078 552.713 191.437C553.803 192.153 555.093 192.883 556.525 193.594C557.254 193.955 558.008 194.31 558.807 194.656C561.962 196.024 565.608 197.229 569.338 197.969C575.864 199.263 582.662 199.129 587.526 195.937C588.22 195.482 588.884 194.961 589.494 194.375C590.677 193.24 591.82 192.173 592.963 191.156C596.673 187.856 601.515 184.556 603.205 183.661" stroke="#095916" stroke-width="0.75" stroke-linecap="round" stroke-linejoin="round"/>
<path d="M360.74 173.12C353.124 162.87 353.362 139.509 356.694 134.503C360.026 129.497 368.356 113.049 367.88 103.275C367.404 93.5018 368.118 76.5774 361.216 68.2334C371.926 79.9144 380.256 98.9844 373.354 120.2C381.208 105.659 379.304 87.7804 375.734 80.3914C383.826 93.2634 388.348 108.758 378.828 128.782C385.016 116.148 387.252 102.949 387.535 94.5204C391.017 105.981 389.538 130.927 380.494 141.893C395.012 124.015 394.315 111.787 394.077 105.828C397.647 124.422 392.632 145.946 383.112 151.19C373.592 156.435 361.692 154.528 360.74 173.121V173.12Z" fill="#EA3A3A"/>
<path d="M32.11 182.93C23.8397 173.2 22.5491 149.873 25.5466 144.66C28.544 139.447 35.7806 122.489 34.6661 112.768C33.5518 103.047 33.1573 86.1113 25.7241 78.2373C37.1751 89.1923 46.7351 107.677 41.2351 129.298C48.1212 114.274 45.0519 96.5593 41.0061 89.4183C49.9228 101.734 55.4492 116.899 47.2589 137.503C52.6072 124.491 53.9748 111.174 53.7066 102.745C57.9301 113.954 58.0864 138.943 49.7789 150.477C63.0969 131.687 61.6009 119.532 60.9739 113.601C65.7525 131.921 62.156 153.727 52.9995 159.583C43.8428 165.439 31.844 164.315 32.11 182.93Z" fill="#EA3A3A"/>
<path d="M386.33 148.63C385.332 149.682 384.243 150.538 383.111 151.161C373.619 156.39 361.748 154.551 360.736 172.973C363.658 179.367 372.915 185.533 380.236 189.504C388.314 193.887 402.029 205.72 404.048 208.754C406.067 211.788 408.159 220.863 407.486 223.223C402.437 221.538 398.668 207.703 390.267 206.692C390.087 206.654 389.92 206.595 389.736 206.567C389.804 206.713 389.86 206.861 389.892 207.036C389.895 207.051 389.893 207.076 389.892 207.098C389.891 207.11 389.892 207.121 389.892 207.13C389.933 207.229 389.961 207.337 389.954 207.473C389.948 207.589 389.928 207.711 389.892 207.848C389.889 207.86 389.895 207.868 389.892 207.88C389.866 207.973 389.836 208.059 389.798 208.161C389.772 208.235 389.737 208.301 389.704 208.38C389.653 208.499 389.612 208.627 389.548 208.755C389.516 208.819 389.489 208.876 389.454 208.942C389.376 209.088 389.297 209.227 389.204 209.38C389.129 209.507 389.038 209.624 388.954 209.755C388.893 209.85 388.833 209.94 388.767 210.036C388.511 210.414 388.223 210.785 387.923 211.161C387.866 211.232 387.825 211.309 387.767 211.38C387.729 211.426 387.68 211.459 387.642 211.505C387.313 211.9 386.978 212.286 386.642 212.63C386.311 212.969 385.978 213.286 385.673 213.536C385.647 213.557 385.605 213.578 385.58 213.598C385.408 213.735 385.264 213.846 385.111 213.942C384.955 214.04 384.803 214.112 384.673 214.161C384.485 214.232 384.322 214.274 384.205 214.223C384.196 214.219 384.182 214.228 384.173 214.223C384.043 214.229 383.9 214.207 383.736 214.192C383.918 214.446 384.15 214.681 384.423 214.911C387.789 216.259 395.678 221.901 397.361 224.598C391.976 220.216 386.048 220.136 383.892 220.098C383.612 220.199 383.361 220.368 383.142 220.567C383.555 220.772 383.948 220.973 384.174 221.161C384.211 221.171 384.239 221.183 384.267 221.192C384.414 221.244 384.539 221.335 384.673 221.442C385.88 222.404 386.586 225.426 386.642 227.817C386.649 228.082 386.652 228.322 386.642 228.567C386.642 228.577 386.643 228.588 386.642 228.598C386.601 229.564 386.422 230.353 386.111 230.723C386.029 230.826 385.964 230.902 385.861 230.942C385.792 231.028 385.683 231.159 385.549 231.286C385.89 231.507 386.25 231.669 386.611 231.692C391.323 231.692 398.392 230.344 402.767 231.692C390.987 234.052 389.967 235.077 387.611 238.786C387.455 239.031 387.35 239.306 387.267 239.598C387.714 239.625 388.047 239.657 388.142 239.692C388.145 239.693 388.17 239.691 388.173 239.692C388.191 239.691 388.218 239.692 388.236 239.692C388.321 239.696 388.419 239.742 388.517 239.786C388.527 239.79 388.538 239.781 388.548 239.786C388.644 239.831 388.724 239.895 388.83 239.973C388.875 240.007 388.907 240.028 388.955 240.067C389.069 240.162 389.175 240.252 389.298 240.379C389.343 240.425 389.378 240.455 389.423 240.504C389.554 240.646 389.692 240.803 389.83 240.973C389.872 241.025 389.912 241.075 389.955 241.129C390.271 241.536 390.595 241.991 390.923 242.504C390.959 242.559 390.982 242.605 391.017 242.661C391.356 243.198 391.696 243.789 392.017 244.379C392.035 244.413 392.061 244.439 392.08 244.473C392.41 245.086 392.708 245.715 392.986 246.317C392.995 246.337 393.008 246.359 393.017 246.379C393.297 246.99 393.545 247.567 393.736 248.098C393.831 248.365 393.921 248.616 393.986 248.848C393.989 248.857 393.984 248.871 393.986 248.879C394.047 249.1 394.113 249.324 394.142 249.504C394.144 249.513 394.141 249.527 394.142 249.536C394.169 249.711 394.181 249.875 394.173 250.004C394.173 250.022 394.174 250.05 394.173 250.067C394.161 250.171 394.121 250.254 394.08 250.317C394.072 250.334 394.09 250.365 394.08 250.379C394.06 250.395 394.037 250.396 394.017 250.411C393.984 250.546 393.955 250.706 393.892 250.911C393.933 250.912 393.98 250.911 394.017 250.911C400.749 248.214 401.233 247.697 403.83 244.598C405.763 242.29 409.192 244.011 416.33 241.161C419.697 239.816 425.726 233.162 430.486 229.349C436.198 225.058 439.507 223.684 444.267 226.067C444.354 226.111 444.43 226.155 444.517 226.192C444.442 225.884 444.389 225.627 444.36 225.411C444.083 224.915 444.163 223.991 444.423 222.942C444.502 222.607 444.586 222.265 444.704 221.911C444.737 221.816 444.794 221.725 444.829 221.63C444.971 221.231 445.12 220.835 445.298 220.442C445.419 220.182 445.541 219.941 445.673 219.692C445.785 219.475 445.897 219.27 446.017 219.067C446.041 219.027 446.055 218.982 446.079 218.942C446.19 218.759 446.309 218.608 446.423 218.442C446.459 218.39 446.48 218.336 446.517 218.286C446.616 218.147 446.728 218.033 446.829 217.911C446.884 217.844 446.93 217.785 446.985 217.724C447.072 217.627 447.149 217.556 447.235 217.474C447.302 217.409 447.356 217.341 447.423 217.286C447.497 217.225 447.568 217.178 447.642 217.13C447.768 217.048 447.896 216.981 448.017 216.942C448.112 216.909 448.207 216.884 448.298 216.88C448.331 216.879 448.359 216.876 448.391 216.88C448.553 216.844 448.757 216.838 448.985 216.817C448.848 216.634 448.708 216.455 448.548 216.286C444.026 211.519 438.363 210.559 434.079 212.942C429.795 215.326 430.002 222.209 424.766 219.349C419.53 216.488 415.696 204.103 416.172 194.568C416.649 185.032 414.317 171.179 410.985 166.412C407.653 161.644 400.798 155.451 394.61 154.974L389.922 149.942C388.803 148.715 387.42 148.77 386.329 148.63L386.33 148.63Z" fill="url(#paint20_radial_3093_8425)"/>
<path d="M56.04 156.82C55.1132 157.934 54.0824 158.86 52.9937 159.556C43.8634 165.395 31.8977 164.336 32.0937 182.785C35.4275 188.974 45.0687 194.521 52.6337 198.005C60.9812 201.85 75.4407 212.761 77.6547 215.656C79.8683 218.552 82.5487 227.47 82.0313 229.869C76.8831 228.517 72.2175 214.959 63.7683 214.499C63.5859 214.472 63.4158 214.425 63.23 214.409C63.3076 214.55 63.3735 214.694 63.4166 214.867C63.4206 214.881 63.4196 214.906 63.4206 214.929C63.4209 214.94 63.4216 214.952 63.4226 214.96C63.47 215.057 63.5053 215.162 63.5075 215.299C63.5095 215.415 63.4969 215.538 63.4697 215.677C63.4677 215.689 63.4737 215.697 63.4717 215.708C63.4521 215.804 63.428 215.891 63.3966 215.995C63.375 216.071 63.345 216.139 63.3174 216.22C63.2743 216.342 63.2418 216.473 63.186 216.604C63.1585 216.67 63.1352 216.729 63.1048 216.797C63.0362 216.948 62.9659 217.091 62.8839 217.25C62.8169 217.382 62.7343 217.505 62.659 217.641C62.6035 217.74 62.5495 217.833 62.4903 217.934C62.2595 218.328 61.9961 218.716 61.722 219.111C61.6696 219.187 61.6338 219.266 61.5803 219.34C61.5456 219.389 61.4989 219.424 61.4638 219.473C61.1612 219.889 60.852 220.296 60.5395 220.661C60.2311 221.021 59.9195 221.359 59.6321 221.629C59.6072 221.651 59.5671 221.675 59.5427 221.697C59.3805 221.845 59.2439 221.964 59.0975 222.071C58.9486 222.179 58.8018 222.26 58.6752 222.318C58.4924 222.401 58.3325 222.453 58.2115 222.411C58.2025 222.408 58.1892 222.417 58.1804 222.413C58.0509 222.427 57.9071 222.415 57.7418 222.41C57.9398 222.651 58.1873 222.871 58.4749 223.082C61.9217 224.207 70.1629 229.321 72.0179 231.902C66.3574 227.881 60.4369 228.189 58.2839 228.293C58.0107 228.411 57.7715 228.597 57.5662 228.81C57.9914 228.987 58.3968 229.162 58.6341 229.335C58.6726 229.342 58.701 229.352 58.7295 229.36C58.8789 229.402 59.0105 229.485 59.1513 229.583C60.4183 230.464 61.3203 233.433 61.5328 235.815C61.5571 236.079 61.5758 236.318 61.5819 236.564C61.5822 236.574 61.5839 236.585 61.5839 236.595C61.6064 237.561 61.4788 238.36 61.1928 238.75C61.1173 238.858 61.0577 238.938 60.9576 238.985C60.8946 239.075 60.7942 239.212 60.6683 239.348C61.0238 239.546 61.393 239.685 61.7551 239.684C66.4573 239.376 73.4221 237.568 77.8771 238.627C66.2761 241.753 65.3261 242.843 63.2171 246.697C63.0776 246.952 62.9902 247.233 62.9272 247.53C63.3746 247.528 63.7089 247.538 63.8065 247.567C63.8095 247.567 63.8345 247.564 63.8376 247.565C63.8546 247.563 63.8823 247.562 63.9 247.561C63.9854 247.559 64.0859 247.598 64.1867 247.636C64.1971 247.639 64.2072 247.63 64.2178 247.634C64.3159 247.673 64.4005 247.731 64.5107 247.802C64.5586 247.833 64.5915 247.852 64.6416 247.888C64.7623 247.975 64.8736 248.058 65.0051 248.177C65.0524 248.219 65.0895 248.247 65.138 248.294C65.2776 248.426 65.4259 248.574 65.574 248.735C65.6194 248.784 65.6629 248.831 65.709 248.882C66.0514 249.267 66.404 249.7 66.7656 250.191C66.8045 250.244 66.8304 250.287 66.8693 250.341C67.2426 250.855 67.6208 251.423 67.9796 251.991C68.0001 252.023 68.0277 252.048 68.0481 252.08C68.4177 252.669 68.7564 253.278 69.073 253.86C69.0833 253.88 69.0976 253.901 69.1082 253.921C69.4272 254.512 69.7125 255.071 69.9378 255.589C70.0499 255.849 70.1562 256.093 70.2364 256.321C70.2404 256.33 70.2358 256.343 70.2383 256.352C70.3134 256.568 70.3939 256.787 70.4351 256.965C70.4381 256.974 70.4356 256.988 70.4372 256.997C70.4754 257.169 70.4979 257.333 70.499 257.462C70.4999 257.48 70.503 257.508 70.503 257.525C70.497 257.629 70.463 257.714 70.4257 257.78C70.4187 257.797 70.4388 257.827 70.4297 257.843C70.4109 257.859 70.3881 257.862 70.3694 257.878C70.3452 258.016 70.3267 258.177 70.2774 258.385C70.3179 258.383 70.3652 258.379 70.4022 258.377C76.9432 255.245 77.393 254.698 79.7808 251.436C81.5591 249.007 85.0937 250.499 92.0288 247.188C95.3009 245.626 100.882 238.592 105.382 234.475C110.801 229.82 114.013 228.232 118.919 230.3C119.009 230.338 119.088 230.377 119.176 230.408C119.082 230.106 119.012 229.852 118.969 229.639C118.66 229.162 118.679 228.234 118.87 227.171C118.928 226.831 118.989 226.485 119.083 226.124C119.11 226.027 119.161 225.932 119.19 225.835C119.306 225.427 119.428 225.023 119.58 224.619C119.683 224.351 119.789 224.103 119.905 223.846C120.003 223.622 120.101 223.41 120.207 223.2C120.228 223.159 120.24 223.112 120.261 223.071C120.36 222.881 120.469 222.723 120.572 222.55C120.604 222.496 120.622 222.44 120.655 222.388C120.745 222.243 120.85 222.122 120.942 221.993C120.993 221.923 121.035 221.861 121.086 221.796C121.166 221.694 121.239 221.618 121.319 221.53C121.382 221.461 121.431 221.39 121.494 221.331C121.564 221.265 121.632 221.213 121.702 221.161C121.822 221.071 121.946 220.995 122.064 220.949C122.157 220.909 122.25 220.878 122.34 220.868C122.373 220.865 122.402 220.86 122.434 220.862C122.593 220.815 122.796 220.797 123.022 220.761C122.873 220.587 122.722 220.418 122.551 220.259C117.727 215.798 112.014 215.21 107.895 217.869C103.776 220.528 104.434 227.383 99.0215 224.871C93.6095 222.359 88.9735 210.251 88.8255 200.705C88.6769 191.159 85.4441 177.488 81.8074 172.948C78.1707 168.408 70.9254 162.677 64.7194 162.606L59.7128 157.892C58.5155 156.741 57.1386 156.886 56.0409 156.817L56.04 156.82Z" fill="url(#paint21_radial_3093_8425)"/>
<path d="M386.33 148.63C385.332 149.682 384.243 150.538 383.111 151.161C373.619 156.39 361.748 154.551 360.736 172.973C363.658 179.367 372.915 185.533 380.236 189.504C388.314 193.887 402.029 205.72 404.048 208.754C406.067 211.788 408.159 220.863 407.486 223.223C402.437 221.538 398.668 207.703 390.267 206.692C390.087 206.654 389.92 206.595 389.736 206.567C389.804 206.713 389.86 206.861 389.892 207.036C389.895 207.051 389.893 207.076 389.892 207.098C389.891 207.11 389.892 207.121 389.892 207.13C389.933 207.229 389.961 207.337 389.954 207.473C389.948 207.589 389.928 207.711 389.892 207.848C389.889 207.86 389.895 207.868 389.892 207.88C389.866 207.973 389.836 208.059 389.798 208.161C389.772 208.235 389.737 208.301 389.704 208.38C389.653 208.499 389.612 208.627 389.548 208.755C389.516 208.819 389.489 208.876 389.454 208.942C389.376 209.088 389.297 209.227 389.204 209.38C389.129 209.507 389.038 209.624 388.954 209.755C388.893 209.85 388.833 209.94 388.767 210.036C388.511 210.414 388.223 210.785 387.923 211.161C387.866 211.232 387.825 211.309 387.767 211.38C387.729 211.426 387.68 211.459 387.642 211.505C387.313 211.9 386.978 212.286 386.642 212.63C386.311 212.969 385.978 213.286 385.673 213.536C385.647 213.557 385.605 213.578 385.58 213.598C385.408 213.735 385.264 213.846 385.111 213.942C384.955 214.04 384.803 214.112 384.673 214.161C384.485 214.232 384.322 214.274 384.205 214.223C384.196 214.219 384.182 214.228 384.173 214.223C384.043 214.229 383.9 214.207 383.736 214.192C383.918 214.446 384.15 214.681 384.423 214.911C387.789 216.259 395.678 221.901 397.361 224.598C391.976 220.216 386.048 220.136 383.892 220.098C383.612 220.199 383.361 220.368 383.142 220.567C383.555 220.772 383.948 220.973 384.174 221.161C384.211 221.171 384.239 221.183 384.267 221.192C384.414 221.244 384.539 221.335 384.673 221.442C385.88 222.404 386.586 225.426 386.642 227.817C386.649 228.082 386.652 228.322 386.642 228.567C386.642 228.577 386.643 228.588 386.642 228.598C386.601 229.564 386.422 230.353 386.111 230.723C386.029 230.826 385.964 230.902 385.861 230.942C385.792 231.028 385.683 231.159 385.549 231.286C385.89 231.507 386.25 231.669 386.611 231.692C391.323 231.692 398.392 230.344 402.767 231.692C390.987 234.052 389.967 235.077 387.611 238.786C387.455 239.031 387.35 239.306 387.267 239.598C387.714 239.625 388.047 239.657 388.142 239.692C388.145 239.693 388.17 239.691 388.173 239.692C388.191 239.691 388.218 239.692 388.236 239.692C388.321 239.696 388.419 239.742 388.517 239.786C388.527 239.79 388.538 239.781 388.548 239.786C388.644 239.831 388.724 239.895 388.83 239.973C388.875 240.007 388.907 240.028 388.955 240.067C389.069 240.162 389.175 240.252 389.298 240.379C389.343 240.425 389.378 240.455 389.423 240.504C389.554 240.646 389.692 240.803 389.83 240.973C389.872 241.025 389.912 241.075 389.955 241.129C390.271 241.536 390.595 241.991 390.923 242.504C390.959 242.559 390.982 242.605 391.017 242.661C391.356 243.198 391.696 243.789 392.017 244.379C392.035 244.413 392.061 244.439 392.08 244.473C392.41 245.086 392.708 245.715 392.986 246.317C392.995 246.337 393.008 246.359 393.017 246.379C393.297 246.99 393.545 247.567 393.736 248.098C393.831 248.365 393.921 248.616 393.986 248.848C393.989 248.857 393.984 248.871 393.986 248.879C394.047 249.1 394.113 249.324 394.142 249.504C394.144 249.513 394.141 249.527 394.142 249.536C394.169 249.711 394.181 249.875 394.173 250.004C394.173 250.022 394.174 250.05 394.173 250.067C394.161 250.171 394.121 250.254 394.08 250.317C394.072 250.334 394.09 250.365 394.08 250.379C394.06 250.395 394.037 250.396 394.017 250.411C393.984 250.546 393.955 250.706 393.892 250.911C393.933 250.912 393.98 250.911 394.017 250.911C400.749 248.214 401.233 247.697 403.83 244.598C405.763 242.29 409.192 244.011 416.33 241.161C419.697 239.816 425.726 233.162 430.486 229.349C436.198 225.058 439.507 223.684 444.267 226.067C444.354 226.111 444.43 226.155 444.517 226.192C444.442 225.884 444.389 225.627 444.36 225.411C444.083 224.915 444.163 223.991 444.423 222.942C444.502 222.607 444.586 222.265 444.704 221.911C444.737 221.816 444.794 221.725 444.829 221.63C444.971 221.231 445.12 220.835 445.298 220.442C445.419 220.182 445.541 219.941 445.673 219.692C445.785 219.475 445.897 219.27 446.017 219.067C446.041 219.027 446.055 218.982 446.079 218.942C446.19 218.759 446.309 218.608 446.423 218.442C446.459 218.39 446.48 218.336 446.517 218.286C446.616 218.147 446.728 218.033 446.829 217.911C446.884 217.844 446.93 217.785 446.985 217.724C447.072 217.627 447.149 217.556 447.235 217.474C447.302 217.409 447.356 217.341 447.423 217.286C447.497 217.225 447.568 217.178 447.642 217.13C447.768 217.048 447.896 216.981 448.017 216.942C448.112 216.909 448.207 216.884 448.298 216.88C448.331 216.879 448.359 216.876 448.391 216.88C448.553 216.844 448.757 216.838 448.985 216.817C448.848 216.634 448.708 216.455 448.548 216.286C444.026 211.519 438.363 210.559 434.079 212.942C429.795 215.326 430.002 222.209 424.766 219.349C419.53 216.488 415.696 204.103 416.172 194.568C416.649 185.032 414.317 171.179 410.985 166.412C407.653 161.644 400.798 155.451 394.61 154.974L389.922 149.942C388.803 148.715 387.42 148.77 386.329 148.63L386.33 148.63Z" stroke="#095916" stroke-width="0.75" stroke-linecap="round" stroke-linejoin="round"/>
<path d="M56.04 156.82C55.1132 157.934 54.0824 158.86 52.9937 159.556C43.8634 165.395 31.8977 164.336 32.0937 182.785C35.4275 188.974 45.0687 194.521 52.6337 198.005C60.9812 201.85 75.4407 212.761 77.6547 215.656C79.8683 218.552 82.5487 227.47 82.0313 229.869C76.8831 228.517 72.2175 214.959 63.7683 214.499C63.5859 214.472 63.4158 214.425 63.23 214.409C63.3076 214.55 63.3735 214.694 63.4166 214.867C63.4206 214.881 63.4196 214.906 63.4206 214.929C63.4209 214.94 63.4216 214.952 63.4226 214.96C63.47 215.057 63.5053 215.162 63.5075 215.299C63.5095 215.415 63.4969 215.538 63.4697 215.677C63.4677 215.689 63.4737 215.697 63.4717 215.708C63.4521 215.804 63.428 215.891 63.3966 215.995C63.375 216.071 63.345 216.139 63.3174 216.22C63.2743 216.342 63.2418 216.473 63.186 216.604C63.1585 216.67 63.1352 216.729 63.1048 216.797C63.0362 216.948 62.9659 217.091 62.8839 217.25C62.8169 217.382 62.7343 217.505 62.659 217.641C62.6035 217.74 62.5495 217.833 62.4903 217.934C62.2595 218.328 61.9961 218.716 61.722 219.111C61.6696 219.187 61.6338 219.266 61.5803 219.34C61.5456 219.389 61.4989 219.424 61.4638 219.473C61.1612 219.889 60.852 220.296 60.5395 220.661C60.2311 221.021 59.9195 221.359 59.6321 221.629C59.6072 221.651 59.5671 221.675 59.5427 221.697C59.3805 221.845 59.2439 221.964 59.0975 222.071C58.9486 222.179 58.8018 222.26 58.6752 222.318C58.4924 222.401 58.3325 222.453 58.2115 222.411C58.2025 222.408 58.1892 222.417 58.1804 222.413C58.0509 222.427 57.9071 222.415 57.7418 222.41C57.9398 222.651 58.1873 222.871 58.4749 223.082C61.9217 224.207 70.1629 229.321 72.0179 231.902C66.3574 227.881 60.4369 228.189 58.2839 228.293C58.0107 228.411 57.7715 228.597 57.5662 228.81C57.9914 228.987 58.3968 229.162 58.6341 229.335C58.6726 229.342 58.701 229.352 58.7295 229.36C58.8789 229.402 59.0105 229.485 59.1513 229.583C60.4183 230.464 61.3203 233.433 61.5328 235.815C61.5571 236.079 61.5758 236.318 61.5819 236.564C61.5822 236.574 61.5839 236.585 61.5839 236.595C61.6064 237.561 61.4788 238.36 61.1928 238.75C61.1173 238.858 61.0577 238.938 60.9576 238.985C60.8946 239.075 60.7942 239.212 60.6683 239.348C61.0238 239.546 61.393 239.685 61.7551 239.684C66.4573 239.376 73.4221 237.568 77.8771 238.627C66.2761 241.753 65.3261 242.843 63.2171 246.697C63.0776 246.952 62.9902 247.233 62.9272 247.53C63.3746 247.528 63.7089 247.538 63.8065 247.567C63.8095 247.567 63.8345 247.564 63.8376 247.565C63.8546 247.563 63.8823 247.562 63.9 247.561C63.9854 247.559 64.0859 247.598 64.1867 247.636C64.1971 247.639 64.2072 247.63 64.2178 247.634C64.3159 247.673 64.4005 247.731 64.5107 247.802C64.5586 247.833 64.5915 247.852 64.6416 247.888C64.7623 247.975 64.8736 248.058 65.0051 248.177C65.0524 248.219 65.0895 248.247 65.138 248.294C65.2776 248.426 65.4259 248.574 65.574 248.735C65.6194 248.784 65.6629 248.831 65.709 248.882C66.0514 249.267 66.404 249.7 66.7656 250.191C66.8045 250.244 66.8304 250.287 66.8693 250.341C67.2426 250.855 67.6208 251.423 67.9796 251.991C68.0001 252.023 68.0277 252.048 68.0481 252.08C68.4177 252.669 68.7564 253.278 69.073 253.86C69.0833 253.88 69.0976 253.901 69.1082 253.921C69.4272 254.512 69.7125 255.071 69.9378 255.589C70.0499 255.849 70.1562 256.093 70.2364 256.321C70.2404 256.33 70.2358 256.343 70.2383 256.352C70.3134 256.568 70.3939 256.787 70.4351 256.965C70.4381 256.974 70.4356 256.988 70.4372 256.997C70.4754 257.169 70.4979 257.333 70.499 257.462C70.4999 257.48 70.503 257.508 70.503 257.525C70.497 257.629 70.463 257.714 70.4257 257.78C70.4187 257.797 70.4388 257.827 70.4297 257.843C70.4109 257.859 70.3881 257.862 70.3694 257.878C70.3452 258.016 70.3267 258.177 70.2774 258.385C70.3179 258.383 70.3652 258.379 70.4022 258.377C76.9432 255.245 77.393 254.698 79.7808 251.436C81.5591 249.007 85.0937 250.499 92.0288 247.188C95.3009 245.626 100.882 238.592 105.382 234.475C110.801 229.82 114.013 228.232 118.919 230.3C119.009 230.338 119.088 230.377 119.176 230.408C119.082 230.106 119.012 229.852 118.969 229.639C118.66 229.162 118.679 228.234 118.87 227.171C118.928 226.831 118.989 226.485 119.083 226.124C119.11 226.027 119.161 225.932 119.19 225.835C119.306 225.427 119.428 225.023 119.58 224.619C119.683 224.351 119.789 224.103 119.905 223.846C120.003 223.622 120.101 223.41 120.207 223.2C120.228 223.159 120.24 223.112 120.261 223.071C120.36 222.881 120.469 222.723 120.572 222.55C120.604 222.496 120.622 222.44 120.655 222.388C120.745 222.243 120.85 222.122 120.942 221.993C120.993 221.923 121.035 221.861 121.086 221.796C121.166 221.694 121.239 221.618 121.319 221.53C121.382 221.461 121.431 221.39 121.494 221.331C121.564 221.265 121.632 221.213 121.702 221.161C121.822 221.071 121.946 220.995 122.064 220.949C122.157 220.909 122.25 220.878 122.34 220.868C122.373 220.865 122.402 220.86 122.434 220.862C122.593 220.815 122.796 220.797 123.022 220.761C122.873 220.587 122.722 220.418 122.551 220.259C117.727 215.798 112.014 215.21 107.895 217.869C103.776 220.528 104.434 227.383 99.0215 224.871C93.6095 222.359 88.9735 210.251 88.8255 200.705C88.6769 191.159 85.4441 177.488 81.8074 172.948C78.1707 168.408 70.9254 162.677 64.7194 162.606L59.7128 157.892C58.5155 156.741 57.1386 156.886 56.0409 156.817L56.04 156.82Z" stroke="#095916" stroke-width="0.75" stroke-linecap="round" stroke-linejoin="round"/>
<path d="M32.11 182.93C23.8397 173.2 22.5491 149.873 25.5466 144.66C28.544 139.447 35.7806 122.489 34.6661 112.768C33.5518 103.047 33.1573 86.1113 25.7241 78.2373C37.1751 89.1923 46.7351 107.677 41.2351 129.298C48.1212 114.274 45.0519 96.5593 41.0061 89.4183C49.9228 101.734 55.4492 116.899 47.2589 137.503C52.6072 124.491 53.9748 111.174 53.7066 102.745C57.9301 113.954 58.0864 138.943 49.7789 150.477C63.0969 131.687 61.6009 119.532 60.9739 113.601C65.7525 131.921 62.156 153.727 52.9995 159.583C43.8428 165.439 31.844 164.315 32.11 182.93Z" fill="url(#paint22_radial_3093_8425)"/>
<path d="M360.74 173.12C353.124 162.87 353.362 139.509 356.694 134.503C360.026 129.497 368.356 113.049 367.88 103.275C367.404 93.5018 368.118 76.5774 361.216 68.2334C371.926 79.9144 380.256 98.9844 373.354 120.2C381.208 105.659 379.304 87.7804 375.734 80.3914C383.826 93.2634 388.348 108.758 378.828 128.782C385.016 116.148 387.252 102.949 387.535 94.5204C391.017 105.981 389.538 130.927 380.494 141.893C395.012 124.015 394.315 111.787 394.077 105.828C397.647 124.422 392.632 145.946 383.112 151.19C373.592 156.435 361.692 154.528 360.74 173.121V173.12Z" fill="url(#paint23_radial_3093_8425)"/>
<path d="M360.74 173.12C353.124 162.87 353.362 139.509 356.694 134.503C360.026 129.497 368.356 113.049 367.88 103.275C367.404 93.5018 368.118 76.5774 361.216 68.2334C371.926 79.9144 380.256 98.9844 373.354 120.2C381.208 105.659 379.304 87.7804 375.734 80.3914C383.826 93.2634 388.348 108.758 378.828 128.782C385.016 116.148 387.252 102.949 387.535 94.5204C391.017 105.981 389.538 130.927 380.494 141.893C395.012 124.015 394.315 111.787 394.077 105.828C397.647 124.422 392.632 145.946 383.112 151.19C373.592 156.435 361.692 154.528 360.74 173.121V173.12Z" stroke="#800E0E" stroke-width="0.75" stroke-linecap="round" stroke-linejoin="round"/>
<path d="M32.11 182.93C23.8397 173.2 22.5491 149.873 25.5466 144.66C28.544 139.447 35.7806 122.489 34.6661 112.768C33.5518 103.047 33.1573 86.1113 25.7241 78.2373C37.1751 89.1923 46.7351 107.677 41.2351 129.298C48.1212 114.274 45.0519 96.5593 41.0061 89.4183C49.9228 101.734 55.4492 116.899 47.2589 137.503C52.6072 124.491 53.9748 111.174 53.7066 102.745C57.9301 113.954 58.0864 138.943 49.7789 150.477C63.0969 131.687 61.6009 119.532 60.9739 113.601C65.7525 131.921 62.156 153.727 52.9995 159.583C43.8428 165.439 31.844 164.315 32.11 182.93Z" stroke="#800E0E" stroke-width="0.75" stroke-linecap="round" stroke-linejoin="round"/>
<defs>
<radialGradient id="paint0_radial_3093_8425" cx="0" cy="0" r="1" gradientUnits="userSpaceOnUse" gradientTransform="translate(61.8305 90.6135) rotate(59.6467) scale(35.3981 72.5003)">
<stop stop-color="#B2A123"/>
<stop offset="0.29197" stop-color="#E0CC39" stop-opacity="0.74902"/>
<stop offset="0.7644" stop-color="#E8D447" stop-opacity="0.3"/>
<stop offset="1" stop-color="#D1AB29"/>
</radialGradient>
<radialGradient id="paint1_radial_3093_8425" cx="0" cy="0" r="1" gradientUnits="userSpaceOnUse" gradientTransform="translate(178.535 55.9782) rotate(-5.47296) scale(237.847 78.7969)">
<stop stop-color="#B2A123"/>
<stop offset="0.29197" stop-color="#E0CC39" stop-opacity="0.74902"/>
<stop offset="0.7644" stop-color="#E8D447" stop-opacity="0.3"/>
<stop offset="1" stop-color="#D1AB29"/>
</radialGradient>
<radialGradient id="paint2_radial_3093_8425" cx="0" cy="0" r="1" gradientUnits="userSpaceOnUse" gradientTransform="translate(486.315 119.273) rotate(33.9252) scale(88.6896 55.9609)">
<stop stop-color="#B2A123"/>
<stop offset="0.37481" stop-color="#E0CC39" stop-opacity="0.74902"/>
<stop offset="0.55162" stop-color="#E8D447" stop-opacity="0.3"/>
<stop offset="1" stop-color="#D1AB29"/>
</radialGradient>
<radialGradient id="paint3_radial_3093_8425" cx="0" cy="0" r="1" gradientUnits="userSpaceOnUse" gradientTransform="translate(378.726 230.82) rotate(-20.3774) scale(21.8305 5.51881)">
<stop stop-color="#D1670C"/>
<stop offset="1" stop-color="#D1670C" stop-opacity="0"/>
</radialGradient>
<radialGradient id="paint4_radial_3093_8425" cx="0" cy="0" r="1" gradientUnits="userSpaceOnUse" gradientTransform="translate(381.88 213.149) rotate(-8.29767) scale(15.0751 5.83287)">
<stop stop-color="#D1670C"/>
<stop offset="1" stop-color="#D1670C" stop-opacity="0"/>
</radialGradient>
<radialGradient id="paint5_radial_3093_8425" cx="0" cy="0" r="1" gradientUnits="userSpaceOnUse" gradientTransform="translate(377.16 204.234) rotate(-3.29816) scale(16.3588 5.25028)">
<stop stop-color="#FFE97C"/>
<stop offset="1" stop-color="#FFE97C" stop-opacity="0"/>
</radialGradient>
<radialGradient id="paint6_radial_3093_8425" cx="0" cy="0" r="1" gradientUnits="userSpaceOnUse" gradientTransform="translate(373.357 222.264) rotate(-14.0725) scale(15.9945 5.51878)">
<stop stop-color="#FFE97C"/>
<stop offset="1" stop-color="#FFE97C" stop-opacity="0"/>
</radialGradient>
<radialGradient id="paint7_radial_3093_8425" cx="0" cy="0" r="1" gradientUnits="userSpaceOnUse" gradientTransform="translate(452.74 227.16) rotate(-9.88886) scale(4.94934 17.1637)">
<stop stop-color="#FFE97C"/>
<stop offset="1" stop-color="#FFE97C" stop-opacity="0"/>
</radialGradient>
<radialGradient id="paint8_radial_3093_8425" cx="0" cy="0" r="1" gradientUnits="userSpaceOnUse" gradientTransform="translate(392.174 248.198) rotate(-0.961909) scale(7.87418 13.2823)">
<stop stop-color="#D1670C"/>
<stop offset="1" stop-color="#D1670C" stop-opacity="0"/>
</radialGradient>
<radialGradient id="paint9_radial_3093_8425" cx="0" cy="0" r="1" gradientUnits="userSpaceOnUse" gradientTransform="translate(381.023 249.753) rotate(21.8849) scale(6.66758 12.2445)">
<stop stop-color="#FFE97C"/>
<stop offset="1" stop-color="#FFE97C" stop-opacity="0"/>
</radialGradient>
<radialGradient id="paint10_radial_3093_8425" cx="0" cy="0" r="1" gradientUnits="userSpaceOnUse" gradientTransform="translate(446.979 232.387) rotate(-12.8643) scale(7.18254 21.6209)">
<stop stop-color="#D1670C"/>
<stop offset="1" stop-color="#D1670C" stop-opacity="0"/>
</radialGradient>
<radialGradient id="paint11_radial_3093_8425" cx="0" cy="0" r="1" gradientUnits="userSpaceOnUse" gradientTransform="translate(53.7802 239.335) rotate(-24.1279) scale(21.8303 5.51887)">
<stop stop-color="#D1670C"/>
<stop offset="1" stop-color="#D1670C" stop-opacity="0"/>
</radialGradient>
<radialGradient id="paint12_radial_3093_8425" cx="0" cy="0" r="1" gradientUnits="userSpaceOnUse" gradientTransform="translate(55.7622 221.491) rotate(-12.0487) scale(15.0742 5.83283)">
<stop stop-color="#D1670C"/>
<stop offset="1" stop-color="#D1670C" stop-opacity="0"/>
</radialGradient>
<radialGradient id="paint13_radial_3093_8425" cx="0" cy="0" r="1" gradientUnits="userSpaceOnUse" gradientTransform="translate(50.5202 212.903) rotate(-7.04882) scale(16.3587 5.25024)">
<stop stop-color="#FFE97C"/>
<stop offset="1" stop-color="#FFE97C" stop-opacity="0"/>
</radialGradient>
<radialGradient id="paint14_radial_3093_8425" cx="0" cy="0" r="1" gradientUnits="userSpaceOnUse" gradientTransform="translate(47.9003 231.142) rotate(-17.8231) scale(15.9944 5.51881)">
<stop stop-color="#FFE97C"/>
<stop offset="1" stop-color="#FFE97C" stop-opacity="0"/>
</radialGradient>
<radialGradient id="paint15_radial_3093_8425" cx="0" cy="0" r="1" gradientUnits="userSpaceOnUse" gradientTransform="translate(127.449 230.818) rotate(-13.6395) scale(4.9494 17.1636)">
<stop stop-color="#FFE97C"/>
<stop offset="1" stop-color="#FFE97C" stop-opacity="0"/>
</radialGradient>
<radialGradient id="paint16_radial_3093_8425" cx="0" cy="0" r="1" gradientUnits="userSpaceOnUse" gradientTransform="translate(68.395 255.833) rotate(-4.71242) scale(7.87426 13.2827)">
<stop stop-color="#D1670C"/>
<stop offset="1" stop-color="#D1670C" stop-opacity="0"/>
</radialGradient>
<radialGradient id="paint17_radial_3093_8425" cx="0" cy="0" r="1" gradientUnits="userSpaceOnUse" gradientTransform="translate(57.315 258.074) rotate(18.1353) scale(6.66725 12.2446)">
<stop stop-color="#FFE97C"/>
<stop offset="1" stop-color="#FFE97C" stop-opacity="0"/>
</radialGradient>
<radialGradient id="paint18_radial_3093_8425" cx="0" cy="0" r="1" gradientUnits="userSpaceOnUse" gradientTransform="translate(122.035 236.389) rotate(-16.6151) scale(7.18254 21.6208)">
<stop stop-color="#D1670C"/>
<stop offset="1" stop-color="#D1670C" stop-opacity="0"/>
</radialGradient>
<radialGradient id="paint19_radial_3093_8425" cx="0" cy="0" r="1" gradientUnits="userSpaceOnUse" gradientTransform="translate(625.261 186.433) rotate(14.4486) scale(37.6413 26.8462)">
<stop stop-color="#189924"/>
<stop offset="0.49776" stop-color="#65DE84" stop-opacity="0.50196"/>
<stop offset="0.58887" stop-color="#65DE84" stop-opacity="0.5"/>
<stop offset="1" stop-color="#189924"/>
</radialGradient>
<radialGradient id="paint20_radial_3093_8425" cx="0" cy="0" r="1" gradientUnits="userSpaceOnUse" gradientTransform="translate(394.363 212.264) rotate(-34.37) scale(29.2278 51.1407)">
<stop stop-color="#189924"/>
<stop offset="0.49776" stop-color="#65DE84" stop-opacity="0.50196"/>
<stop offset="0.58887" stop-color="#65DE84" stop-opacity="0.5"/>
<stop offset="1" stop-color="#189924"/>
</radialGradient>
<radialGradient id="paint21_radial_3093_8425" cx="0" cy="0" r="1" gradientUnits="userSpaceOnUse" gradientTransform="translate(80.5506 247.589) rotate(-35.2897) scale(34.5888 108.878)">
<stop stop-color="#189924"/>
<stop offset="0.49776" stop-color="#65DE84" stop-opacity="0.50196"/>
<stop offset="0.58887" stop-color="#65DE84" stop-opacity="0.5"/>
<stop offset="1" stop-color="#189924"/>
</radialGradient>
<radialGradient id="paint22_radial_3093_8425" cx="0" cy="0" r="1" gradientUnits="userSpaceOnUse" gradientTransform="translate(22.3615 176.521) rotate(-4.69212) scale(30.7853 100.387)">
<stop stop-color="#A81212"/>
<stop offset="0.31266" stop-color="#BC2F2F" stop-opacity="0.58"/>
<stop offset="0.58568" stop-color="#C73200" stop-opacity="0.25"/>
<stop offset="1" stop-color="#A81212"/>
</radialGradient>
<radialGradient id="paint23_radial_3093_8425" cx="0" cy="0" r="1" gradientUnits="userSpaceOnUse" gradientTransform="translate(351.848 139.398) rotate(-13.302) scale(30.2129 70.4596)">
<stop stop-color="#A81212"/>
<stop offset="0.31266" stop-color="#BC2F2F" stop-opacity="0.58"/>
<stop offset="0.58568" stop-color="#C73200" stop-opacity="0.25"/>
<stop offset="1" stop-color="#A81212"/>
</radialGradient>
</defs>
</svg>
