<svg width="111" height="99" viewBox="0 0 111 99" fill="none" xmlns="http://www.w3.org/2000/svg">
<g clip-path="url(#clip0_3096_8718)">
<path d="M61.3335 19.5H70.6668" stroke="white" stroke-width="2" stroke-linecap="round" stroke-linejoin="round"/>
<path d="M61.3335 24.167H68.3335" stroke="white" stroke-width="2" stroke-linecap="round" stroke-linejoin="round"/>
<path d="M62.5 30.0003H59C58.0717 30.0003 57.1815 29.6316 56.5251 28.9752C55.8687 28.3188 55.5 27.4286 55.5 26.5003V17.167C55.5 16.2387 55.8687 15.3485 56.5251 14.6921C57.1815 14.0357 58.0717 13.667 59 13.667H73C73.9283 13.667 74.8185 14.0357 75.4749 14.6921C76.1313 15.3485 76.5 16.2387 76.5 17.167V26.5003C76.5 27.4286 76.1313 28.3188 75.4749 28.9752C74.8185 29.6316 73.9283 30.0003 73 30.0003H69.5L66 33.5003L62.5 30.0003Z" stroke="white" stroke-width="2" stroke-linecap="round" stroke-linejoin="round"/>
</g>
<g clip-path="url(#clip1_3096_8718)">
<path d="M47.6665 55.6663C47.6665 56.5504 48.0177 57.3982 48.6428 58.0234C49.2679 58.6485 50.1158 58.9997 50.9998 58.9997C51.8839 58.9997 52.7317 58.6485 53.3569 58.0234C53.982 57.3982 54.3332 56.5504 54.3332 55.6663C54.3332 54.7823 53.982 53.9344 53.3569 53.3093C52.7317 52.6842 51.8839 52.333 50.9998 52.333C50.1158 52.333 49.2679 52.6842 48.6428 53.3093C48.0177 53.9344 47.6665 54.7823 47.6665 55.6663Z" stroke="white" stroke-width="2" stroke-linecap="round" stroke-linejoin="round"/>
<path d="M44.3335 69V67.3333C44.3335 66.4493 44.6847 65.6014 45.3098 64.9763C45.9349 64.3512 46.7828 64 47.6668 64H54.3335C55.2176 64 56.0654 64.3512 56.6905 64.9763C57.3156 65.6014 57.6668 66.4493 57.6668 67.3333V69" stroke="white" stroke-width="2" stroke-linecap="round" stroke-linejoin="round"/>
<path d="M56 42.3333C56 43.2174 56.3512 44.0652 56.9763 44.6904C57.6014 45.3155 58.4493 45.6667 59.3333 45.6667C60.2174 45.6667 61.0652 45.3155 61.6904 44.6904C62.3155 44.0652 62.6667 43.2174 62.6667 42.3333C62.6667 41.4493 62.3155 40.6014 61.6904 39.9763C61.0652 39.3512 60.2174 39 59.3333 39C58.4493 39 57.6014 39.3512 56.9763 39.9763C56.3512 40.6014 56 41.4493 56 42.3333Z" stroke="white" stroke-width="2" stroke-linecap="round" stroke-linejoin="round"/>
<path d="M59.3335 50.667H62.6668C63.5509 50.667 64.3987 51.0182 65.0239 51.6433C65.649 52.2684 66.0002 53.1163 66.0002 54.0003V55.667" stroke="white" stroke-width="2" stroke-linecap="round" stroke-linejoin="round"/>
<path d="M39.3335 42.3333C39.3335 43.2174 39.6847 44.0652 40.3098 44.6904C40.9349 45.3155 41.7828 45.6667 42.6668 45.6667C43.5509 45.6667 44.3987 45.3155 45.0239 44.6904C45.649 44.0652 46.0002 43.2174 46.0002 42.3333C46.0002 41.4493 45.649 40.6014 45.0239 39.9763C44.3987 39.3512 43.5509 39 42.6668 39C41.7828 39 40.9349 39.3512 40.3098 39.9763C39.6847 40.6014 39.3335 41.4493 39.3335 42.3333Z" stroke="white" stroke-width="2" stroke-linecap="round" stroke-linejoin="round"/>
<path d="M36 55.667V54.0003C36 53.1163 36.3512 52.2684 36.9763 51.6433C37.6014 51.0182 38.4493 50.667 39.3333 50.667H42.6667" stroke="white" stroke-width="2" stroke-linecap="round" stroke-linejoin="round"/>
</g>
<g clip-path="url(#clip2_3096_8718)">
<path d="M24.6665 32.6663C24.6665 33.5504 25.0177 34.3982 25.6428 35.0234C26.2679 35.6485 27.1158 35.9997 27.9998 35.9997C28.8839 35.9997 29.7317 35.6485 30.3569 35.0234C30.982 34.3982 31.3332 33.5504 31.3332 32.6663C31.3332 31.7823 30.982 30.9344 30.3569 30.3093C29.7317 29.6842 28.8839 29.333 27.9998 29.333C27.1158 29.333 26.2679 29.6842 25.6428 30.3093C25.0177 30.9344 24.6665 31.7823 24.6665 32.6663Z" stroke="white" stroke-width="2" stroke-linecap="round" stroke-linejoin="round"/>
<path d="M21.3335 46V44.3333C21.3335 43.4493 21.6847 42.6014 22.3098 41.9763C22.9349 41.3512 23.7828 41 24.6668 41H31.3335C32.2176 41 33.0654 41.3512 33.6905 41.9763C34.3156 42.6014 34.6668 43.4493 34.6668 44.3333V46" stroke="white" stroke-width="2" stroke-linecap="round" stroke-linejoin="round"/>
<path d="M33 19.3333C33 20.2174 33.3512 21.0652 33.9763 21.6904C34.6014 22.3155 35.4493 22.6667 36.3333 22.6667C37.2174 22.6667 38.0652 22.3155 38.6904 21.6904C39.3155 21.0652 39.6667 20.2174 39.6667 19.3333C39.6667 18.4493 39.3155 17.6014 38.6904 16.9763C38.0652 16.3512 37.2174 16 36.3333 16C35.4493 16 34.6014 16.3512 33.9763 16.9763C33.3512 17.6014 33 18.4493 33 19.3333Z" stroke="white" stroke-width="2" stroke-linecap="round" stroke-linejoin="round"/>
<path d="M36.3335 27.667H39.6668C40.5509 27.667 41.3987 28.0182 42.0239 28.6433C42.649 29.2684 43.0002 30.1163 43.0002 31.0003V32.667" stroke="white" stroke-width="2" stroke-linecap="round" stroke-linejoin="round"/>
<path d="M16.3335 19.3333C16.3335 20.2174 16.6847 21.0652 17.3098 21.6904C17.9349 22.3155 18.7828 22.6667 19.6668 22.6667C20.5509 22.6667 21.3987 22.3155 22.0239 21.6904C22.649 21.0652 23.0002 20.2174 23.0002 19.3333C23.0002 18.4493 22.649 17.6014 22.0239 16.9763C21.3987 16.3512 20.5509 16 19.6668 16C18.7828 16 17.9349 16.3512 17.3098 16.9763C16.6847 17.6014 16.3335 18.4493 16.3335 19.3333Z" stroke="white" stroke-width="2" stroke-linecap="round" stroke-linejoin="round"/>
<path d="M13 32.667V31.0003C13 30.1163 13.3512 29.2684 13.9763 28.6433C14.6014 28.0182 15.4493 27.667 16.3333 27.667H19.6667" stroke="white" stroke-width="2" stroke-linecap="round" stroke-linejoin="round"/>
</g>
<g clip-path="url(#clip3_3096_8718)">
<path d="M76.6665 72.6663C76.6665 73.5504 77.0177 74.3982 77.6428 75.0234C78.2679 75.6485 79.1158 75.9997 79.9998 75.9997C80.8839 75.9997 81.7317 75.6485 82.3569 75.0234C82.982 74.3982 83.3332 73.5504 83.3332 72.6663C83.3332 71.7823 82.982 70.9344 82.3569 70.3093C81.7317 69.6842 80.8839 69.333 79.9998 69.333C79.1158 69.333 78.2679 69.6842 77.6428 70.3093C77.0177 70.9344 76.6665 71.7823 76.6665 72.6663Z" stroke="white" stroke-width="2" stroke-linecap="round" stroke-linejoin="round"/>
<path d="M73.3335 86V84.3333C73.3335 83.4493 73.6847 82.6014 74.3098 81.9763C74.9349 81.3512 75.7828 81 76.6668 81H83.3335C84.2176 81 85.0654 81.3512 85.6905 81.9763C86.3156 82.6014 86.6668 83.4493 86.6668 84.3333V86" stroke="white" stroke-width="2" stroke-linecap="round" stroke-linejoin="round"/>
<path d="M85 59.3333C85 60.2174 85.3512 61.0652 85.9763 61.6904C86.6014 62.3155 87.4493 62.6667 88.3333 62.6667C89.2174 62.6667 90.0652 62.3155 90.6904 61.6904C91.3155 61.0652 91.6667 60.2174 91.6667 59.3333C91.6667 58.4493 91.3155 57.6014 90.6904 56.9763C90.0652 56.3512 89.2174 56 88.3333 56C87.4493 56 86.6014 56.3512 85.9763 56.9763C85.3512 57.6014 85 58.4493 85 59.3333Z" stroke="white" stroke-width="2" stroke-linecap="round" stroke-linejoin="round"/>
<path d="M88.3335 67.667H91.6668C92.5509 67.667 93.3987 68.0182 94.0239 68.6433C94.649 69.2684 95.0002 70.1163 95.0002 71.0003V72.667" stroke="white" stroke-width="2" stroke-linecap="round" stroke-linejoin="round"/>
<path d="M68.3335 59.3333C68.3335 60.2174 68.6847 61.0652 69.3098 61.6904C69.9349 62.3155 70.7828 62.6667 71.6668 62.6667C72.5509 62.6667 73.3987 62.3155 74.0239 61.6904C74.649 61.0652 75.0002 60.2174 75.0002 59.3333C75.0002 58.4493 74.649 57.6014 74.0239 56.9763C73.3987 56.3512 72.5509 56 71.6668 56C70.7828 56 69.9349 56.3512 69.3098 56.9763C68.6847 57.6014 68.3335 58.4493 68.3335 59.3333Z" stroke="white" stroke-width="2" stroke-linecap="round" stroke-linejoin="round"/>
<path d="M65 72.667V71.0003C65 70.1163 65.3512 69.2684 65.9763 68.6433C66.6014 68.0182 67.4493 67.667 68.3333 67.667H71.6667" stroke="white" stroke-width="2" stroke-linecap="round" stroke-linejoin="round"/>
</g>
<defs>
<clipPath id="clip0_3096_8718">
<rect width="28" height="28" fill="white" transform="translate(52 9)"/>
</clipPath>
<clipPath id="clip1_3096_8718">
<rect width="40" height="40" fill="white" transform="translate(31 34)"/>
</clipPath>
<clipPath id="clip2_3096_8718">
<rect width="40" height="40" fill="white" transform="translate(8 11)"/>
</clipPath>
<clipPath id="clip3_3096_8718">
<rect width="40" height="40" fill="white" transform="translate(60 51)"/>
</clipPath>
</defs>
</svg>
