<svg width="435" height="124" viewBox="0 0 435 124" fill="none" xmlns="http://www.w3.org/2000/svg">
<rect x="4" y="40" width="408" height="17" rx="5" fill="#242424" fill-opacity="0.57"/>
<rect x="168" y="65" width="133" height="17" rx="5" fill="#242424" fill-opacity="0.57"/>
<rect x="301" y="102" width="133" height="17" rx="5" fill="#242424" fill-opacity="0.57"/>
<path d="M358.584 50V45.0603H359.253V50H358.584ZM359.039 50V49.3879H361.687V50H359.039ZM362.404 50V46.6191H363.045V50H362.404ZM362.724 45.9429C362.606 45.9429 362.509 45.9049 362.433 45.829C362.357 45.7483 362.319 45.6487 362.319 45.53C362.319 45.4161 362.357 45.3212 362.433 45.2453C362.509 45.1646 362.606 45.1243 362.724 45.1243C362.843 45.1243 362.94 45.1646 363.016 45.2453C363.092 45.3212 363.13 45.4161 363.13 45.53C363.13 45.6487 363.092 45.7483 363.016 45.829C362.94 45.9049 362.843 45.9429 362.724 45.9429ZM366.38 50V48.0284C366.38 47.7721 366.3 47.561 366.138 47.3949C365.977 47.2288 365.768 47.1458 365.512 47.1458C365.341 47.1458 365.189 47.1837 365.057 47.2597C364.924 47.3356 364.819 47.44 364.743 47.5728C364.667 47.7057 364.629 47.8575 364.629 48.0284L364.366 47.8789C364.366 47.6227 364.423 47.3949 364.537 47.1956C364.651 46.9963 364.81 46.8397 365.014 46.7258C365.218 46.6072 365.448 46.5479 365.704 46.5479C365.96 46.5479 366.186 46.6119 366.38 46.7401C366.58 46.8682 366.736 47.0366 366.85 47.2454C366.964 47.4495 367.021 47.6677 367.021 47.9003V50H366.38ZM363.989 50V46.6191H364.629V50H363.989ZM369.454 50.0712C369.117 50.0712 368.814 49.9953 368.543 49.8434C368.273 49.6868 368.059 49.4757 367.903 49.2099C367.746 48.9442 367.668 48.6429 367.668 48.306C367.668 47.9738 367.744 47.6749 367.895 47.4091C368.052 47.1434 368.261 46.9346 368.522 46.7828C368.788 46.6262 369.084 46.5479 369.412 46.5479C369.725 46.5479 370 46.6191 370.237 46.7614C370.479 46.9038 370.667 47.1007 370.8 47.3522C370.937 47.6037 371.006 47.8884 371.006 48.2063C371.006 48.2538 371.004 48.306 370.999 48.3629C370.994 48.4151 370.985 48.4768 370.97 48.548H368.116V48.0141H370.629L370.394 48.2206C370.394 47.9928 370.353 47.8006 370.273 47.644C370.192 47.4827 370.078 47.3593 369.931 47.2739C369.784 47.1837 369.606 47.1386 369.397 47.1386C369.179 47.1386 368.987 47.1861 368.821 47.281C368.655 47.3759 368.527 47.5088 368.436 47.6796C368.346 47.8504 368.301 48.0521 368.301 48.2846C368.301 48.5219 368.349 48.7307 368.444 48.911C368.538 49.0866 368.674 49.2242 368.849 49.3238C369.025 49.4187 369.226 49.4662 369.454 49.4662C369.644 49.4662 369.817 49.4329 369.974 49.3665C370.135 49.3001 370.273 49.2004 370.387 49.0676L370.8 49.4875C370.638 49.6773 370.439 49.8221 370.202 49.9217C369.969 50.0214 369.72 50.0712 369.454 50.0712ZM373.142 50.0712C372.834 50.0712 372.554 49.9953 372.302 49.8434C372.051 49.6868 371.852 49.4757 371.704 49.2099C371.562 48.9442 371.491 48.6452 371.491 48.3131C371.491 47.9809 371.562 47.682 371.704 47.4162C371.852 47.1505 372.048 46.9394 372.295 46.7828C372.547 46.6262 372.829 46.5479 373.142 46.5479C373.398 46.5479 373.626 46.6024 373.826 46.7116C374.03 46.816 374.193 46.9631 374.317 47.1529C374.44 47.3379 374.509 47.5539 374.523 47.8006V48.8184C374.509 49.0605 374.44 49.2764 374.317 49.4662C374.198 49.656 374.037 49.8054 373.833 49.9146C373.633 50.019 373.403 50.0712 373.142 50.0712ZM373.249 49.4662C373.567 49.4662 373.823 49.3594 374.018 49.1459C374.212 48.9276 374.31 48.65 374.31 48.3131C374.31 48.0806 374.264 47.8789 374.174 47.7081C374.089 47.5325 373.965 47.3973 373.804 47.3024C373.643 47.2027 373.455 47.1529 373.242 47.1529C373.028 47.1529 372.839 47.2027 372.672 47.3024C372.511 47.402 372.383 47.5396 372.288 47.7152C372.198 47.886 372.153 48.0829 372.153 48.306C372.153 48.5337 372.198 48.7354 372.288 48.911C372.383 49.0818 372.513 49.217 372.68 49.3167C372.846 49.4163 373.035 49.4662 373.249 49.4662ZM374.267 50V49.0889L374.388 48.2633L374.267 47.4447V46.6191H374.915V50H374.267ZM375.847 50V46.6191H376.488V50H375.847ZM376.488 48.0711L376.246 47.9643C376.246 47.5325 376.345 47.1885 376.545 46.9322C376.744 46.676 377.031 46.5479 377.406 46.5479C377.577 46.5479 377.731 46.5787 377.869 46.6404C378.006 46.6973 378.134 46.7946 378.253 46.9322L377.833 47.3664C377.762 47.2905 377.684 47.2359 377.598 47.2027C377.513 47.1695 377.413 47.1529 377.299 47.1529C377.062 47.1529 376.867 47.2288 376.716 47.3807C376.564 47.5325 376.488 47.7626 376.488 48.0711ZM381.747 50.0712C381.439 50.0712 381.159 49.9953 380.908 49.8434C380.656 49.6868 380.457 49.4757 380.31 49.2099C380.167 48.9442 380.096 48.6452 380.096 48.3131C380.096 47.9809 380.167 47.682 380.31 47.4162C380.457 47.1505 380.654 46.9394 380.9 46.7828C381.152 46.6262 381.434 46.5479 381.747 46.5479C382.004 46.5479 382.232 46.6024 382.431 46.7116C382.635 46.816 382.799 46.9631 382.922 47.1529C383.045 47.3379 383.114 47.5539 383.128 47.8006V48.8184C383.114 49.0605 383.045 49.2764 382.922 49.4662C382.803 49.656 382.642 49.8054 382.438 49.9146C382.239 50.019 382.008 50.0712 381.747 50.0712ZM381.854 49.4662C382.172 49.4662 382.428 49.3594 382.623 49.1459C382.818 48.9276 382.915 48.65 382.915 48.3131C382.915 48.0806 382.87 47.8789 382.78 47.7081C382.694 47.5325 382.571 47.3973 382.409 47.3024C382.248 47.2027 382.061 47.1529 381.847 47.1529C381.634 47.1529 381.444 47.2027 381.278 47.3024C381.116 47.402 380.988 47.5396 380.893 47.7152C380.803 47.886 380.758 48.0829 380.758 48.306C380.758 48.5337 380.803 48.7354 380.893 48.911C380.988 49.0818 381.119 49.217 381.285 49.3167C381.451 49.4163 381.641 49.4662 381.854 49.4662ZM382.872 50V49.0889L382.993 48.2633L382.872 47.4447V46.6191H383.52V50H382.872ZM384.452 50V44.9179H385.093V50H384.452ZM387.433 51.4876C387.086 51.4876 386.778 51.4236 386.507 51.2954C386.242 51.1673 386.028 50.987 385.867 50.7545L386.279 50.3345C386.417 50.5101 386.581 50.643 386.771 50.7331C386.96 50.828 387.186 50.8755 387.447 50.8755C387.793 50.8755 388.066 50.783 388.265 50.5979C388.469 50.4176 388.571 50.1732 388.571 49.8648V49.0249L388.685 48.2633L388.571 47.5088V46.6191H389.212V49.8648C389.212 50.1874 389.136 50.4698 388.984 50.7118C388.837 50.9538 388.628 51.1436 388.358 51.2812C388.092 51.4188 387.784 51.4876 387.433 51.4876ZM387.433 49.9431C387.124 49.9431 386.847 49.8695 386.6 49.7224C386.358 49.5753 386.166 49.3736 386.023 49.1174C385.881 48.8564 385.81 48.5646 385.81 48.2419C385.81 47.9192 385.881 47.6321 386.023 47.3807C386.166 47.1244 386.358 46.9227 386.6 46.7756C386.847 46.6238 387.124 46.5479 387.433 46.5479C387.698 46.5479 387.933 46.6001 388.137 46.7045C388.341 46.8089 388.503 46.956 388.621 47.1458C388.745 47.3308 388.811 47.5491 388.821 47.8006V48.6974C388.806 48.9442 388.737 49.1625 388.614 49.3523C388.495 49.5373 388.334 49.6821 388.13 49.7865C387.926 49.8909 387.694 49.9431 387.433 49.9431ZM387.561 49.338C387.769 49.338 387.952 49.293 388.109 49.2028C388.27 49.1126 388.393 48.9869 388.479 48.8256C388.564 48.6595 388.607 48.4673 388.607 48.249C388.607 48.0307 388.562 47.8409 388.472 47.6796C388.386 47.5135 388.265 47.3854 388.109 47.2952C387.952 47.2003 387.767 47.1529 387.554 47.1529C387.34 47.1529 387.153 47.2003 386.991 47.2952C386.83 47.3854 386.702 47.5135 386.607 47.6796C386.517 47.8409 386.472 48.0284 386.472 48.2419C386.472 48.4554 386.517 48.6452 386.607 48.8113C386.702 48.9774 386.83 49.1079 386.991 49.2028C387.157 49.293 387.347 49.338 387.561 49.338ZM391.718 50.0712C391.381 50.0712 391.078 49.9953 390.807 49.8434C390.537 49.6868 390.323 49.4757 390.167 49.2099C390.01 48.9442 389.932 48.6429 389.932 48.306C389.932 47.9738 390.008 47.6749 390.159 47.4091C390.316 47.1434 390.525 46.9346 390.786 46.7828C391.051 46.6262 391.348 46.5479 391.675 46.5479C391.989 46.5479 392.264 46.6191 392.501 46.7614C392.743 46.9038 392.931 47.1007 393.063 47.3522C393.201 47.6037 393.27 47.8884 393.27 48.2063C393.27 48.2538 393.267 48.306 393.263 48.3629C393.258 48.4151 393.249 48.4768 393.234 48.548H390.38V48.0141H392.893L392.658 48.2206C392.658 47.9928 392.617 47.8006 392.537 47.644C392.456 47.4827 392.342 47.3593 392.195 47.2739C392.048 47.1837 391.87 47.1386 391.661 47.1386C391.443 47.1386 391.251 47.1861 391.085 47.281C390.919 47.3759 390.791 47.5088 390.7 47.6796C390.61 47.8504 390.565 48.0521 390.565 48.2846C390.565 48.5219 390.613 48.7307 390.707 48.911C390.802 49.0866 390.938 49.2242 391.113 49.3238C391.289 49.4187 391.49 49.4662 391.718 49.4662C391.908 49.4662 392.081 49.4329 392.238 49.3665C392.399 49.3001 392.537 49.2004 392.651 49.0676L393.063 49.4875C392.902 49.6773 392.703 49.8221 392.466 49.9217C392.233 50.0214 391.984 50.0712 391.718 50.0712ZM395.748 50.0712C395.492 50.0712 395.259 50.019 395.05 49.9146C394.846 49.8054 394.683 49.656 394.559 49.4662C394.436 49.2764 394.367 49.0605 394.353 48.8184V47.8006C394.367 47.5539 394.436 47.3379 394.559 47.1529C394.687 46.9631 394.853 46.816 395.057 46.7116C395.266 46.6024 395.496 46.5479 395.748 46.5479C396.056 46.5479 396.334 46.6262 396.581 46.7828C396.832 46.9394 397.029 47.1505 397.171 47.4162C397.314 47.682 397.385 47.9809 397.385 48.3131C397.385 48.6452 397.314 48.9442 397.171 49.2099C397.029 49.4757 396.832 49.6868 396.581 49.8434C396.334 49.9953 396.056 50.0712 395.748 50.0712ZM393.968 50V44.9179H394.609V47.4447L394.488 48.2633L394.609 49.0889V50H393.968ZM395.641 49.4662C395.855 49.4662 396.042 49.4163 396.203 49.3167C396.365 49.217 396.493 49.0818 396.588 48.911C396.683 48.7354 396.73 48.5337 396.73 48.306C396.73 48.0829 396.683 47.8836 396.588 47.7081C396.493 47.5325 396.365 47.3973 396.203 47.3024C396.042 47.2027 395.857 47.1529 395.648 47.1529C395.435 47.1529 395.247 47.2027 395.086 47.3024C394.925 47.3973 394.799 47.5325 394.709 47.7081C394.618 47.8836 394.573 48.0853 394.573 48.3131C394.573 48.5361 394.616 48.7354 394.701 48.911C394.792 49.0818 394.917 49.217 395.079 49.3167C395.245 49.4163 395.432 49.4662 395.641 49.4662ZM398.111 50V46.6191H398.752V50H398.111ZM398.752 48.0711L398.51 47.9643C398.51 47.5325 398.609 47.1885 398.809 46.9322C399.008 46.676 399.295 46.5479 399.67 46.5479C399.841 46.5479 399.995 46.5787 400.133 46.6404C400.27 46.6973 400.398 46.7946 400.517 46.9322L400.097 47.3664C400.026 47.2905 399.948 47.2359 399.862 47.2027C399.777 47.1695 399.677 47.1529 399.563 47.1529C399.326 47.1529 399.131 47.2288 398.979 47.3807C398.828 47.5325 398.752 47.7626 398.752 48.0711ZM402.295 50.0712C401.986 50.0712 401.706 49.9953 401.455 49.8434C401.203 49.6868 401.004 49.4757 400.857 49.2099C400.714 48.9442 400.643 48.6452 400.643 48.3131C400.643 47.9809 400.714 47.682 400.857 47.4162C401.004 47.1505 401.201 46.9394 401.448 46.7828C401.699 46.6262 401.981 46.5479 402.295 46.5479C402.551 46.5479 402.779 46.6024 402.978 46.7116C403.182 46.816 403.346 46.9631 403.469 47.1529C403.592 47.3379 403.661 47.5539 403.675 47.8006V48.8184C403.661 49.0605 403.592 49.2764 403.469 49.4662C403.35 49.656 403.189 49.8054 402.985 49.9146C402.786 50.019 402.556 50.0712 402.295 50.0712ZM402.401 49.4662C402.719 49.4662 402.975 49.3594 403.17 49.1459C403.365 48.9276 403.462 48.65 403.462 48.3131C403.462 48.0806 403.417 47.8789 403.327 47.7081C403.241 47.5325 403.118 47.3973 402.957 47.3024C402.795 47.2027 402.608 47.1529 402.394 47.1529C402.181 47.1529 401.991 47.2027 401.825 47.3024C401.663 47.402 401.535 47.5396 401.44 47.7152C401.35 47.886 401.305 48.0829 401.305 48.306C401.305 48.5337 401.35 48.7354 401.44 48.911C401.535 49.0818 401.666 49.217 401.832 49.3167C401.998 49.4163 402.188 49.4662 402.401 49.4662ZM403.419 50V49.0889L403.54 48.2633L403.419 47.4447V46.6191H404.067V50H403.419Z" fill="white"/>
<path d="M213.308 75V70.0603H213.977V75H213.308ZM216.497 75V70.0603H217.166V75H216.497ZM213.763 72.7508V72.1386H216.66V72.7508H213.763ZM219.764 75.0712C219.432 75.0712 219.133 74.9929 218.867 74.8363C218.602 74.6797 218.39 74.4685 218.234 74.2028C218.077 73.9323 217.999 73.631 217.999 73.2988C217.999 72.9714 218.077 72.6772 218.234 72.4162C218.39 72.1505 218.602 71.9394 218.867 71.7828C219.133 71.6262 219.432 71.5479 219.764 71.5479C220.092 71.5479 220.388 71.6262 220.654 71.7828C220.924 71.9346 221.138 72.1434 221.294 72.4091C221.451 72.6749 221.529 72.9714 221.529 73.2988C221.529 73.631 221.451 73.9323 221.294 74.2028C221.138 74.4685 220.924 74.6797 220.654 74.8363C220.388 74.9929 220.092 75.0712 219.764 75.0712ZM219.764 74.4519C219.978 74.4519 220.167 74.4021 220.334 74.3025C220.5 74.2028 220.63 74.0676 220.725 73.8967C220.82 73.7212 220.867 73.5219 220.867 73.2988C220.867 73.0806 220.818 72.886 220.718 72.7152C220.623 72.5444 220.493 72.4115 220.326 72.3166C220.165 72.2169 219.978 72.1671 219.764 72.1671C219.551 72.1671 219.361 72.2169 219.195 72.3166C219.029 72.4115 218.898 72.5444 218.803 72.7152C218.708 72.886 218.661 73.0806 218.661 73.2988C218.661 73.5219 218.708 73.7212 218.803 73.8967C218.898 74.0676 219.029 74.2028 219.195 74.3025C219.361 74.4021 219.551 74.4519 219.764 74.4519ZM222.251 75V71.6191H222.892V75H222.251ZM224.536 75V72.9572C224.536 72.7057 224.458 72.5088 224.301 72.3664C224.149 72.2193 223.957 72.1458 223.725 72.1458C223.568 72.1458 223.428 72.179 223.305 72.2454C223.181 72.3118 223.082 72.4044 223.006 72.523C222.93 72.6416 222.892 72.784 222.892 72.9501L222.628 72.822C222.628 72.5657 222.683 72.3427 222.792 72.1529C222.906 71.9631 223.06 71.816 223.255 71.7116C223.449 71.6024 223.668 71.5479 223.91 71.5479C224.147 71.5479 224.36 71.6001 224.55 71.7045C224.745 71.8089 224.897 71.956 225.006 72.1458C225.12 72.3356 225.177 72.561 225.177 72.822V75H224.536ZM226.821 75V72.9572C226.821 72.7057 226.742 72.5088 226.586 72.3664C226.434 72.2193 226.244 72.1458 226.016 72.1458C225.86 72.1458 225.717 72.179 225.589 72.2454C225.466 72.3118 225.366 72.4044 225.29 72.523C225.214 72.6416 225.177 72.784 225.177 72.9501L224.814 72.822C224.828 72.561 224.897 72.3379 225.02 72.1529C225.148 71.9631 225.312 71.816 225.511 71.7116C225.71 71.6024 225.929 71.5479 226.166 71.5479C226.413 71.5479 226.633 71.6001 226.828 71.7045C227.022 71.8089 227.177 71.956 227.291 72.1458C227.409 72.3356 227.468 72.5633 227.468 72.8291V75H226.821ZM229.906 75.0712C229.569 75.0712 229.265 74.9953 228.995 74.8434C228.725 74.6868 228.511 74.4757 228.354 74.2099C228.198 73.9442 228.12 73.6429 228.12 73.306C228.12 72.9738 228.195 72.6749 228.347 72.4091C228.504 72.1434 228.713 71.9346 228.974 71.7828C229.239 71.6262 229.536 71.5479 229.863 71.5479C230.177 71.5479 230.452 71.6191 230.689 71.7614C230.931 71.9038 231.118 72.1007 231.251 72.3522C231.389 72.6037 231.458 72.8884 231.458 73.2063C231.458 73.2538 231.455 73.306 231.451 73.3629C231.446 73.4151 231.436 73.4768 231.422 73.548H228.568V73.0141H231.081L230.846 73.2206C230.846 72.9928 230.805 72.8006 230.725 72.644C230.644 72.4827 230.53 72.3593 230.383 72.2739C230.236 72.1837 230.058 72.1386 229.849 72.1386C229.631 72.1386 229.439 72.1861 229.273 72.281C229.107 72.3759 228.978 72.5088 228.888 72.6796C228.798 72.8504 228.753 73.0521 228.753 73.2846C228.753 73.5219 228.8 73.7307 228.895 73.911C228.99 74.0866 229.125 74.2242 229.301 74.3238C229.477 74.4187 229.678 74.4662 229.906 74.4662C230.096 74.4662 230.269 74.4329 230.426 74.3665C230.587 74.3001 230.725 74.2004 230.839 74.0676L231.251 74.4875C231.09 74.6773 230.891 74.8221 230.653 74.9217C230.421 75.0214 230.172 75.0712 229.906 75.0712ZM233.083 75L231.744 71.6191H232.413L233.382 74.2526H233.168L234.129 71.6191H234.499L235.46 74.2526H235.246L236.214 71.6191H236.883L235.552 75H235.175L234.2 72.4447H234.435L233.453 75H233.083ZM238.9 75.0712C238.568 75.0712 238.269 74.9929 238.003 74.8363C237.738 74.6797 237.526 74.4685 237.37 74.2028C237.213 73.9323 237.135 73.631 237.135 73.2988C237.135 72.9714 237.213 72.6772 237.37 72.4162C237.526 72.1505 237.738 71.9394 238.003 71.7828C238.269 71.6262 238.568 71.5479 238.9 71.5479C239.228 71.5479 239.524 71.6262 239.79 71.7828C240.06 71.9346 240.274 72.1434 240.43 72.4091C240.587 72.6749 240.665 72.9714 240.665 73.2988C240.665 73.631 240.587 73.9323 240.43 74.2028C240.274 74.4685 240.06 74.6797 239.79 74.8363C239.524 74.9929 239.228 75.0712 238.9 75.0712ZM238.9 74.4519C239.114 74.4519 239.303 74.4021 239.47 74.3025C239.636 74.2028 239.766 74.0676 239.861 73.8967C239.956 73.7212 240.003 73.5219 240.003 73.2988C240.003 73.0806 239.954 72.886 239.854 72.7152C239.759 72.5444 239.629 72.4115 239.462 72.3166C239.301 72.2169 239.114 72.1671 238.9 72.1671C238.687 72.1671 238.497 72.2169 238.331 72.3166C238.165 72.4115 238.034 72.5444 237.939 72.7152C237.844 72.886 237.797 73.0806 237.797 73.2988C237.797 73.5219 237.844 73.7212 237.939 73.8967C238.034 74.0676 238.165 74.2028 238.331 74.3025C238.497 74.4021 238.687 74.4519 238.9 74.4519ZM241.387 75V71.6191H242.028V75H241.387ZM242.028 73.0711L241.786 72.9643C241.786 72.5325 241.885 72.1885 242.085 71.9322C242.284 71.676 242.571 71.5479 242.946 71.5479C243.117 71.5479 243.271 71.5787 243.409 71.6404C243.546 71.6973 243.674 71.7946 243.793 71.9322L243.373 72.3664C243.302 72.2905 243.224 72.2359 243.138 72.2027C243.053 72.1695 242.953 72.1529 242.839 72.1529C242.602 72.1529 242.407 72.2288 242.256 72.3807C242.104 72.5325 242.028 72.7626 242.028 73.0711ZM246.408 75L244.828 73.2704L246.394 71.6191H247.169L245.426 73.4412L245.454 73.0711L247.233 75H246.408ZM244.244 75V69.9179H244.885V75H244.244ZM250.344 75.0712C250.155 75.0712 249.974 75.0475 249.803 75C249.637 74.9478 249.483 74.8766 249.341 74.7865C249.198 74.6916 249.075 74.5801 248.971 74.4519L249.383 74.0391C249.507 74.1909 249.649 74.3048 249.81 74.3808C249.972 74.4519 250.152 74.4875 250.351 74.4875C250.551 74.4875 250.705 74.4543 250.814 74.3879C250.923 74.3167 250.978 74.2194 250.978 74.096C250.978 73.9727 250.933 73.8778 250.843 73.8113C250.757 73.7402 250.646 73.6832 250.508 73.6405C250.37 73.5931 250.223 73.548 250.067 73.5053C249.915 73.4578 249.77 73.3985 249.633 73.3273C249.495 73.2561 249.381 73.1589 249.291 73.0355C249.205 72.9121 249.163 72.7484 249.163 72.5444C249.163 72.3403 249.213 72.1647 249.312 72.0176C249.412 71.8658 249.549 71.7495 249.725 71.6689C249.905 71.5882 250.121 71.5479 250.373 71.5479C250.639 71.5479 250.873 71.5953 251.077 71.6902C251.286 71.7804 251.457 71.918 251.59 72.1031L251.177 72.5159C251.082 72.3925 250.964 72.2976 250.821 72.2312C250.684 72.1647 250.527 72.1315 250.351 72.1315C250.166 72.1315 250.024 72.1647 249.924 72.2312C249.829 72.2929 249.782 72.3807 249.782 72.4945C249.782 72.6084 249.825 72.6962 249.91 72.7579C249.996 72.8196 250.107 72.8718 250.245 72.9145C250.387 72.9572 250.534 73.0023 250.686 73.0497C250.838 73.0924 250.983 73.1517 251.12 73.2277C251.258 73.3036 251.369 73.4056 251.455 73.5337C251.545 73.6619 251.59 73.8303 251.59 74.0391C251.59 74.357 251.476 74.6085 251.248 74.7936C251.025 74.9786 250.724 75.0712 250.344 75.0712ZM253.873 75.0712C253.536 75.0712 253.232 74.9953 252.962 74.8434C252.691 74.6868 252.478 74.4757 252.321 74.2099C252.165 73.9442 252.086 73.6429 252.086 73.306C252.086 72.9738 252.162 72.6749 252.314 72.4091C252.471 72.1434 252.68 71.9346 252.941 71.7828C253.206 71.6262 253.503 71.5479 253.83 71.5479C254.143 71.5479 254.419 71.6191 254.656 71.7614C254.898 71.9038 255.085 72.1007 255.218 72.3522C255.356 72.6037 255.425 72.8884 255.425 73.2063C255.425 73.2538 255.422 73.306 255.418 73.3629C255.413 73.4151 255.403 73.4768 255.389 73.548H252.535V73.0141H255.047L254.813 73.2206C254.813 72.9928 254.772 72.8006 254.692 72.644C254.611 72.4827 254.497 72.3593 254.35 72.2739C254.203 72.1837 254.025 72.1386 253.816 72.1386C253.598 72.1386 253.406 72.1861 253.24 72.281C253.073 72.3759 252.945 72.5088 252.855 72.6796C252.765 72.8504 252.72 73.0521 252.72 73.2846C252.72 73.5219 252.767 73.7307 252.862 73.911C252.957 74.0866 253.092 74.2242 253.268 74.3238C253.444 74.4187 253.645 74.4662 253.873 74.4662C254.063 74.4662 254.236 74.4329 254.393 74.3665C254.554 74.3001 254.692 74.2004 254.805 74.0676L255.218 74.4875C255.057 74.6773 254.858 74.8221 254.62 74.9217C254.388 75.0214 254.139 75.0712 253.873 75.0712ZM257.198 75.0712C257.008 75.0712 256.828 75.0475 256.657 75C256.491 74.9478 256.337 74.8766 256.194 74.7865C256.052 74.6916 255.929 74.5801 255.824 74.4519L256.237 74.0391C256.36 74.1909 256.503 74.3048 256.664 74.3808C256.825 74.4519 257.006 74.4875 257.205 74.4875C257.404 74.4875 257.559 74.4543 257.668 74.3879C257.777 74.3167 257.831 74.2194 257.831 74.096C257.831 73.9727 257.786 73.8778 257.696 73.8113C257.611 73.7402 257.499 73.6832 257.362 73.6405C257.224 73.5931 257.077 73.548 256.92 73.5053C256.769 73.4578 256.624 73.3985 256.486 73.3273C256.349 73.2561 256.235 73.1589 256.145 73.0355C256.059 72.9121 256.016 72.7484 256.016 72.5444C256.016 72.3403 256.066 72.1647 256.166 72.0176C256.266 71.8658 256.403 71.7495 256.579 71.6689C256.759 71.5882 256.975 71.5479 257.226 71.5479C257.492 71.5479 257.727 71.5953 257.931 71.6902C258.14 71.7804 258.311 71.918 258.444 72.1031L258.031 72.5159C257.936 72.3925 257.817 72.2976 257.675 72.2312C257.537 72.1647 257.381 72.1315 257.205 72.1315C257.02 72.1315 256.878 72.1647 256.778 72.2312C256.683 72.2929 256.636 72.3807 256.636 72.4945C256.636 72.6084 256.678 72.6962 256.764 72.7579C256.849 72.8196 256.961 72.8718 257.098 72.9145C257.241 72.9572 257.388 73.0023 257.54 73.0497C257.691 73.0924 257.836 73.1517 257.974 73.2277C258.111 73.3036 258.223 73.4056 258.308 73.5337C258.398 73.6619 258.444 73.8303 258.444 74.0391C258.444 74.357 258.33 74.6085 258.102 74.7936C257.879 74.9786 257.578 75.0712 257.198 75.0712ZM260.236 75.0712C260.046 75.0712 259.865 75.0475 259.695 75C259.529 74.9478 259.374 74.8766 259.232 74.7865C259.09 74.6916 258.966 74.5801 258.862 74.4519L259.275 74.0391C259.398 74.1909 259.54 74.3048 259.702 74.3808C259.863 74.4519 260.043 74.4875 260.243 74.4875C260.442 74.4875 260.596 74.4543 260.705 74.3879C260.814 74.3167 260.869 74.2194 260.869 74.096C260.869 73.9727 260.824 73.8778 260.734 73.8113C260.648 73.7402 260.537 73.6832 260.399 73.6405C260.262 73.5931 260.115 73.548 259.958 73.5053C259.806 73.4578 259.661 73.3985 259.524 73.3273C259.386 73.2561 259.272 73.1589 259.182 73.0355C259.097 72.9121 259.054 72.7484 259.054 72.5444C259.054 72.3403 259.104 72.1647 259.203 72.0176C259.303 71.8658 259.441 71.7495 259.616 71.6689C259.797 71.5882 260.013 71.5479 260.264 71.5479C260.53 71.5479 260.765 71.5953 260.969 71.6902C261.177 71.7804 261.348 71.918 261.481 72.1031L261.068 72.5159C260.973 72.3925 260.855 72.2976 260.712 72.2312C260.575 72.1647 260.418 72.1315 260.243 72.1315C260.058 72.1315 259.915 72.1647 259.816 72.2312C259.721 72.2929 259.673 72.3807 259.673 72.4945C259.673 72.6084 259.716 72.6962 259.801 72.7579C259.887 72.8196 259.998 72.8718 260.136 72.9145C260.278 72.9572 260.425 73.0023 260.577 73.0497C260.729 73.0924 260.874 73.1517 261.011 73.2277C261.149 73.3036 261.26 73.4056 261.346 73.5337C261.436 73.6619 261.481 73.8303 261.481 74.0391C261.481 74.357 261.367 74.6085 261.139 74.7936C260.916 74.9786 260.615 75.0712 260.236 75.0712ZM262.205 75V71.6191H262.846V75H262.205ZM262.526 70.9429C262.407 70.9429 262.31 70.9049 262.234 70.829C262.158 70.7483 262.12 70.6487 262.12 70.53C262.12 70.4161 262.158 70.3212 262.234 70.2453C262.31 70.1646 262.407 70.1243 262.526 70.1243C262.644 70.1243 262.742 70.1646 262.818 70.2453C262.893 70.3212 262.931 70.4161 262.931 70.53C262.931 70.6487 262.893 70.7483 262.818 70.829C262.742 70.9049 262.644 70.9429 262.526 70.9429ZM265.335 75.0712C265.002 75.0712 264.704 74.9929 264.438 74.8363C264.172 74.6797 263.961 74.4685 263.804 74.2028C263.648 73.9323 263.569 73.631 263.569 73.2988C263.569 72.9714 263.648 72.6772 263.804 72.4162C263.961 72.1505 264.172 71.9394 264.438 71.7828C264.704 71.6262 265.002 71.5479 265.335 71.5479C265.662 71.5479 265.959 71.6262 266.224 71.7828C266.495 71.9346 266.708 72.1434 266.865 72.4091C267.022 72.6749 267.1 72.9714 267.1 73.2988C267.1 73.631 267.022 73.9323 266.865 74.2028C266.708 74.4685 266.495 74.6797 266.224 74.8363C265.959 74.9929 265.662 75.0712 265.335 75.0712ZM265.335 74.4519C265.548 74.4519 265.738 74.4021 265.904 74.3025C266.07 74.2028 266.201 74.0676 266.296 73.8967C266.39 73.7212 266.438 73.5219 266.438 73.2988C266.438 73.0806 266.388 72.886 266.288 72.7152C266.194 72.5444 266.063 72.4115 265.897 72.3166C265.736 72.2169 265.548 72.1671 265.335 72.1671C265.121 72.1671 264.931 72.2169 264.765 72.3166C264.599 72.4115 264.469 72.5444 264.374 72.7152C264.279 72.886 264.231 73.0806 264.231 73.2988C264.231 73.5219 264.279 73.7212 264.374 73.8967C264.469 74.0676 264.599 74.2028 264.765 74.3025C264.931 74.4021 265.121 74.4519 265.335 74.4519ZM270.213 75V73.0284C270.213 72.7721 270.133 72.561 269.971 72.3949C269.81 72.2288 269.601 72.1458 269.345 72.1458C269.174 72.1458 269.022 72.1837 268.889 72.2597C268.756 72.3356 268.652 72.44 268.576 72.5728C268.5 72.7057 268.462 72.8575 268.462 73.0284L268.199 72.8789C268.199 72.6227 268.256 72.3949 268.37 72.1956C268.484 71.9963 268.643 71.8397 268.847 71.7258C269.051 71.6072 269.281 71.5479 269.537 71.5479C269.793 71.5479 270.019 71.6119 270.213 71.7401C270.413 71.8682 270.569 72.0366 270.683 72.2454C270.797 72.4495 270.854 72.6677 270.854 72.9003V75H270.213ZM267.822 75V71.6191H268.462V75H267.822ZM274.632 75.0712C274.319 75.0712 274.039 74.9953 273.792 74.8434C273.546 74.6868 273.349 74.4757 273.202 74.2099C273.059 73.9442 272.988 73.6452 272.988 73.3131C272.988 72.9809 273.059 72.682 273.202 72.4162C273.349 72.1505 273.546 71.9394 273.792 71.7828C274.039 71.6262 274.319 71.5479 274.632 71.5479C274.884 71.5479 275.112 71.6024 275.316 71.7116C275.52 71.816 275.683 71.9631 275.807 72.1529C275.935 72.3379 276.006 72.5539 276.02 72.8006V73.8184C276.006 74.0605 275.937 74.2764 275.814 74.4662C275.691 74.656 275.527 74.8054 275.323 74.9146C275.119 75.019 274.889 75.0712 274.632 75.0712ZM274.739 74.4662C274.953 74.4662 275.138 74.4163 275.294 74.3167C275.456 74.217 275.581 74.0818 275.672 73.911C275.762 73.7354 275.807 73.5361 275.807 73.3131C275.807 73.0806 275.759 72.8789 275.664 72.7081C275.574 72.5372 275.449 72.402 275.287 72.3024C275.131 72.2027 274.946 72.1529 274.732 72.1529C274.518 72.1529 274.331 72.2027 274.17 72.3024C274.008 72.402 273.88 72.5396 273.785 72.7152C273.695 72.886 273.65 73.0829 273.65 73.306C273.65 73.5337 273.695 73.7354 273.785 73.911C273.88 74.0818 274.008 74.217 274.17 74.3167C274.336 74.4163 274.526 74.4662 274.739 74.4662ZM276.412 75H275.764V74.0889L275.885 73.2633L275.764 72.4447V69.9179H276.412V75ZM278.704 75.0712C278.429 75.0712 278.18 75.0095 277.957 74.8861C277.738 74.758 277.568 74.5824 277.444 74.3594C277.321 74.1364 277.259 73.8778 277.259 73.5836V71.6191H277.9V73.5551C277.9 73.7402 277.931 73.9015 277.992 74.0391C278.059 74.172 278.154 74.274 278.277 74.3452C278.4 74.4163 278.545 74.4519 278.711 74.4519C278.963 74.4519 279.16 74.3736 279.302 74.217C279.444 74.0557 279.515 73.8351 279.515 73.5551V71.6191H280.156V73.5836C280.156 73.8778 280.094 74.1364 279.971 74.3594C279.848 74.5824 279.677 74.758 279.458 74.8861C279.245 75.0095 278.993 75.0712 278.704 75.0712ZM282.58 75.0712C282.244 75.0712 281.94 74.9953 281.669 74.8434C281.399 74.6868 281.185 74.4757 281.029 74.2099C280.872 73.9442 280.794 73.6429 280.794 73.306C280.794 72.9738 280.87 72.6749 281.022 72.4091C281.178 72.1434 281.387 71.9346 281.648 71.7828C281.914 71.6262 282.21 71.5479 282.538 71.5479C282.851 71.5479 283.126 71.6191 283.363 71.7614C283.605 71.9038 283.793 72.1007 283.926 72.3522C284.063 72.6037 284.132 72.8884 284.132 73.2063C284.132 73.2538 284.13 73.306 284.125 73.3629C284.12 73.4151 284.111 73.4768 284.097 73.548H281.242V73.0141H283.755L283.52 73.2206C283.52 72.9928 283.48 72.8006 283.399 72.644C283.318 72.4827 283.204 72.3593 283.057 72.2739C282.91 72.1837 282.732 72.1386 282.524 72.1386C282.305 72.1386 282.113 72.1861 281.947 72.281C281.781 72.3759 281.653 72.5088 281.563 72.6796C281.472 72.8504 281.427 73.0521 281.427 73.2846C281.427 73.5219 281.475 73.7307 281.57 73.911C281.665 74.0866 281.8 74.2242 281.975 74.3238C282.151 74.4187 282.353 74.4662 282.58 74.4662C282.77 74.4662 282.944 74.4329 283.1 74.3665C283.261 74.3001 283.399 74.2004 283.513 74.0676L283.926 74.4875C283.764 74.6773 283.565 74.8221 283.328 74.9217C283.095 75.0214 282.846 75.0712 282.58 75.0712ZM287.073 75V70.0603H287.735V75H287.073ZM286.062 70.6581V70.0603H287.664V70.6581H286.062ZM289.257 75L291.107 70.4517L291.769 70.4731L289.962 75H289.257ZM288.481 70.6581V70.0603H291.769V70.4731L291.478 70.6581H288.481Z" fill="white"/>
<path d="M312.032 109.85V109.288H313.37C313.66 109.288 313.883 109.215 314.039 109.067C314.196 108.92 314.274 108.721 314.274 108.47C314.274 108.232 314.196 108.035 314.039 107.879C313.887 107.722 313.667 107.644 313.377 107.644H312.032V107.06H313.399C313.712 107.06 313.985 107.122 314.217 107.245C314.45 107.364 314.628 107.528 314.751 107.736C314.879 107.945 314.943 108.185 314.943 108.455C314.943 108.735 314.879 108.98 314.751 109.188C314.628 109.397 314.45 109.561 314.217 109.68C313.985 109.793 313.712 109.85 313.399 109.85H312.032ZM311.584 112V107.06H312.253V112H311.584ZM314.431 112L312.637 109.786L313.271 109.566L315.278 112H314.431ZM318.345 112V110.028C318.345 109.772 318.264 109.561 318.103 109.395C317.941 109.229 317.733 109.146 317.476 109.146C317.306 109.146 317.154 109.184 317.021 109.26C316.888 109.336 316.784 109.44 316.708 109.573C316.632 109.706 316.594 109.858 316.594 110.028L316.33 109.879C316.33 109.623 316.387 109.395 316.501 109.196C316.615 108.996 316.774 108.84 316.978 108.726C317.182 108.607 317.412 108.548 317.669 108.548C317.925 108.548 318.15 108.605 318.345 108.719C318.544 108.833 318.701 108.992 318.814 109.196C318.928 109.4 318.985 109.635 318.985 109.9V112H318.345ZM315.953 112V106.918H316.594V112H315.953ZM321.419 112.071C321.082 112.071 320.778 111.995 320.507 111.843C320.237 111.687 320.023 111.476 319.867 111.21C319.71 110.944 319.632 110.643 319.632 110.306C319.632 109.974 319.708 109.675 319.86 109.409C320.016 109.143 320.225 108.935 320.486 108.783C320.752 108.626 321.048 108.548 321.376 108.548C321.689 108.548 321.964 108.619 322.202 108.761C322.444 108.904 322.631 109.101 322.764 109.352C322.901 109.604 322.97 109.888 322.97 110.206C322.97 110.254 322.968 110.306 322.963 110.363C322.958 110.415 322.949 110.477 322.935 110.548H320.08V110.014H322.593L322.358 110.221C322.358 109.993 322.318 109.801 322.237 109.644C322.156 109.483 322.043 109.359 321.895 109.274C321.748 109.184 321.57 109.139 321.362 109.139C321.143 109.139 320.951 109.186 320.785 109.281C320.619 109.376 320.491 109.509 320.401 109.68C320.311 109.85 320.265 110.052 320.265 110.285C320.265 110.522 320.313 110.731 320.408 110.911C320.503 111.087 320.638 111.224 320.814 111.324C320.989 111.419 321.191 111.466 321.419 111.466C321.608 111.466 321.782 111.433 321.938 111.367C322.099 111.3 322.237 111.2 322.351 111.068L322.764 111.488C322.602 111.677 322.403 111.822 322.166 111.922C321.933 112.021 321.684 112.071 321.419 112.071ZM324.084 112V107.203H324.725V112H324.084ZM323.251 109.203V108.619H325.557V109.203H323.251ZM327.625 112.071C327.293 112.071 326.994 111.993 326.728 111.836C326.463 111.68 326.252 111.469 326.095 111.203C325.938 110.932 325.86 110.631 325.86 110.299C325.86 109.971 325.938 109.677 326.095 109.416C326.252 109.151 326.463 108.939 326.728 108.783C326.994 108.626 327.293 108.548 327.625 108.548C327.953 108.548 328.249 108.626 328.515 108.783C328.785 108.935 328.999 109.143 329.156 109.409C329.312 109.675 329.39 109.971 329.39 110.299C329.39 110.631 329.312 110.932 329.156 111.203C328.999 111.469 328.785 111.68 328.515 111.836C328.249 111.993 327.953 112.071 327.625 112.071ZM327.625 111.452C327.839 111.452 328.029 111.402 328.195 111.302C328.361 111.203 328.491 111.068 328.586 110.897C328.681 110.721 328.729 110.522 328.729 110.299C328.729 110.081 328.679 109.886 328.579 109.715C328.484 109.544 328.354 109.411 328.188 109.317C328.026 109.217 327.839 109.167 327.625 109.167C327.412 109.167 327.222 109.217 327.056 109.317C326.89 109.411 326.759 109.544 326.664 109.715C326.569 109.886 326.522 110.081 326.522 110.299C326.522 110.522 326.569 110.721 326.664 110.897C326.759 111.068 326.89 111.203 327.056 111.302C327.222 111.402 327.412 111.452 327.625 111.452ZM330.112 112V108.619H330.753V112H330.112ZM330.753 110.071L330.511 109.964C330.511 109.532 330.611 109.188 330.81 108.932C331.009 108.676 331.296 108.548 331.671 108.548C331.842 108.548 331.996 108.579 332.134 108.64C332.271 108.697 332.399 108.795 332.518 108.932L332.098 109.366C332.027 109.29 331.949 109.236 331.863 109.203C331.778 109.169 331.678 109.153 331.564 109.153C331.327 109.153 331.132 109.229 330.981 109.381C330.829 109.532 330.753 109.763 330.753 110.071ZM332.976 112V108.619H333.617V112H332.976ZM333.297 107.943C333.178 107.943 333.081 107.905 333.005 107.829C332.929 107.748 332.891 107.649 332.891 107.53C332.891 107.416 332.929 107.321 333.005 107.245C333.081 107.165 333.178 107.124 333.297 107.124C333.415 107.124 333.512 107.165 333.588 107.245C333.664 107.321 333.702 107.416 333.702 107.53C333.702 107.649 333.664 107.748 333.588 107.829C333.512 107.905 333.415 107.943 333.297 107.943ZM336.105 112.071C335.773 112.071 335.472 111.993 335.201 111.836C334.936 111.68 334.725 111.469 334.568 111.203C334.416 110.932 334.34 110.633 334.34 110.306C334.34 109.974 334.416 109.675 334.568 109.409C334.725 109.143 334.936 108.935 335.201 108.783C335.472 108.626 335.773 108.548 336.105 108.548C336.366 108.548 336.608 108.598 336.831 108.697C337.054 108.792 337.247 108.932 337.408 109.117L336.981 109.544C336.877 109.421 336.748 109.328 336.597 109.267C336.449 109.2 336.286 109.167 336.105 109.167C335.892 109.167 335.702 109.217 335.536 109.317C335.37 109.411 335.239 109.544 335.145 109.715C335.05 109.886 335.002 110.083 335.002 110.306C335.002 110.529 335.05 110.726 335.145 110.897C335.239 111.068 335.37 111.203 335.536 111.302C335.702 111.402 335.892 111.452 336.105 111.452C336.286 111.452 336.449 111.421 336.597 111.359C336.748 111.293 336.879 111.198 336.988 111.075L337.408 111.502C337.251 111.682 337.059 111.822 336.831 111.922C336.608 112.021 336.366 112.071 336.105 112.071ZM339.097 113.488C338.879 113.488 338.696 113.452 338.549 113.381C338.397 113.31 338.262 113.208 338.143 113.075L338.556 112.655C338.622 112.736 338.696 112.795 338.777 112.833C338.852 112.871 338.945 112.89 339.054 112.89C339.196 112.89 339.32 112.845 339.424 112.754C339.529 112.669 339.581 112.539 339.581 112.363V108.619H340.221V112.356C340.221 112.603 340.169 112.809 340.065 112.975C339.96 113.141 339.823 113.267 339.652 113.352C339.481 113.443 339.296 113.488 339.097 113.488ZM339.908 107.943C339.794 107.943 339.699 107.905 339.624 107.829C339.548 107.748 339.51 107.649 339.51 107.53C339.51 107.416 339.548 107.321 339.624 107.245C339.699 107.165 339.794 107.124 339.908 107.124C340.027 107.124 340.124 107.165 340.2 107.245C340.276 107.321 340.314 107.416 340.314 107.53C340.314 107.649 340.276 107.748 340.2 107.829C340.124 107.905 340.027 107.943 339.908 107.943ZM342.602 112.071C342.294 112.071 342.014 111.995 341.762 111.843C341.511 111.687 341.311 111.476 341.164 111.21C341.022 110.944 340.951 110.645 340.951 110.313C340.951 109.981 341.022 109.682 341.164 109.416C341.311 109.151 341.508 108.939 341.755 108.783C342.007 108.626 342.289 108.548 342.602 108.548C342.858 108.548 343.086 108.602 343.285 108.712C343.489 108.816 343.653 108.963 343.777 109.153C343.9 109.338 343.969 109.554 343.983 109.801V110.818C343.969 111.06 343.9 111.276 343.777 111.466C343.658 111.656 343.497 111.805 343.293 111.915C343.093 112.019 342.863 112.071 342.602 112.071ZM342.709 111.466C343.027 111.466 343.283 111.359 343.478 111.146C343.672 110.928 343.769 110.65 343.769 110.313C343.769 110.081 343.724 109.879 343.634 109.708C343.549 109.532 343.425 109.397 343.264 109.302C343.103 109.203 342.915 109.153 342.702 109.153C342.488 109.153 342.298 109.203 342.132 109.302C341.971 109.402 341.843 109.54 341.748 109.715C341.658 109.886 341.613 110.083 341.613 110.306C341.613 110.534 341.658 110.735 341.748 110.911C341.843 111.082 341.973 111.217 342.139 111.317C342.306 111.416 342.495 111.466 342.709 111.466ZM343.727 112V111.089L343.848 110.263L343.727 109.445V108.619H344.374V112H343.727ZM345.307 112V108.619H345.948V112H345.307ZM347.592 112V109.957C347.592 109.706 347.514 109.509 347.357 109.366C347.205 109.219 347.013 109.146 346.78 109.146C346.624 109.146 346.484 109.179 346.361 109.245C346.237 109.312 346.137 109.404 346.062 109.523C345.986 109.642 345.948 109.784 345.948 109.95L345.684 109.822C345.684 109.566 345.739 109.343 345.848 109.153C345.962 108.963 346.116 108.816 346.311 108.712C346.505 108.602 346.724 108.548 346.966 108.548C347.203 108.548 347.416 108.6 347.606 108.704C347.801 108.809 347.953 108.956 348.062 109.146C348.176 109.336 348.232 109.561 348.232 109.822V112H347.592ZM349.877 112V109.957C349.877 109.706 349.798 109.509 349.642 109.366C349.49 109.219 349.3 109.146 349.072 109.146C348.916 109.146 348.773 109.179 348.645 109.245C348.522 109.312 348.422 109.404 348.346 109.523C348.27 109.642 348.232 109.784 348.232 109.95L347.869 109.822C347.884 109.561 347.953 109.338 348.076 109.153C348.204 108.963 348.368 108.816 348.567 108.712C348.766 108.602 348.985 108.548 349.222 108.548C349.469 108.548 349.689 108.6 349.884 108.704C350.078 108.809 350.233 108.956 350.346 109.146C350.465 109.336 350.524 109.563 350.524 109.829V112H349.877ZM353.845 112L352.507 108.619H353.176L354.144 111.253H353.93L354.891 108.619H355.261L356.222 111.253H356.008L356.977 108.619H357.646L356.315 112H355.937L354.962 109.445H355.197L354.215 112H353.845ZM358.167 112V108.619H358.807V112H358.167ZM358.487 107.943C358.368 107.943 358.271 107.905 358.195 107.829C358.119 107.748 358.081 107.649 358.081 107.53C358.081 107.416 358.119 107.321 358.195 107.245C358.271 107.165 358.368 107.124 358.487 107.124C358.605 107.124 358.703 107.165 358.779 107.245C358.855 107.321 358.893 107.416 358.893 107.53C358.893 107.649 358.855 107.748 358.779 107.829C358.703 107.905 358.605 107.943 358.487 107.943ZM360.271 112V107.203H360.911V112H360.271ZM359.438 109.203V108.619H361.744V109.203H359.438ZM364.763 112V110.028C364.763 109.772 364.683 109.561 364.521 109.395C364.36 109.229 364.151 109.146 363.895 109.146C363.724 109.146 363.572 109.184 363.439 109.26C363.306 109.336 363.202 109.44 363.126 109.573C363.05 109.706 363.012 109.858 363.012 110.028L362.749 109.879C362.749 109.623 362.806 109.395 362.92 109.196C363.034 108.996 363.193 108.84 363.397 108.726C363.601 108.607 363.831 108.548 364.087 108.548C364.343 108.548 364.569 108.605 364.763 108.719C364.963 108.833 365.119 108.992 365.233 109.196C365.347 109.4 365.404 109.635 365.404 109.9V112H364.763ZM362.372 112V106.918H363.012V112H362.372ZM367.866 112V107.06H368.535V112H367.866ZM368.321 112V111.388H370.969V112H368.321ZM373.099 112.071C372.762 112.071 372.458 111.995 372.188 111.843C371.917 111.687 371.704 111.476 371.547 111.21C371.391 110.944 371.312 110.643 371.312 110.306C371.312 109.974 371.388 109.675 371.54 109.409C371.697 109.143 371.906 108.935 372.167 108.783C372.432 108.626 372.729 108.548 373.056 108.548C373.369 108.548 373.645 108.619 373.882 108.761C374.124 108.904 374.311 109.101 374.444 109.352C374.582 109.604 374.651 109.888 374.651 110.206C374.651 110.254 374.648 110.306 374.644 110.363C374.639 110.415 374.629 110.477 374.615 110.548H371.761V110.014H374.273L374.039 110.221C374.039 109.993 373.998 109.801 373.918 109.644C373.837 109.483 373.723 109.359 373.576 109.274C373.429 109.184 373.251 109.139 373.042 109.139C372.824 109.139 372.632 109.186 372.465 109.281C372.299 109.376 372.171 109.509 372.081 109.68C371.991 109.85 371.946 110.052 371.946 110.285C371.946 110.522 371.993 110.731 372.088 110.911C372.183 111.087 372.318 111.224 372.494 111.324C372.67 111.419 372.871 111.466 373.099 111.466C373.289 111.466 373.462 111.433 373.619 111.367C373.78 111.3 373.918 111.2 374.031 111.068L374.444 111.488C374.283 111.677 374.084 111.822 373.846 111.922C373.614 112.021 373.365 112.071 373.099 112.071ZM377.741 112V110.028C377.741 109.772 377.66 109.561 377.499 109.395C377.337 109.229 377.129 109.146 376.872 109.146C376.702 109.146 376.55 109.184 376.417 109.26C376.284 109.336 376.18 109.44 376.104 109.573C376.028 109.706 375.99 109.858 375.99 110.028L375.726 109.879C375.726 109.623 375.783 109.395 375.897 109.196C376.011 108.996 376.17 108.84 376.374 108.726C376.578 108.607 376.808 108.548 377.065 108.548C377.321 108.548 377.546 108.612 377.741 108.74C377.94 108.868 378.097 109.037 378.21 109.245C378.324 109.449 378.381 109.668 378.381 109.9V112H377.741ZM375.349 112V108.619H375.99V112H375.349ZM381.64 112V110.028C381.64 109.772 381.56 109.561 381.398 109.395C381.237 109.229 381.028 109.146 380.772 109.146C380.601 109.146 380.449 109.184 380.316 109.26C380.183 109.336 380.079 109.44 380.003 109.573C379.927 109.706 379.889 109.858 379.889 110.028L379.626 109.879C379.626 109.623 379.683 109.395 379.797 109.196C379.911 108.996 380.07 108.84 380.274 108.726C380.478 108.607 380.708 108.548 380.964 108.548C381.22 108.548 381.446 108.612 381.64 108.74C381.84 108.868 381.996 109.037 382.11 109.245C382.224 109.449 382.281 109.668 382.281 109.9V112H381.64ZM379.249 112V108.619H379.889V112H379.249ZM384.586 112.071C384.277 112.071 383.998 111.995 383.746 111.843C383.495 111.687 383.295 111.476 383.148 111.21C383.006 110.944 382.935 110.645 382.935 110.313C382.935 109.981 383.006 109.682 383.148 109.416C383.295 109.151 383.492 108.939 383.739 108.783C383.99 108.626 384.273 108.548 384.586 108.548C384.842 108.548 385.07 108.602 385.269 108.712C385.473 108.816 385.637 108.963 385.76 109.153C385.884 109.338 385.953 109.554 385.967 109.801V110.818C385.953 111.06 385.884 111.276 385.76 111.466C385.642 111.656 385.48 111.805 385.276 111.915C385.077 112.019 384.847 112.071 384.586 112.071ZM384.693 111.466C385.011 111.466 385.267 111.359 385.461 111.146C385.656 110.928 385.753 110.65 385.753 110.313C385.753 110.081 385.708 109.879 385.618 109.708C385.533 109.532 385.409 109.397 385.248 109.302C385.087 109.203 384.899 109.153 384.686 109.153C384.472 109.153 384.282 109.203 384.116 109.302C383.955 109.402 383.827 109.54 383.732 109.715C383.642 109.886 383.597 110.083 383.597 110.306C383.597 110.534 383.642 110.735 383.732 110.911C383.827 111.082 383.957 111.217 384.123 111.317C384.289 111.416 384.479 111.466 384.693 111.466ZM385.711 112V111.089L385.832 110.263L385.711 109.445V108.619H386.358V112H385.711Z" fill="white"/>
<line x1="256.5" y1="37" x2="256.5" y2="124" stroke="white"/>
<line x1="0.5" y1="23" x2="0.5" y2="32" stroke="white"/>
<line x1="14.5" y1="23" x2="14.5" y2="32" stroke="white"/>
<line x1="28.5" y1="23" x2="28.5" y2="32" stroke="white"/>
<line x1="42.5" y1="23" x2="42.5" y2="32" stroke="white"/>
<line x1="56.5" y1="23" x2="56.5" y2="32" stroke="white"/>
<line x1="70.5" y1="23" x2="70.5" y2="32" stroke="white"/>
<line x1="84.5" y1="23" x2="84.5" y2="32" stroke="white"/>
<line x1="98.5" y1="23" x2="98.5" y2="32" stroke="white"/>
<line x1="112.5" y1="23" x2="112.5" y2="32" stroke="white"/>
<line x1="126.5" y1="23" x2="126.5" y2="32" stroke="white"/>
<line x1="140.5" y1="23" x2="140.5" y2="32" stroke="white"/>
<line x1="154.5" y1="23" x2="154.5" y2="32" stroke="white"/>
<line x1="168.5" y1="23" x2="168.5" y2="32" stroke="white"/>
<line x1="182.5" y1="23" x2="182.5" y2="32" stroke="white"/>
<line x1="196.5" y1="23" x2="196.5" y2="32" stroke="white"/>
<line x1="210.5" y1="23" x2="210.5" y2="32" stroke="white"/>
<line x1="224.5" y1="23" x2="224.5" y2="32" stroke="white"/>
<line x1="238.5" y1="23" x2="238.5" y2="32" stroke="white"/>
<line x1="252.5" y1="23" x2="252.5" y2="32" stroke="white"/>
<line x1="266.5" y1="23" x2="266.5" y2="32" stroke="white"/>
<line x1="280.5" y1="23" x2="280.5" y2="32" stroke="white"/>
<line x1="294.5" y1="23" x2="294.5" y2="32" stroke="white"/>
<line x1="308.5" y1="23" x2="308.5" y2="32" stroke="white"/>
<line x1="322.5" y1="23" x2="322.5" y2="32" stroke="white"/>
<line x1="336.5" y1="23" x2="336.5" y2="32" stroke="white"/>
<line x1="350.5" y1="23" x2="350.5" y2="32" stroke="white"/>
<line x1="364.5" y1="23" x2="364.5" y2="32" stroke="white"/>
<line x1="378.5" y1="23" x2="378.5" y2="32" stroke="white"/>
<line x1="392.5" y1="23" x2="392.5" y2="32" stroke="white"/>
<line x1="406.5" y1="23" x2="406.5" y2="32" stroke="white"/>
<line x1="420.5" y1="23" x2="420.5" y2="32" stroke="white"/>
<line x1="434.5" y1="23" x2="434.5" y2="32" stroke="white"/>
<rect x="236" width="44" height="23" rx="5" fill="url(#paint0_linear_3086_8120)" fill-opacity="0.13"/>
<path d="M247.366 15L250.721 6.80212H251.524L254.867 15H253.662L250.91 8.06606H251.323L248.547 15H247.366ZM248.961 13.1454V12.1768H253.272V13.1454H248.961ZM258.053 15.1181C257.596 15.1181 257.183 15.0158 256.813 14.811C256.451 14.5984 256.167 14.307 255.962 13.9369C255.758 13.5667 255.655 13.1376 255.655 12.6493V9.38906H256.718V12.6021C256.718 12.9092 256.769 13.1769 256.872 13.4053C256.982 13.6258 257.14 13.7951 257.344 13.9132C257.549 14.0314 257.789 14.0904 258.065 14.0904C258.482 14.0904 258.809 13.9605 259.045 13.7006C259.282 13.4329 259.4 13.0667 259.4 12.6021V9.38906H260.463V12.6493C260.463 13.1376 260.36 13.5667 260.156 13.9369C259.951 14.307 259.667 14.5984 259.305 14.811C258.951 15.0158 258.533 15.1181 258.053 15.1181ZM264.215 17.4688C263.64 17.4688 263.128 17.3625 262.679 17.1499C262.238 16.9373 261.884 16.638 261.616 16.2521L262.301 15.5552C262.53 15.8466 262.801 16.0671 263.116 16.2167C263.431 16.3742 263.805 16.4529 264.238 16.4529C264.813 16.4529 265.266 16.2994 265.597 15.9923C265.935 15.693 266.105 15.2874 266.105 14.7756V13.3817L266.294 12.1177L266.105 10.8656V9.38906H267.168V14.7756C267.168 15.3111 267.042 15.7796 266.79 16.1813C266.546 16.5829 266.199 16.8979 265.75 17.1263C265.309 17.3546 264.798 17.4688 264.215 17.4688ZM264.215 14.9055C263.703 14.9055 263.242 14.7834 262.833 14.5393C262.431 14.2952 262.112 13.9605 261.876 13.5352C261.64 13.1021 261.522 12.6178 261.522 12.0823C261.522 11.5468 261.64 11.0704 261.876 10.653C262.112 10.2277 262.431 9.89306 262.833 9.64894C263.242 9.39694 263.703 9.27094 264.215 9.27094C264.656 9.27094 265.046 9.35756 265.384 9.53081C265.723 9.70406 265.991 9.94819 266.187 10.2632C266.392 10.5703 266.502 10.9326 266.518 11.3499V12.8383C266.495 13.2478 266.38 13.6101 266.176 13.9251C265.979 14.2322 265.711 14.4724 265.372 14.6456C265.034 14.8189 264.648 14.9055 264.215 14.9055ZM264.427 13.9014C264.774 13.9014 265.077 13.8266 265.337 13.677C265.605 13.5274 265.809 13.3187 265.951 13.0509C266.093 12.7753 266.164 12.4564 266.164 12.0941C266.164 11.7319 266.089 11.4169 265.939 11.1491C265.798 10.8735 265.597 10.6609 265.337 10.5112C265.077 10.3537 264.77 10.275 264.416 10.275C264.061 10.275 263.75 10.3537 263.482 10.5112C263.215 10.6609 263.002 10.8735 262.845 11.1491C262.695 11.4169 262.62 11.7279 262.62 12.0823C262.62 12.4367 262.695 12.7517 262.845 13.0273C263.002 13.3029 263.215 13.5195 263.482 13.677C263.758 13.8266 264.073 13.9014 264.427 13.9014Z" fill="white"/>
<defs>
<linearGradient id="paint0_linear_3086_8120" x1="250.296" y1="1.26907e-06" x2="265.704" y2="23" gradientUnits="userSpaceOnUse">
<stop stop-color="#D9D9D9"/>
<stop offset="1" stop-color="#737373"/>
</linearGradient>
</defs>
</svg>
