<svg width="1598" height="978" viewBox="0 0 1598 978" fill="none" xmlns="http://www.w3.org/2000/svg">
<path d="M94 0L175.406 47V141L94 188L12.5936 141V47L94 0Z" fill="#393e4680"/>
<path d="M188 158L269.406 205V299L188 346L106.594 299V205L188 158Z" fill="#393e4680"/>
<path d="M94 316L175.406 363V457L94 504L12.5936 457V363L94 316Z" fill="#393e4680"/>
<path d="M188 474L269.406 521V615L188 662L106.594 615V521L188 474Z" fill="#393e4680"/>
<path d="M94 632L175.406 679V773L94 820L12.5936 773V679L94 632Z" fill="#393e4680"/>
<path d="M188 790L269.406 837V931L188 978L106.594 931V837L188 790Z" fill="#393e4680"/>
<path d="M282 0L363.406 47V141L282 188L200.594 141V47L282 0Z" fill="#393e4680"/>
<path d="M376 158L457.406 205V299L376 346L294.594 299V205L376 158Z" fill="#393e4680"/>
<path d="M282 316L363.406 363V457L282 504L200.594 457V363L282 316Z" fill="#393e4680"/>
<path d="M376 474L457.406 521V615L376 662L294.594 615V521L376 474Z" fill="#393e4680"/>
<path d="M282 632L363.406 679V773L282 820L200.594 773V679L282 632Z" fill="#393e4680"/>
<path d="M376 790L457.406 837V931L376 978L294.594 931V837L376 790Z" fill="#393e4680"/>
<path d="M470 0L551.406 47V141L470 188L388.594 141V47L470 0Z" fill="#393e4680"/>
<path d="M564 158L645.406 205V299L564 346L482.594 299V205L564 158Z" fill="#393e4680"/>
<path d="M470 316L551.406 363V457L470 504L388.594 457V363L470 316Z" fill="#393e4680"/>
<path d="M564 474L645.406 521V615L564 662L482.594 615V521L564 474Z" fill="#393e4680"/>
<path d="M470 632L551.406 679V773L470 820L388.594 773V679L470 632Z" fill="#393e4680"/>
<path d="M564 790L645.406 837V931L564 978L482.594 931V837L564 790Z" fill="#393e4680"/>
<path d="M658 0L739.406 47V141L658 188L576.594 141V47L658 0Z" fill="#393e4680"/>
<path d="M752 158L833.406 205V299L752 346L670.594 299V205L752 158Z" fill="#393e4680"/>
<path d="M658 316L739.406 363V457L658 504L576.594 457V363L658 316Z" fill="#393e4680"/>
<path d="M752 474L833.406 521V615L752 662L670.594 615V521L752 474Z" fill="#393e4680"/>
<path d="M658 632L739.406 679V773L658 820L576.594 773V679L658 632Z" fill="#393e4680"/>
<path d="M752 790L833.406 837V931L752 978L670.594 931V837L752 790Z" fill="#393e4680"/>
<path d="M846 0L927.406 47V141L846 188L764.594 141V47L846 0Z" fill="#393e4680"/>
<path d="M940 158L1021.41 205V299L940 346L858.594 299V205L940 158Z" fill="#393e4680"/>
<path d="M846 316L927.406 363V457L846 504L764.594 457V363L846 316Z" fill="#393e4680"/>
<path d="M940 474L1021.41 521V615L940 662L858.594 615V521L940 474Z" fill="#393e4680"/>
<path d="M846 632L927.406 679V773L846 820L764.594 773V679L846 632Z" fill="#393e4680"/>
<path d="M940 790L1021.41 837V931L940 978L858.594 931V837L940 790Z" fill="#393e4680"/>
<path d="M1034 0L1115.41 47V141L1034 188L952.594 141V47L1034 0Z" fill="#393e4680"/>
<path d="M1128 158L1209.41 205V299L1128 346L1046.59 299V205L1128 158Z" fill="#393e4680"/>
<path d="M1034 316L1115.41 363V457L1034 504L952.594 457V363L1034 316Z" fill="#393e4680"/>
<path d="M1128 474L1209.41 521V615L1128 662L1046.59 615V521L1128 474Z" fill="#393e4680"/>
<path d="M1034 632L1115.41 679V773L1034 820L952.594 773V679L1034 632Z" fill="#393e4680"/>
<path d="M1128 790L1209.41 837V931L1128 978L1046.59 931V837L1128 790Z" fill="#393e4680"/>
<path d="M1222 0L1303.41 47V141L1222 188L1140.59 141V47L1222 0Z" fill="#393e4680"/>
<path d="M1316 158L1397.41 205V299L1316 346L1234.59 299V205L1316 158Z" fill="#393e4680"/>
<path d="M1222 316L1303.41 363V457L1222 504L1140.59 457V363L1222 316Z" fill="#393e4680"/>
<path d="M1316 474L1397.41 521V615L1316 662L1234.59 615V521L1316 474Z" fill="#393e4680"/>
<path d="M1222 632L1303.41 679V773L1222 820L1140.59 773V679L1222 632Z" fill="#393e4680"/>
<path d="M1316 790L1397.41 837V931L1316 978L1234.59 931V837L1316 790Z" fill="#393e4680"/>
<path d="M1410 0L1491.41 47V141L1410 188L1328.59 141V47L1410 0Z" fill="#393e4680"/>
<path d="M1504 158L1585.41 205V299L1504 346L1422.59 299V205L1504 158Z" fill="#393e4680"/>
<path d="M1410 316L1491.41 363V457L1410 504L1328.59 457V363L1410 316Z" fill="#393e4680"/>
<path d="M1504 474L1585.41 521V615L1504 662L1422.59 615V521L1504 474Z" fill="#393e4680"/>
<path d="M1410 632L1491.41 679V773L1410 820L1328.59 773V679L1410 632Z" fill="#393e4680"/>
<path d="M1504 790L1585.41 837V931L1504 978L1422.59 931V837L1504 790Z" fill="#393e4680"/>
<path fill-rule="evenodd" clip-rule="evenodd" d="M1219.63 356.727H1168.73V407.636H1219.64V356.727H1219.63Z" fill="white"/>
<path fill-rule="evenodd" clip-rule="evenodd" d="M1275.99 356.727H1225.08V407.636H1275.99V356.727Z" fill="white"/>
<path fill-rule="evenodd" clip-rule="evenodd" d="M1219.63 413.086H1168.73V463.996H1219.64V413.086H1219.63Z" fill="white"/>
<path fill-rule="evenodd" clip-rule="evenodd" d="M1275.99 413.086H1225.08V463.996H1275.99V413.086Z" fill="white"/>
<g clip-path="url(#clip0_3073_17260)">
<path fill-rule="evenodd" clip-rule="evenodd" d="M348.992 525.454C359.263 525.454 367.849 530.453 378.115 543.561L379.628 541.561C380.647 540.241 381.682 538.965 382.738 537.752L384.417 535.875C390.242 529.68 396.699 525.454 404.385 525.454C411.213 525.454 417.628 528.442 423.109 533.585L424.278 534.727C433.557 544.194 439.923 559.989 440.653 577.774L440.712 579.877L440.723 581.218C440.723 589.268 439.221 596.016 436.335 601.063L435.584 602.296L435.005 603.117C433.391 605.369 431.444 607.182 429.18 608.528L427.759 609.29L427.292 609.505C426.763 609.74 426.222 609.952 425.673 610.137C423.372 610.898 420.962 611.275 418.539 611.253C415.729 611.253 413.197 610.894 410.827 610.1C407.534 609.006 404.589 607.096 401.569 604.114L400.352 602.854C396.313 598.499 392.124 592.256 386.981 583.621L379.311 570.695L376.393 565.894L366.922 582.682L365.082 585.857C352.746 606.742 345.398 611.269 335.363 611.269C328.873 611.269 323.537 609.016 319.616 604.93L318.715 603.943C316.119 600.869 314.226 596.911 313.121 592.202L312.762 590.486C312.347 588.204 312.103 585.895 312.032 583.578L312 581.599C312.011 577.603 312.322 573.607 312.933 569.638L313.47 566.565C315.068 558.359 317.911 550.7 321.708 544.269L322.829 542.445C329.142 532.63 337.787 526.071 347.581 525.497L348.992 525.454ZM348.815 539.479L347.737 539.533C343.285 539.978 339.123 543.143 335.658 547.991L334.918 549.059L334.864 549.155C331.271 554.61 328.509 561.909 327.055 569.778L327.034 569.896C326.301 573.884 325.93 577.93 325.923 581.985L325.934 582.993C325.956 583.958 326.025 584.924 326.149 585.889L326.379 587.45C326.873 590.148 327.758 592.32 328.986 593.929L329.614 594.664C331.239 596.396 333.357 597.303 335.889 597.303C341.789 597.303 345.521 593.677 355.712 577.774L367.378 559.539L369.813 555.779L369.067 554.717C360.861 543.153 355.358 539.485 348.815 539.485V539.479ZM403.5 536.519L402.556 536.556C399.151 536.814 395.997 538.482 392.795 541.561L391.744 542.622C389.389 545.1 386.986 548.329 384.412 552.314L385.838 554.449C386.804 555.918 387.78 557.452 388.788 559.051L390.36 561.598L397.847 574.122L401.575 580.097C404.702 585.063 407.099 588.678 409.127 591.264L410.269 592.669C411.781 594.417 413.106 595.565 414.436 596.278L414.983 596.546C416.201 597.083 417.434 597.287 418.834 597.287C419.778 597.297 420.712 597.163 421.613 596.895C423.425 596.337 424.884 595.179 425.973 593.479L426.483 592.604L426.896 591.735C427.936 589.274 428.451 586.05 428.451 582.162L428.419 579.754C427.99 564.355 423.388 550.941 416.619 543.293L415.675 542.279C412.082 538.616 407.93 536.519 403.5 536.519Z" fill="white"/>
</g>
<g clip-path="url(#clip1_3073_17260)">
<path fill-rule="evenodd" clip-rule="evenodd" d="M909.371 375.038C908.008 374.373 907.418 375.644 906.625 376.293C906.351 376.502 906.12 376.776 905.89 377.023C903.895 379.152 901.567 380.546 898.526 380.38C894.08 380.133 890.282 381.528 886.925 384.928C886.211 380.734 883.841 378.235 880.236 376.626C878.349 375.789 876.439 374.958 875.114 373.139C874.192 371.847 873.94 370.404 873.479 368.988C873.184 368.13 872.889 367.256 871.907 367.111C870.834 366.945 870.416 367.84 869.998 368.591C868.319 371.659 867.67 375.038 867.734 378.46C867.879 386.162 871.129 392.298 877.592 396.658C878.327 397.157 878.515 397.661 878.284 398.391C877.844 399.892 877.319 401.351 876.858 402.858C876.563 403.818 876.123 404.022 875.093 403.609C871.613 402.114 868.453 399.965 865.782 397.28C861.186 392.839 857.034 387.937 851.853 384.097C850.653 383.21 849.42 382.367 848.158 381.571C842.875 376.438 848.855 372.222 850.239 371.724C851.687 371.198 850.738 369.407 846.061 369.428C841.384 369.449 837.104 371.01 831.649 373.097C830.839 373.407 830.005 373.653 829.155 373.831C824.058 372.871 818.845 372.687 813.692 373.284C803.582 374.411 795.51 379.195 789.573 387.353C782.44 397.157 780.761 408.302 782.815 419.919C784.976 432.169 791.23 442.312 800.836 450.239C810.801 458.461 822.274 462.489 835.366 461.717C843.315 461.261 852.17 460.193 862.151 451.741C864.672 452.996 867.311 453.495 871.698 453.87C875.077 454.186 878.327 453.709 880.843 453.183C884.785 452.347 884.511 448.694 883.09 448.029C871.532 442.644 874.069 444.838 871.757 443.063C877.635 436.112 886.485 428.892 889.95 405.502C890.218 403.641 889.987 402.472 889.95 400.97C889.928 400.059 890.137 399.699 891.183 399.597C894.085 399.296 896.9 398.431 899.47 397.05C906.957 392.957 909.982 386.242 910.695 378.186C910.803 376.953 910.674 375.687 909.371 375.038ZM844.114 447.541C832.909 438.734 827.476 435.833 825.234 435.956C823.132 436.085 823.513 438.482 823.974 440.048C824.457 441.593 825.084 442.655 825.964 444.012C826.575 444.908 826.994 446.243 825.358 447.246C821.748 449.477 815.478 446.495 815.183 446.35C807.884 442.049 801.775 436.374 797.479 428.614C793.327 421.142 790.914 413.129 790.517 404.575C790.41 402.504 791.016 401.775 793.075 401.399C795.779 400.882 798.549 400.811 801.276 401.19C812.711 402.864 822.44 407.975 830.603 416.068C835.259 420.681 838.782 426.189 842.414 431.574C846.275 437.292 850.426 442.741 855.715 447.203C857.581 448.769 859.067 449.96 860.494 450.834C856.192 451.317 849.016 451.424 844.114 447.541ZM849.477 413.001C849.476 412.734 849.54 412.471 849.663 412.235C849.787 411.999 849.966 411.796 850.185 411.645C850.404 411.493 850.657 411.397 850.921 411.365C851.186 411.333 851.454 411.366 851.703 411.461C852.02 411.575 852.294 411.785 852.486 412.062C852.679 412.339 852.78 412.669 852.776 413.006C852.776 413.224 852.734 413.439 852.65 413.641C852.567 413.842 852.444 414.024 852.289 414.178C852.135 414.331 851.951 414.452 851.749 414.533C851.547 414.615 851.331 414.655 851.113 414.652C850.897 414.653 850.683 414.611 850.483 414.528C850.284 414.445 850.103 414.323 849.951 414.169C849.799 414.015 849.679 413.833 849.599 413.632C849.519 413.431 849.474 413.217 849.477 413.001ZM866.157 421.561C865.085 421.995 864.017 422.37 862.993 422.419C861.452 422.472 859.94 421.991 858.713 421.056C857.243 419.823 856.192 419.136 855.752 416.991C855.601 415.943 855.63 414.876 855.838 413.837C856.214 412.083 855.795 410.957 854.556 409.938C853.553 409.101 852.272 408.871 850.866 408.871C850.385 408.843 849.918 408.699 849.504 408.452C848.914 408.163 848.431 407.433 848.893 406.532C849.043 406.243 849.751 405.535 849.922 405.406C851.832 404.323 854.036 404.676 856.069 405.492C857.957 406.264 859.383 407.68 861.438 409.686C863.535 412.105 863.916 412.775 865.112 414.588C866.056 416.009 866.914 417.468 867.498 419.136C867.858 420.182 867.396 421.035 866.157 421.561Z" fill="white"/>
</g>
<path fill-rule="evenodd" clip-rule="evenodd" d="M709.587 399.657C710.926 395.686 711.391 391.472 710.948 387.305C710.506 383.138 709.167 379.117 707.023 375.516C700.496 364.306 687.383 358.535 674.575 361.249C671.738 358.108 668.268 355.603 664.394 353.9C660.52 352.196 656.329 351.332 652.096 351.364C639.004 351.337 627.387 359.656 623.359 371.949C619.219 372.778 615.302 374.478 611.869 376.935C608.435 379.393 605.564 382.553 603.445 386.205C600.242 391.645 598.873 397.971 599.54 404.248C600.207 410.526 602.876 416.422 607.151 421.067C605.81 425.038 605.344 429.253 605.786 433.421C606.228 437.589 607.566 441.612 609.709 445.214C616.237 456.423 629.35 462.189 642.158 459.48C644.994 462.621 648.463 465.125 652.336 466.827C656.21 468.53 660.4 469.393 664.631 469.36C677.734 469.392 689.356 461.068 693.384 448.764C697.527 447.936 701.447 446.235 704.882 443.775C708.318 441.315 711.19 438.153 713.309 434.497C716.506 429.058 717.871 422.735 717.202 416.461C716.533 410.187 713.865 404.294 709.593 399.651L709.587 399.657ZM664.636 461.647C659.405 461.66 654.332 459.851 650.289 456.53C650.471 456.434 650.788 456.262 650.997 456.134L674.811 442.564C675.405 442.232 675.9 441.747 676.243 441.16C676.586 440.572 676.766 439.903 676.763 439.223V406.098L686.83 411.832C686.937 411.885 687.007 411.987 687.023 412.1V439.534C687.007 451.73 676.994 461.62 664.636 461.647ZM616.489 441.363C613.864 436.898 612.917 431.644 613.818 426.543C613.989 426.651 614.3 426.838 614.52 426.962L638.334 440.531C639.541 441.229 641.037 441.229 642.249 440.531L671.319 423.969V435.436C671.321 435.495 671.309 435.553 671.284 435.607C671.259 435.66 671.221 435.706 671.174 435.742L647.103 449.451C636.382 455.544 622.689 451.918 616.494 441.352L616.489 441.363ZM610.219 390.067C612.854 385.572 616.982 382.144 621.884 380.38L621.873 381.19V408.329C621.87 409.011 622.05 409.68 622.393 410.269C622.736 410.858 623.231 411.343 623.826 411.676L652.896 428.233L642.834 433.972C642.784 434.004 642.727 434.023 642.668 434.028C642.609 434.032 642.55 434.022 642.496 433.999L618.419 420.274C607.719 414.159 604.051 400.654 610.213 390.077L610.219 390.067ZM692.907 409.053L663.837 392.491L673.899 386.763C673.948 386.73 674.005 386.71 674.064 386.704C674.123 386.699 674.182 386.708 674.237 386.731L698.313 400.445C709.029 406.559 712.703 420.086 706.514 430.657C703.877 435.149 699.752 438.577 694.854 440.349V412.4C694.857 411.72 694.678 411.051 694.336 410.464C693.994 409.876 693.5 409.391 692.907 409.059V409.053ZM702.92 394.18C702.686 394.038 702.45 393.899 702.212 393.762L678.399 380.193C677.804 379.851 677.13 379.67 676.444 379.67C675.758 379.67 675.084 379.851 674.489 380.193L645.419 396.755V385.288C645.417 385.229 645.429 385.17 645.454 385.117C645.479 385.064 645.517 385.018 645.564 384.982L669.63 371.279C680.356 365.18 694.06 368.811 700.239 379.393C702.851 383.861 703.805 389.096 702.92 394.18ZM639.948 414.615L629.881 408.887C629.829 408.861 629.783 408.823 629.75 408.775C629.716 408.727 629.695 408.672 629.688 408.613V381.18C629.693 368.967 639.734 359.071 652.113 359.082C657.347 359.082 662.41 360.895 666.438 364.199C666.256 364.295 665.945 364.467 665.736 364.59L641.922 378.16C641.327 378.491 640.831 378.975 640.487 379.563C640.142 380.151 639.962 380.82 639.964 381.501L639.948 414.61V414.615ZM645.419 402.987L658.366 395.613L671.314 402.987V417.737L658.366 425.111L645.414 417.737V402.987H645.419Z" fill="white"/>
<g clip-path="url(#clip2_3073_17260)">
<path fill-rule="evenodd" clip-rule="evenodd" d="M894.386 522.238H912.777V540.624H931.168V559.015H931.158H949.56V540.624H967.94V522.238H986.337V595.792H1004.72V614.184H949.554V595.798H931.168V577.407H912.772V595.792L931.168 595.798V614.184H876V595.792H894.386V522.238ZM949.554 595.798H967.94V577.407H949.56V595.798H949.554Z" fill="white"/>
</g>
<g clip-path="url(#clip3_3073_17260)">
<path fill-rule="evenodd" clip-rule="evenodd" d="M752.361 632.723C749.908 616.53 742.337 601.547 730.756 589.966C719.176 578.385 704.193 570.815 688 568.361C704.193 565.908 719.176 558.337 730.756 546.756C742.337 535.176 749.908 520.193 752.361 504C754.815 520.193 762.386 535.175 773.967 546.756C785.548 558.336 800.53 565.907 816.723 568.361C800.53 570.815 785.548 578.386 773.967 589.967C762.386 601.548 754.815 616.53 752.361 632.723Z" fill="white"/>
</g>
<g clip-path="url(#clip4_3073_17260)">
<path fill-rule="evenodd" clip-rule="evenodd" d="M831.718 743.589L874.507 711.962C876.604 710.406 879.602 711.012 880.605 713.421C885.861 726.126 883.512 741.39 873.043 751.87C862.579 762.35 848.012 764.646 834.7 759.411L820.16 766.153C841.018 780.425 866.344 776.896 882.171 761.042C894.727 748.47 898.615 731.334 894.979 715.882L895.011 715.92C889.739 693.222 896.309 684.148 909.76 665.596C910.082 665.156 910.404 664.716 910.72 664.266L893.016 681.991V681.938L831.702 743.6M822.885 751.275C807.91 736.955 810.495 714.799 823.265 702.018C832.71 692.563 848.189 688.701 861.699 694.375L876.207 687.671C873.192 685.453 869.892 683.649 866.397 682.308C857.611 678.712 847.958 677.794 838.651 679.67C829.345 681.546 820.801 686.133 814.094 692.852C800.509 706.454 796.234 727.371 803.571 745.22C809.053 758.558 800.069 767.992 791.021 777.518C787.808 780.897 784.59 784.27 782 787.842L822.869 751.291" fill="white"/>
</g>
<path fill-rule="evenodd" clip-rule="evenodd" d="M567.603 195.188C569.711 198.889 571.808 202.6 573.9 206.317C573.984 206.466 574.107 206.589 574.255 206.675C574.403 206.761 574.571 206.805 574.742 206.805H604.52C605.453 206.805 606.247 207.395 606.912 208.559L614.71 222.343C615.729 224.15 615.998 224.907 614.839 226.832C613.445 229.138 612.088 231.466 610.763 233.804L608.794 237.334C608.226 238.385 607.598 238.835 608.58 240.08L622.804 264.95C623.726 266.564 623.399 267.6 622.573 269.08C620.229 273.29 617.843 277.468 615.413 281.63C614.56 283.089 613.525 283.642 611.766 283.615C607.598 283.529 603.442 283.561 599.285 283.701C599.196 283.705 599.109 283.732 599.034 283.779C598.958 283.826 598.895 283.891 598.851 283.969C594.055 292.466 589.219 300.94 584.343 309.391C583.436 310.963 582.304 311.338 580.454 311.344C575.107 311.36 569.716 311.365 564.273 311.354C563.766 311.353 563.268 311.218 562.83 310.963C562.392 310.708 562.03 310.341 561.779 309.901L554.618 297.442C554.577 297.36 554.513 297.292 554.434 297.246C554.355 297.199 554.265 297.176 554.173 297.179H526.723C525.195 297.34 523.757 297.174 522.406 296.685L513.808 281.829C513.554 281.389 513.419 280.89 513.417 280.382C513.415 279.874 513.546 279.374 513.797 278.932L520.271 267.562C520.363 267.401 520.412 267.219 520.412 267.034C520.412 266.848 520.363 266.666 520.271 266.505C516.899 260.667 513.547 254.817 510.214 248.956L505.977 241.474C505.119 239.812 505.049 238.814 506.487 236.298C508.981 231.938 511.459 227.583 513.926 223.233C514.634 221.978 515.556 221.442 517.058 221.436C521.687 221.417 526.315 221.415 530.944 221.431C531.061 221.43 531.176 221.398 531.276 221.339C531.377 221.28 531.461 221.195 531.518 221.093L546.568 194.839C546.796 194.44 547.125 194.107 547.523 193.876C547.92 193.644 548.371 193.521 548.831 193.52C551.642 193.514 554.479 193.52 557.322 193.488L562.776 193.364C564.605 193.348 566.659 193.536 567.603 195.188ZM549.196 197.349C549.139 197.349 549.084 197.364 549.035 197.392C548.986 197.421 548.945 197.461 548.917 197.51L533.545 224.408C533.472 224.535 533.366 224.64 533.239 224.713C533.112 224.787 532.968 224.825 532.821 224.826H517.45C517.149 224.826 517.074 224.96 517.23 225.223L548.391 279.694C548.525 279.919 548.461 280.027 548.209 280.032L533.218 280.112C532.999 280.105 532.782 280.16 532.593 280.27C532.403 280.38 532.248 280.541 532.146 280.735L525.066 293.124C524.83 293.542 524.953 293.757 525.431 293.757L556.088 293.8C556.335 293.8 556.517 293.907 556.646 294.127L564.171 307.289C564.417 307.723 564.664 307.729 564.916 307.289L591.766 260.305L595.965 252.893C595.991 252.847 596.028 252.809 596.073 252.783C596.119 252.756 596.17 252.742 596.223 252.742C596.275 252.742 596.327 252.756 596.372 252.783C596.417 252.809 596.454 252.847 596.48 252.893L604.118 266.462C604.175 266.564 604.258 266.648 604.359 266.707C604.46 266.765 604.575 266.796 604.691 266.795L619.511 266.688C619.549 266.688 619.586 266.678 619.619 266.659C619.652 266.641 619.679 266.613 619.698 266.58C619.717 266.548 619.726 266.511 619.726 266.473C619.726 266.436 619.717 266.399 619.698 266.366L604.144 239.087C604.088 238.996 604.059 238.891 604.059 238.784C604.059 238.677 604.088 238.573 604.144 238.481L605.716 235.762L611.723 225.159C611.852 224.939 611.787 224.826 611.535 224.826H549.346C549.03 224.826 548.955 224.687 549.115 224.413L556.807 210.978C556.864 210.886 556.895 210.78 556.895 210.672C556.895 210.564 556.864 210.458 556.807 210.366L549.48 197.515C549.452 197.465 549.411 197.422 549.361 197.393C549.311 197.364 549.254 197.349 549.196 197.349ZM582.932 240.364C583.179 240.364 583.243 240.471 583.114 240.686L578.652 248.543L564.637 273.135C564.611 273.182 564.572 273.222 564.525 273.25C564.478 273.277 564.424 273.291 564.369 273.29C564.315 273.29 564.261 273.275 564.214 273.248C564.167 273.221 564.128 273.182 564.101 273.135L545.581 240.782C545.474 240.6 545.527 240.503 545.731 240.493L546.89 240.428L582.943 240.364H582.932Z" fill="white"/>
<g clip-path="url(#clip5_3073_17260)">
<path fill-rule="evenodd" clip-rule="evenodd" d="M901.256 273.572L926.571 259.375L927 258.142L926.571 257.455H925.343L921.106 257.198L906.635 256.806L894.091 256.286L881.937 255.632L878.875 254.983L876 251.202L876.295 249.314L878.869 247.592L882.549 247.914L890.701 248.466L902.919 249.314L911.779 249.834L924.914 251.202H927L927.295 250.359L926.576 249.834L926.024 249.314L913.377 240.754L899.69 231.7L892.524 226.487L888.641 223.854L886.689 221.376L885.842 215.97L889.36 212.097L894.085 212.419L895.292 212.746L900.081 216.426L910.315 224.342L923.675 234.173L925.632 235.803L926.41 235.251L926.512 234.859L925.632 233.39L918.365 220.271L910.61 206.916L907.156 201.382L906.244 198.062C905.896 196.787 905.709 195.473 905.686 194.152L909.698 188.719L911.913 188L917.255 188.719L919.507 190.671L922.833 198.255L928.207 210.21L936.547 226.46L938.992 231.277L940.296 235.739L940.784 237.107H941.631V236.324L942.318 227.174L943.589 215.938L944.822 201.483L945.251 197.407L947.268 192.527L951.274 189.888L954.407 191.39L956.981 195.064L956.622 197.445L955.088 207.372L952.09 222.942L950.137 233.358H951.274L952.578 232.06L957.861 225.055L966.721 213.985L970.636 209.587L975.195 204.739L978.129 202.427H983.669L987.745 208.483L985.922 214.736L980.215 221.961L975.49 228.086L968.711 237.203L964.474 244.497L964.865 245.087L965.873 244.98L981.191 241.73L989.467 240.228L999.341 238.539L1003.81 240.62L1004.3 242.738L1002.54 247.066L991.977 249.673L979.593 252.151L961.148 256.511L960.923 256.672L961.186 256.999L969.494 257.782L973.044 257.975H981.743L997.941 259.182L1002.18 261.982L1004.72 265.404L1004.3 268.005L997.78 271.33L988.984 269.244L968.448 264.363L961.411 262.599H960.435V263.189L966.297 268.917L977.056 278.624L990.513 291.121L991.194 294.221L989.467 296.661L987.643 296.398L975.817 287.511L971.253 283.505L960.923 274.816H960.237V275.728L962.618 279.209L975.195 298.093L975.849 303.886L974.937 305.779L971.677 306.921L968.094 306.267L960.725 295.942L953.135 284.32L947.005 273.899L946.254 274.328L942.639 313.234L940.945 315.218L937.035 316.72L933.779 314.247L932.052 310.241L933.779 302.325L935.866 292.006L937.555 283.8L939.089 273.61L940.001 270.22L939.936 269.995L939.185 270.091L931.494 280.641L919.802 296.436L910.545 306.331L908.325 307.211L904.479 305.226L904.839 301.676L906.989 298.517L919.797 282.234L927.52 272.14L932.508 266.315L932.476 265.468H932.181L898.161 287.543L892.101 288.327L889.489 285.881L889.816 281.88L891.055 280.576L901.288 273.54L901.256 273.572Z" fill="white"/>
</g>
<defs>
<clipPath id="clip0_3073_17260">
<rect width="128.723" height="128.723" fill="white" transform="translate(312 504)"/>
</clipPath>
<clipPath id="clip1_3073_17260">
<rect width="128.723" height="128.723" fill="white" transform="translate(782 351)"/>
</clipPath>
<clipPath id="clip2_3073_17260">
<rect width="128.723" height="128.723" fill="white" transform="translate(876 504)"/>
</clipPath>
<clipPath id="clip3_3073_17260">
<rect width="128.723" height="128.723" fill="white" transform="translate(688 504)"/>
</clipPath>
<clipPath id="clip4_3073_17260">
<rect width="128.72" height="128.72" fill="white" transform="translate(782 662)"/>
</clipPath>
<clipPath id="clip5_3073_17260">
<rect width="128.72" height="128.72" fill="white" transform="translate(876 188)"/>
</clipPath>
</defs>
</svg>
