<svg width="213" height="213" viewBox="0 0 213 213" fill="none" xmlns="http://www.w3.org/2000/svg">
<path d="M34.5001 49.3456L10 29.3959L34.5001 10V49.3456Z" fill="#F2F2F2"/>
<path d="M34.5 49.3456L59.0001 29.3959L34.5 10V49.3456Z" fill="#CECECE"/>
<path d="M34.5007 59.0004C42.3937 59.0004 48.7924 52.6018 48.7924 44.7087C48.7924 36.8156 42.3937 30.417 34.5007 30.417C26.6076 30.417 20.209 36.8156 20.209 44.7087C20.209 52.6018 26.6076 59.0004 34.5007 59.0004Z" fill="white"/>
<path d="M21.583 38.5838C23.8768 33.7552 28.7983 30.417 34.4994 30.417C40.2006 30.417 45.122 33.7552 47.4159 38.5838H21.583Z" fill="#E7E7E7"/>
<path d="M75 9.61426V46.828C75 46.828 90.8167 45.163 90.8167 59.1377V23.9196C90.8167 10.6114 75 9.61426 75 9.61426Z" fill="#231F1F"/>
<path d="M82.4082 7V39.7443C82.4082 39.7443 91.1399 41.2683 91.1399 55.2417C91.1399 69.2164 91.1838 29.2444 91.1838 21.7578C91.1852 8.45092 82.4082 7 82.4082 7Z" fill="#AAAAAA"/>
<path d="M91.4229 23.5871C91.4229 23.5871 99.4463 3.08224 131 23.8752C131 31.363 130.939 54.0177 130.939 63.0002C99.017 38.2143 91.4229 57.4533 91.4229 57.4533V23.5871ZM94.4316 48.9357H101.506L103.791 34.6945H103.863L110.141 48.9357H112.972L119.538 34.6945H119.61L121.605 48.9357H128.723L124.582 24.1994H117.508L111.629 37.4191L106.077 24.1994H99.0752L94.4316 48.9357Z" fill="white"/>
<path d="M176.855 35.0973L163.123 51.31C162.511 51.97 162.132 53.1274 162.474 53.9585C162.644 54.3767 162.934 54.7337 163.307 54.9836C163.679 55.2335 164.117 55.3648 164.564 55.3606C165.083 55.3606 165.509 55.1767 166.067 54.609L183.057 36.7864C183.599 36.2398 183.905 35.4986 183.908 34.7245C183.912 33.9503 183.613 33.2061 183.077 32.6543L176.855 35.0973Z" fill="white"/>
<path d="M176.57 34.7588L189.278 18.4903C189.987 17.5335 190.323 17.0324 189.987 16.2177C189.81 15.7866 189.516 15.4149 189.139 15.1457C188.762 14.8765 188.318 14.7208 187.857 14.6964C187.595 14.6815 187.333 14.7211 187.087 14.8128C186.841 14.9045 186.616 15.0464 186.427 15.2297L170.181 32.6527C168.942 33.9057 168.945 35.5268 170.188 36.7848L192.91 60.8987C193.101 61.1004 193.334 61.2566 193.593 61.3559C193.851 61.4551 194.127 61.4951 194.403 61.4727C195.322 61.4727 195.918 60.9253 196.317 60.1163C196.659 59.2852 196.281 58.462 195.65 57.5997L176.572 34.7588" fill="#BDB9B4"/>
<path d="M183.077 32.6531L160.888 9.02244C160.888 9.02244 160.073 8.0216 159.212 8.00058C158.775 7.99043 158.345 8.1127 157.978 8.35167C157.61 8.59063 157.322 8.93538 157.149 9.3416C156.814 10.1563 157.055 10.7283 157.791 11.7944L176.855 35.097L183.077 32.6531Z" fill="white"/>
<path d="M34.5001 120.346L10 100.396L34.5001 81V120.346Z" fill="#F2F2F2"/>
<path d="M34.5 120.346L59.0001 100.396L34.5 81V120.346Z" fill="#CECECE"/>
<path d="M34.5007 130C42.3937 130 48.7924 123.602 48.7924 115.709C48.7924 107.816 42.3937 101.417 34.5007 101.417C26.6076 101.417 20.209 107.816 20.209 115.709C20.209 123.602 26.6076 130 34.5007 130Z" fill="white"/>
<path d="M21.583 109.584C23.8768 104.755 28.7983 101.417 34.4994 101.417C40.2006 101.417 45.122 104.755 47.4159 109.584H21.583Z" fill="#E7E7E7"/>
<path d="M105.854 106.097L92.1217 122.31C91.5101 122.97 91.1308 124.127 91.4728 124.958C91.6432 125.377 91.9333 125.734 92.3058 125.984C92.6784 126.233 93.1164 126.365 93.5633 126.361C94.0824 126.361 94.5078 126.177 95.0659 125.609L112.056 107.786C112.598 107.24 112.904 106.499 112.907 105.724C112.911 104.95 112.612 104.206 112.076 103.654L105.854 106.097Z" fill="white"/>
<path d="M105.569 105.759L118.277 89.4903C118.986 88.5335 119.322 88.0324 118.986 87.2177C118.809 86.7866 118.515 86.4149 118.138 86.1457C117.761 85.8765 117.317 85.7208 116.856 85.6964C116.594 85.6815 116.332 85.7211 116.086 85.8128C115.84 85.9045 115.615 86.0464 115.426 86.2297L99.1796 103.653C97.9415 104.906 97.9441 106.527 99.1871 107.785L121.909 131.899C122.1 132.1 122.333 132.257 122.592 132.356C122.85 132.455 123.126 132.495 123.402 132.473C124.321 132.473 124.917 131.925 125.316 131.116C125.658 130.285 125.28 129.462 124.649 128.6L105.571 105.759" fill="#BDB9B4"/>
<path d="M112.076 103.653L89.8867 80.0224C89.8867 80.0224 89.072 79.0216 88.2109 79.0006C87.7742 78.9904 87.3444 79.1127 86.9769 79.3517C86.6093 79.5906 86.3208 79.9354 86.1483 80.3416C85.8132 81.1563 86.0539 81.7283 86.7898 82.7944L105.854 106.097L112.076 103.653Z" fill="white"/>
<path fill-rule="evenodd" clip-rule="evenodd" d="M209.034 87.2024C209.034 87.4298 208.962 87.6351 208.823 87.8237C208.679 88.0067 208.529 88.101 208.357 88.101C206.976 88.2341 205.839 88.6779 204.962 89.4378C204.08 90.1922 203.176 91.6399 202.239 93.7699L187.928 126.019C187.834 126.319 187.573 126.469 187.14 126.469C186.802 126.469 186.541 126.319 186.353 126.019L178.326 109.235L169.096 126.019C168.908 126.319 168.647 126.469 168.309 126.469C167.898 126.469 167.626 126.319 167.493 126.019L153.432 93.7699C152.556 91.7675 151.629 90.3697 150.653 89.5765C149.682 88.7833 148.323 88.2896 146.587 88.101C146.437 88.101 146.293 88.0234 146.166 87.8625C146.032 87.7072 145.966 87.5241 145.966 87.3189C145.966 86.792 146.116 86.5312 146.415 86.5312C147.669 86.5312 148.978 86.5867 150.348 86.6977C151.618 86.8141 152.816 86.8696 153.937 86.8696C155.079 86.8696 156.427 86.8141 157.98 86.6977C159.606 86.5867 161.048 86.5312 162.301 86.5312C162.601 86.5312 162.751 86.792 162.751 87.3189C162.751 87.8403 162.656 88.101 162.473 88.101C161.22 88.1953 160.232 88.517 159.511 89.0551C158.79 89.5987 158.43 90.3087 158.43 91.1906C158.43 91.6399 158.579 92.2002 158.879 92.8713L170.5 119.114L177.095 106.655L170.949 93.7699C169.845 91.4735 168.935 89.987 168.225 89.3213C167.515 88.6612 166.439 88.2508 164.997 88.101C164.864 88.101 164.742 88.0234 164.62 87.8625C164.498 87.7072 164.437 87.5241 164.437 87.3189C164.437 86.792 164.564 86.5312 164.831 86.5312C166.084 86.5312 167.233 86.5867 168.281 86.6977C169.29 86.8141 170.367 86.8696 171.509 86.8696C172.63 86.8696 173.817 86.8141 175.07 86.6977C176.363 86.5867 177.633 86.5312 178.887 86.5312C179.186 86.5312 179.336 86.792 179.336 87.3189C179.336 87.8403 179.247 88.101 179.058 88.101C176.551 88.273 175.298 88.983 175.298 90.2366C175.298 90.7968 175.586 91.6677 176.169 92.8436L180.234 101.097L184.278 93.548C184.838 92.483 185.121 91.5845 185.121 90.8523C185.121 89.1327 183.868 88.2175 181.36 88.101C181.133 88.101 181.022 87.8403 181.022 87.3189C181.022 87.1303 181.078 86.9528 181.188 86.7864C181.305 86.6145 181.416 86.5312 181.527 86.5312C182.425 86.5312 183.529 86.5867 184.838 86.6977C186.092 86.8141 187.124 86.8696 187.928 86.8696C188.505 86.8696 189.359 86.8197 190.479 86.7254C191.899 86.5978 193.092 86.5312 194.046 86.5312C194.268 86.5312 194.379 86.7531 194.379 87.2024C194.379 87.8015 194.174 88.101 193.763 88.101C192.304 88.2508 191.128 88.6557 190.241 89.3102C189.353 89.9648 188.244 91.4513 186.918 93.7699L181.527 103.738L188.827 118.609L199.604 93.548C199.976 92.6328 200.164 91.7897 200.164 91.0242C200.164 89.1882 198.911 88.2175 196.404 88.101C196.176 88.101 196.065 87.8403 196.065 87.3189C196.065 86.792 196.232 86.5312 196.57 86.5312C197.485 86.5312 198.572 86.5867 199.826 86.6977C200.985 86.8141 201.962 86.8696 202.744 86.8696C203.57 86.8696 204.524 86.8141 205.606 86.6977C206.732 86.5867 207.741 86.5312 208.64 86.5312C208.901 86.5312 209.034 86.7531 209.034 87.2024Z" fill="white"/>
<path fill-rule="evenodd" clip-rule="evenodd" d="M67.0338 158.202C67.0338 158.43 66.9617 158.635 66.823 158.824C66.6788 159.007 66.529 159.101 66.3571 159.101C64.9759 159.234 63.8388 159.678 62.9624 160.438C62.0804 161.192 61.1763 162.64 60.2389 164.77L45.9279 197.019C45.8336 197.319 45.5729 197.469 45.1403 197.469C44.8019 197.469 44.5412 197.319 44.3526 197.019L36.3263 180.235L27.0963 197.019C26.9077 197.319 26.647 197.469 26.3086 197.469C25.8982 197.469 25.6264 197.319 25.4932 197.019L11.4319 164.77C10.5555 162.767 9.62918 161.37 8.65293 160.576C7.68223 159.783 6.32324 159.29 4.58707 159.101C4.4373 159.101 4.29309 159.023 4.16551 158.862C4.03238 158.707 3.96582 158.524 3.96582 158.319C3.96582 157.792 4.11559 157.531 4.41512 157.531C5.66871 157.531 6.97777 157.587 8.34785 157.698C9.61809 157.814 10.8162 157.87 11.9367 157.87C13.0793 157.87 14.4272 157.814 15.9804 157.698C17.6056 157.587 19.0478 157.531 20.3014 157.531C20.6009 157.531 20.7507 157.792 20.7507 158.319C20.7507 158.84 20.6564 159.101 20.4733 159.101C19.2197 159.195 18.2324 159.517 17.5113 160.055C16.7902 160.599 16.4296 161.309 16.4296 162.191C16.4296 162.64 16.5794 163.2 16.8789 163.871L28.4996 190.114L35.0949 177.655L28.9489 164.77C27.8451 162.474 26.9354 160.987 26.2254 160.321C25.5154 159.661 24.4393 159.251 22.9971 159.101C22.864 159.101 22.742 159.023 22.62 158.862C22.4979 158.707 22.4369 158.524 22.4369 158.319C22.4369 157.792 22.5645 157.531 22.8307 157.531C24.0843 157.531 25.2325 157.587 26.2809 157.698C27.2904 157.814 28.3665 157.87 29.5092 157.87C30.6296 157.87 31.8167 157.814 33.0703 157.698C34.3627 157.587 35.6329 157.531 36.8865 157.531C37.1861 157.531 37.3358 157.792 37.3358 158.319C37.3358 158.84 37.2471 159.101 37.0585 159.101C34.5513 159.273 33.2977 159.983 33.2977 161.237C33.2977 161.797 33.5861 162.668 34.1686 163.844L38.2344 172.097L42.2781 164.548C42.8383 163.483 43.1212 162.584 43.1212 161.852C43.1212 160.133 41.8676 159.217 39.3604 159.101C39.133 159.101 39.0221 158.84 39.0221 158.319C39.0221 158.13 39.0775 157.953 39.1885 157.786C39.305 157.614 39.4159 157.531 39.5268 157.531C40.4254 157.531 41.5293 157.587 42.8383 157.698C44.0919 157.814 45.1236 157.87 45.9279 157.87C46.5048 157.87 47.359 157.82 48.4795 157.725C49.8995 157.598 51.0921 157.531 52.0461 157.531C52.268 157.531 52.3789 157.753 52.3789 158.202C52.3789 158.801 52.1737 159.101 51.7632 159.101C50.3044 159.251 49.1285 159.656 48.241 160.31C47.3535 160.965 46.2441 162.451 44.9184 164.77L39.5268 174.738L46.8265 189.609L57.6041 164.548C57.9757 163.633 58.1643 162.79 58.1643 162.024C58.1643 160.188 56.9107 159.217 54.4036 159.101C54.1761 159.101 54.0652 158.84 54.0652 158.319C54.0652 157.792 54.2316 157.531 54.57 157.531C55.4852 157.531 56.5724 157.587 57.826 157.698C58.9853 157.814 59.9615 157.87 60.7436 157.87C61.5701 157.87 62.5242 157.814 63.6058 157.698C64.7318 157.587 65.7414 157.531 66.64 157.531C66.9007 157.531 67.0338 157.753 67.0338 158.202Z" fill="white"/>
<path d="M105.5 191.346L81 171.396L105.5 152V191.346Z" fill="#F2F2F2"/>
<path d="M105.5 191.346L130 171.396L105.5 152V191.346Z" fill="#CECECE"/>
<path d="M105.501 201C113.394 201 119.792 194.602 119.792 186.709C119.792 178.816 113.394 172.417 105.501 172.417C97.6076 172.417 91.209 178.816 91.209 186.709C91.209 194.602 97.6076 201 105.501 201Z" fill="white"/>
<path d="M92.583 180.584C94.8768 175.755 99.7983 172.417 105.499 172.417C111.201 172.417 116.122 175.755 118.416 180.584H92.583Z" fill="#E7E7E7"/>
<path d="M176.854 177.097L163.122 193.31C162.51 193.97 162.131 195.127 162.473 195.958C162.643 196.377 162.933 196.734 163.306 196.984C163.678 197.233 164.116 197.365 164.563 197.361C165.082 197.361 165.508 197.177 166.066 196.609L183.056 178.786C183.598 178.24 183.904 177.499 183.907 176.724C183.911 175.95 183.612 175.206 183.076 174.654L176.854 177.097Z" fill="white"/>
<path d="M176.569 176.759L189.277 160.49C189.986 159.533 190.322 159.032 189.986 158.218C189.809 157.787 189.515 157.415 189.138 157.146C188.761 156.877 188.317 156.721 187.856 156.696C187.594 156.681 187.332 156.721 187.086 156.813C186.84 156.905 186.615 157.046 186.426 157.23L170.18 174.653C168.941 175.906 168.944 177.527 170.187 178.785L192.909 202.899C193.1 203.1 193.333 203.257 193.592 203.356C193.85 203.455 194.126 203.495 194.402 203.473C195.321 203.473 195.917 202.925 196.316 202.116C196.658 201.285 196.28 200.462 195.649 199.6L176.571 176.759" fill="#BDB9B4"/>
<path d="M183.076 174.653L160.887 151.022C160.887 151.022 160.072 150.022 159.211 150.001C158.774 149.99 158.344 150.113 157.977 150.352C157.609 150.591 157.321 150.935 157.148 151.342C156.813 152.156 157.054 152.728 157.79 153.794L176.854 177.097L183.076 174.653Z" fill="white"/>
</svg>
